<?xml version="1.0" encoding="UTF-8" standalone="no"?>
<svg
   xmlns:dc="http://purl.org/dc/elements/1.1/"
   xmlns:cc="http://creativecommons.org/ns#"
   xmlns:rdf="http://www.w3.org/1999/02/22-rdf-syntax-ns#"
   xmlns:svg="http://www.w3.org/2000/svg"
   xmlns="http://www.w3.org/2000/svg"
   xmlns:xlink="http://www.w3.org/1999/xlink"
   version="1.1"
   id="svg2"
   viewBox="0 0 744.09448819 1052.3622047"
   height="297mm"
   width="210mm">
  <defs
     id="defs4">
    <circle
       style="fill:none;fill-opacity:1;stroke:none;stroke-opacity:1"
       id="path4756-8"
       cx="392.30466"
       cy="532.1756"
       r="156.52223" />
  </defs>
  <metadata
     id="metadata7">
    <rdf:RDF>
      <cc:Work
         rdf:about="">
        <dc:format>image/svg+xml</dc:format>
        <dc:type
           rdf:resource="http://purl.org/dc/dcmitype/StillImage" />
        <dc:title></dc:title>
      </cc:Work>
    </rdf:RDF>
  </metadata>
  <g
     id="layer1">
    <flowRoot
       style="fill:black;stroke:none;stroke-opacity:1;stroke-width:1px;stroke-linejoin:miter;stroke-linecap:butt;fill-opacity:1;font-family:sans-serif;font-style:normal;font-weight:normal;font-size:40px;line-height:125%;letter-spacing:0px;word-spacing:0px"
       id="flowRoot4701"
       xml:space="preserve"><flowRegion
         id="flowRegion4703"><rect
           y="119.88937"
           x="89.250969"
           height="628.75311"
           width="816.57977"
           id="rect4705" /></flowRegion><flowPara
         id="flowPara4707"></flowPara></flowRoot>    <flowRoot
       style="fill:black;stroke:none;stroke-opacity:1;stroke-width:1px;stroke-linejoin:miter;stroke-linecap:butt;fill-opacity:1;font-family:sans-serif;font-style:normal;font-weight:normal;font-size:40px;line-height:125%;letter-spacing:0px;word-spacing:0px"
       id="flowRoot4748"
       xml:space="preserve"><flowRegion
         id="flowRegion4750"><rect
           y="283.73816"
           x="-27.974186"
           height="484.88586"
           width="741.98193"
           id="rect4752" /></flowRegion><flowPara
         id="flowPara4754"></flowPara></flowRoot>    <g
       id="g4777" />
    <g
       id="g5943">
      <g
         id="g6202">
        <path
           d="m 400.84169,426.80503 c 0.0305,-0.0141 0.0493,-0.0352 0.0892,-0.0493 -0.0328,-0.0235 -0.061,-0.0375 -0.0892,-0.0563 -0.68747,0.0375 -0.68747,0.0774 0,0.10558"
           style="fill:#ffffff;fill-opacity:1;fill-rule:nonzero;stroke:none"
           id="path734" />
        <path
           d="m 398.60987,426.75693 c 0,-0.74848 0.36837,-1.6612 2.12108,-1.77382 l 0.59127,-0.0352 0.49038,0.33318 -0.93853,1.45707 1.17082,0.0188 -1.1802,0 0.94557,1.46646 -0.4458,0.27217 -0.59832,0.0235 c -1.78086,-0.0774 -2.15627,-0.99953 -2.15627,-1.76209"
           style="fill:#000000;fill-opacity:1;fill-rule:nonzero;stroke:none"
           id="path738" />
        <path
           d="m 573.75288,471.39675 c 0,142.48307 -81.98772,257.98807 -183.13085,257.98807 -101.13844,0 -183.13084,-115.505 -183.13084,-257.98807 0,-142.48307 81.9924,-257.98807 183.13084,-257.98807 101.14313,0 183.13085,115.505 183.13085,257.98807"
           style="fill:#f5e7d3;fill-opacity:1;fill-rule:nonzero;stroke:none"
           id="path742" />
        <path
           d="m 573.75288,471.39675 c 0,142.48307 -81.98772,257.98807 -183.13085,257.98807 -101.13844,0 -183.13084,-115.505 -183.13084,-257.98807 0,-142.48307 81.9924,-257.98807 183.13084,-257.98807 101.14313,0 183.13085,115.505 183.13085,257.98807 z"
           style="fill:none;stroke:#748a6a;stroke-width:7.03898191;stroke-linecap:butt;stroke-linejoin:miter;stroke-miterlimit:10;stroke-dasharray:none;stroke-opacity:1"
           id="path746" />
        <path
           d="m 390.62227,227.0887 c -93.43545,0 -169.44942,109.59695 -169.44942,244.30899 0,134.70969 76.01397,244.30663 169.44942,244.30663 93.43544,0 169.44941,-109.59694 169.44941,-244.30663 0,-134.71204 -76.01397,-244.30899 -169.44941,-244.30899"
           style="fill:#f5e7d3;fill-opacity:1;fill-rule:nonzero;stroke:none"
           id="path750" />
        <path
           d="m 390.62227,227.0887 c -93.43545,0 -169.44942,109.59695 -169.44942,244.30899 0,134.70969 76.01397,244.30663 169.44942,244.30663 93.43544,0 169.44941,-109.59694 169.44941,-244.30663 0,-134.71204 -76.01397,-244.30899 -169.44941,-244.30899 z"
           style="fill:none;stroke:#748a6a;stroke-width:2.3463273;stroke-linecap:butt;stroke-linejoin:miter;stroke-miterlimit:10;stroke-dasharray:none;stroke-opacity:1"
           id="path754" />
        <path
           d="m 463.06512,280.87779 c -45.16445,-14.99069 -55.88248,41.08184 -101.03051,37.4333 51.08424,4.14127 56.75766,-47.44039 101.03051,-37.4333"
           style="fill:#748a6a;fill-opacity:1;fill-rule:evenodd;stroke:none"
           id="path758" />
        <path
           d="m 390.29941,280.08614 c -1.13328,0.1877 -1.91695,1.21305 -1.74097,2.28297 0.18301,1.06993 1.25059,1.7879 2.38621,1.60958 1.13797,-0.18536 1.92634,-1.2107 1.74567,-2.29001 -0.17598,-1.06758 -1.24355,-1.7879 -2.39091,-1.60254"
           style="fill:#748a6a;fill-opacity:1;fill-rule:evenodd;stroke:none"
           id="path762" />
        <path
           d="m 390.10678,287.00944 c -1.86299,0.30503 -3.13704,1.96857 -2.84375,3.72597 0.2839,1.75505 2.02488,2.92353 3.88786,2.6185 1.84891,-0.29563 3.12766,-1.97326 2.83437,-3.72127 -0.28626,-1.75975 -2.02254,-2.91883 -3.87848,-2.6232"
           style="fill:#748a6a;fill-opacity:1;fill-rule:evenodd;stroke:none"
           id="path766" />
        <path
           d="m 390.29941,342.68427 c -1.13328,-0.18536 -1.91695,-1.2107 -1.74097,-2.28767 0.18301,-1.06992 1.25059,-1.7879 2.38621,-1.60489 1.13797,0.18771 1.92634,1.20602 1.74567,2.28298 -0.17598,1.07696 -1.24355,1.79494 -2.39091,1.60958"
           style="fill:#748a6a;fill-opacity:1;fill-rule:evenodd;stroke:none"
           id="path770" />
        <path
           d="m 390.10678,335.75416 c -1.86299,-0.29798 -3.13704,-1.97561 -2.84375,-3.72362 0.2839,-1.75036 2.02488,-2.92118 3.88786,-2.61381 1.84891,0.30502 3.12766,1.97561 2.83437,3.72362 -0.28626,1.74801 -2.02254,2.91883 -3.87848,2.61381"
           style="fill:#748a6a;fill-opacity:1;fill-rule:evenodd;stroke:none"
           id="path774" />
        <path
           d="m 389.89608,296.52192 c -2.59973,0.42469 -4.3759,2.75928 -3.97703,5.2065 0.39184,2.45426 2.83202,4.09669 5.43175,3.67201 2.60208,-0.42469 4.38529,-2.76867 3.98406,-5.21589 -0.39887,-2.44487 -2.83905,-4.09199 -5.43878,-3.66262"
           style="fill:#748a6a;fill-opacity:1;fill-rule:evenodd;stroke:none"
           id="path778" />
        <path
           d="m 463.82369,333.39985 c -11.37265,2.44018 -22.0719,-3.85267 -24.49331,-12.56927 -2.4261,-8.72599 2.50822,-18.90905 13.29898,-22.12352 6.48056,-1.92868 13.89964,0.77898 17.18919,7.07183 3.28486,6.2905 -1.31159,14.18589 -8.89492,15.80721 -1.22244,0.26982 -2.2994,0.24636 -3.23559,0.0282 3.52184,-0.005 6.37732,-2.7147 6.37732,-6.04414 0,-3.33178 -2.86017,-6.0324 -6.3914,-6.0324 -3.53356,0 -6.39374,2.70062 -6.39374,6.0324 0,1.00423 0.25341,1.9498 0.71798,2.78275 1.25998,3.38809 5.26281,5.44348 9.13425,4.61288 7.95874,-1.71517 12.59509,-8.90666 10.35434,-16.06061 -2.24074,-7.15161 -10.33557,-10.80249 -18.47498,-9.83815 -11.53924,1.34913 -20.14791,14.87102 -15.16431,26.14512 4.99064,11.27176 15.40129,15.27459 27.34175,12.69363 15.92687,-3.42329 24.25399,-18.88793 20.71572,-32.10245 -3.04084,-11.35388 -12.96111,-19.24692 -28.6815,-19.95317 -35.92462,-2.91179 -48.51266,43.16539 -89.56635,39.85237 49.13913,3.98407 56.26493,-43.5971 96.14076,-38.30144 9.90385,2.41906 16.82082,8.09013 19.74434,17.41913 4.27267,13.61574 -4.55422,27.30421 -19.71853,30.57968"
           style="fill:#748a6a;fill-opacity:1;fill-rule:evenodd;stroke:none"
           id="path782" />
        <path
           d="m 318.17941,280.87779 c 45.15272,-14.99069 55.88717,41.08184 101.03285,37.4333 -51.09127,4.14127 -56.76469,-47.44039 -101.03285,-37.4333"
           style="fill:#748a6a;fill-opacity:1;fill-rule:evenodd;stroke:none"
           id="path786" />
        <path
           d="m 317.41662,333.39985 c 11.37499,2.44018 22.06486,-3.85267 24.49566,-12.56927 2.43548,-8.72599 -2.50119,-18.90905 -13.2896,-22.12352 -6.49229,-1.92868 -13.90668,0.77898 -17.20093,7.07183 -3.27312,6.2905 1.3116,14.18589 8.89493,15.80721 1.22948,0.26982 2.30409,0.24636 3.23559,0.0282 -3.52184,-0.005 -6.37732,-2.7147 -6.37732,-6.04414 0,-3.33178 2.86017,-6.0324 6.39139,-6.0324 3.53357,0 6.39609,2.70062 6.39609,6.0324 0,1.00423 -0.26513,1.9498 -0.72032,2.78275 -1.25763,3.38809 -5.26047,5.44348 -9.13425,4.61288 -7.95875,-1.71517 -12.59743,-8.90666 -10.352,-16.06061 2.2384,-7.15161 10.33323,-10.80249 18.48671,-9.83815 11.5322,1.34913 20.14088,14.87102 15.15493,26.14512 -4.98594,11.27176 -15.40598,15.27459 -27.34644,12.69363 -15.91983,-3.42329 -24.24695,-18.88793 -20.70869,-32.10245 3.0338,-11.35388 12.95642,-19.24692 28.68385,-19.95317 35.91524,-2.91179 48.50093,43.16539 89.57339,39.85237 -49.15555,3.98407 -56.279,-43.5971 -96.15718,-38.30144 -9.9015,2.41906 -16.80909,8.09013 -19.74435,17.41913 -4.27266,13.61574 4.55423,27.30421 19.71854,30.57968"
           style="fill:#748a6a;fill-opacity:1;fill-rule:evenodd;stroke:none"
           id="path790" />
        <path
           d="m 318.1773,661.9143 c 45.16445,14.99069 55.88248,-41.08184 101.03285,-37.4333 -51.08658,-4.14127 -56.76,47.44039 -101.03285,37.4333"
           style="fill:#748a6a;fill-opacity:1;fill-rule:evenodd;stroke:none"
           id="path794" />
        <path
           d="m 390.94324,662.70595 c 1.13328,-0.1877 1.9193,-1.21305 1.74098,-2.28297 -0.18067,-1.06993 -1.25059,-1.78791 -2.38622,-1.60724 -1.13797,0.18301 -1.92633,1.20836 -1.74566,2.28767 0.17597,1.06758 1.2459,1.7879 2.3909,1.60254"
           style="fill:#748a6a;fill-opacity:1;fill-rule:evenodd;stroke:none"
           id="path798" />
        <path
           d="m 391.13564,655.78264 c 1.86299,-0.30502 3.13939,-1.96856 2.84375,-3.72596 -0.2839,-1.75506 -2.02488,-2.92353 -3.88786,-2.6185 -1.84891,0.29563 -3.12531,1.97326 -2.83437,3.72127 0.28626,1.75975 2.02254,2.91883 3.87848,2.62319"
           style="fill:#748a6a;fill-opacity:1;fill-rule:evenodd;stroke:none"
           id="path802" />
        <path
           d="m 390.94324,600.10782 c 1.13328,0.18536 1.9193,1.2107 1.74098,2.29001 -0.18067,1.06758 -1.25059,1.78556 -2.38622,1.60254 -1.13797,-0.1877 -1.92633,-1.20601 -1.74566,-2.28297 0.17597,-1.07697 1.2459,-1.79494 2.3909,-1.60958"
           style="fill:#748a6a;fill-opacity:1;fill-rule:evenodd;stroke:none"
           id="path806" />
        <path
           d="m 391.13564,607.03793 c 1.86299,0.29798 3.13939,1.97561 2.84375,3.72362 -0.2839,1.75036 -2.02488,2.92118 -3.88786,2.61381 -1.84891,-0.30502 -3.12531,-1.97561 -2.83437,-3.72362 0.28626,-1.74802 2.02254,-2.91883 3.87848,-2.61381"
           style="fill:#748a6a;fill-opacity:1;fill-rule:evenodd;stroke:none"
           id="path810" />
        <path
           d="m 391.34634,646.27016 c 2.60208,-0.42468 4.3759,-2.75928 3.97937,-5.2065 -0.39418,-2.45425 -2.83436,-4.09668 -5.43409,-3.672 -2.60208,0.42469 -4.38294,2.76867 -3.98406,5.21589 0.39887,2.44487 2.8414,4.09199 5.43878,3.66261"
           style="fill:#748a6a;fill-opacity:1;fill-rule:evenodd;stroke:none"
           id="path814" />
        <path
           d="m 317.41873,609.39247 c 11.375,-2.44018 22.07425,3.85267 24.49566,12.56927 2.4261,8.726 -2.50823,18.90906 -13.30133,22.12352 -6.48056,1.92868 -13.89964,-0.77898 -17.1892,-7.07183 -3.28251,-6.2905 1.3116,-14.18589 8.89493,-15.8072 1.22244,-0.26983 2.2994,-0.24637 3.23559,-0.0282 -3.52184,0.005 -6.37732,2.7147 -6.37732,6.04414 0,3.33178 2.86017,6.03241 6.39139,6.03241 3.53357,0 6.39609,-2.70063 6.39609,-6.03241 0,-1.00423 -0.25575,-1.9498 -0.72032,-2.78274 -1.25763,-3.3881 -5.26047,-5.44348 -9.13425,-4.61054 -7.95874,1.71282 -12.59509,8.90431 -10.352,16.06061 2.2384,7.15161 10.33323,10.80015 18.47264,9.83815 11.54158,-1.35148 20.15026,-14.87337 15.16431,-26.14747 -4.98829,-11.27175 -15.40129,-15.27459 -27.34175,-12.69363 -15.92687,3.42329 -24.25399,18.88794 -20.71338,32.10245 3.03849,11.35388 12.96111,19.24692 28.68151,19.95317 35.92227,2.91179 48.51031,-43.16538 89.56635,-39.85237 -49.14148,-3.98406 -56.26728,43.59711 -96.14311,38.30145 -9.9015,-2.41907 -16.81847,-8.08779 -19.74434,-17.41914 -4.27267,-13.61574 4.55422,-27.30421 19.71853,-30.57968"
           style="fill:#748a6a;fill-opacity:1;fill-rule:evenodd;stroke:none"
           id="path818" />
        <path
           d="m 463.06301,661.9143 c -45.15038,14.99069 -55.88717,-41.08184 -101.03051,-37.4333 51.08893,-4.14127 56.7647,47.44039 101.03051,37.4333"
           style="fill:#748a6a;fill-opacity:1;fill-rule:evenodd;stroke:none"
           id="path822" />
        <path
           d="m 463.82604,609.39247 c -11.37265,-2.44018 -22.06487,3.85267 -24.49332,12.56927 -2.43548,8.726 2.50119,18.90906 13.2896,22.12352 6.49229,1.92868 13.90434,-0.77898 17.19858,-7.07183 3.27547,-6.2905 -1.3116,-14.18589 -8.89493,-15.8072 -1.22947,-0.26983 -2.30409,-0.24637 -3.23558,-0.0282 3.52184,0.005 6.37732,2.7147 6.37732,6.04414 0,3.33178 -2.86018,6.03241 -6.3914,6.03241 -3.53357,0 -6.39374,-2.70063 -6.39374,-6.03241 0,-1.00423 0.26279,-1.9498 0.71798,-2.78274 1.25997,-3.3881 5.26281,-5.44348 9.13659,-4.61054 7.95875,1.71282 12.59509,8.90431 10.352,16.06061 -2.24074,7.15161 -10.33557,10.80015 -18.48906,9.83815 -11.52985,-1.35148 -20.13853,-14.87337 -15.15493,-26.14747 4.98829,-11.27175 15.40599,-15.27459 27.34645,-12.69363 15.91983,3.42329 24.24694,18.88794 20.71103,32.10245 -3.03615,11.35388 -12.95642,19.24692 -28.68385,19.95317 -35.91523,2.91179 -48.50328,-43.16538 -89.57574,-39.85237 49.15556,-3.98406 56.27901,43.59711 96.15953,38.30145 9.9015,-2.41907 16.80909,-8.08779 19.742,-17.41914 4.27266,-13.61574 -4.55422,-27.30421 -19.71853,-30.57968"
           style="fill:#748a6a;fill-opacity:1;fill-rule:evenodd;stroke:none"
           id="path826" />
        <path
           d="m 347.13285,209.12241 c 0.77899,-3.65793 -2.00141,-12.98693 -7.3745,-16.84429 -5.37309,-3.85501 -14.09674,-10.4787 -26.63551,-7.31585 -12.54581,3.16285 -15.51157,5.42471 -15.51157,5.42471 0,0 -14.87806,-5.00706 -17.8579,-8.18399 -2.97749,-3.17458 -7.7945,0.11263 -9.28676,9.00286 -1.49461,8.89023 -1.7879,18.12069 -1.7879,18.12069 0,0 -8.23326,4.38763 -15.14085,3.19804 -6.90524,-1.18724 -9.09437,-0.77429 -8.50778,3.53357 0.58658,4.30316 5.08449,20.33092 13.30367,29.65288 8.21449,9.32431 13.66032,14.75136 13.66032,14.75136 0,0 -10.82596,11.67298 2.18208,24.16483 13.0057,12.49654 44.26347,22.67725 46.46902,10.36607 2.20789,-12.30649 2.33928,-14.60119 2.33928,-14.60119 0,0 8.32008,8.05963 19.53553,8.65794 11.21075,0.60301 24.4323,-1.32802 23.57589,-8.3013 -0.86345,-6.97329 -10.14786,-22.54821 -10.56316,-26.55104 -0.41765,-3.99345 -0.27922,-4.47445 -0.27922,-4.47445 0,0 8.80577,-10.94796 8.38108,-18.57118 -0.41764,-7.62556 -7.01551,-8.97939 -7.01551,-8.97939 0,0 0.88221,-3.11593 -0.45285,-4.7912 -1.33506,-1.67059 -1.80901,-1.80667 -1.80901,-1.80667 0,0 3.03849,-2.49884 -1.27406,-3.72597 -4.3102,-1.22479 -3.28016,-1.18959 -5.95029,-2.72643"
           style="fill:#a4474e;fill-opacity:1;fill-rule:evenodd;stroke:none"
           id="path834" />
        <path
           d="m 282.10017,187.51977 c -4.04272,-4.22574 -9.61056,-3.09481 -10.57959,6.03475 -0.96669,9.12956 -1.54858,21.98978 0.6382,28.94195 2.18209,6.95217 9.28911,13.13005 8.22857,4.14831 -1.06992,-8.98409 -4.74662,-29.74674 0.0282,-31.28593 4.77712,-1.5345 3.55468,-6.76446 1.68466,-7.83908"
           style="fill:#983038;fill-opacity:1;fill-rule:evenodd;stroke:none"
           id="path838" />
        <path
           d="m 345.07301,201.44428 c -1.43595,-4.35009 -10.00708,-13.15585 -18.58995,-15.41302 -8.58286,-2.26186 -15.17839,0.56546 -20.88466,2.19851 -5.7133,1.63304 -13.85506,8.00097 -15.34967,12.63732 -1.50165,4.63869 -0.061,12.28537 0.9925,13.67205 1.0535,1.38433 3.30363,4.9179 2.51526,0.71093 -0.79541,-4.20461 -4.27266,-14.23516 3.94183,-20.22065 8.20745,-5.98548 20.48813,-9.73021 28.68854,-7.39797 8.19807,2.32991 19.34782,15.82833 18.68615,13.81283"
           style="fill:#983038;fill-opacity:1;fill-rule:evenodd;stroke:none"
           id="path842" />
        <path
           d="m 286.86157,210.21532 c -1.55327,-0.77898 -4.10842,0.45988 -4.87097,3.13939 -0.75787,2.67716 2.63023,0.92915 4.02395,3.67435 1.38433,2.74755 6.38905,9.95547 17.74996,16.44071 11.36327,6.48995 17.5083,8.41863 24.437,9.48386 6.9334,1.06289 6.33274,-1.41718 1.33506,-2.15393 -6.59318,-0.96903 -20.20657,-9.2328 -29.0311,-14.94376 -11.45477,-7.41908 -11.8208,-14.72555 -13.6439,-15.64062"
           style="fill:#983038;fill-opacity:1;fill-rule:evenodd;stroke:none"
           id="path846" />
        <path
           d="m 307.67842,191.07352 c -1.59785,-0.054 -10.14082,6.45005 -11.3703,13.00334 -1.22009,6.5533 -2.20555,15.85883 2.17035,18.89498 4.3806,3.03614 8.13237,6.91228 7.40267,2.74051 -0.72971,-4.16708 -5.48572,-13.06201 -3.75647,-20.49517 1.72455,-7.43317 9.09671,-14.02869 5.55375,-14.14366"
           style="fill:#983038;fill-opacity:1;fill-rule:evenodd;stroke:none"
           id="path850" />
        <path
           d="m 315.59258,200.09796 c -1.80667,2.30175 -5.71565,7.96344 -1.40779,9.44397 4.3102,1.48288 8.2098,2.59034 6.46882,-1.61193 -1.74567,-4.20462 -4.33601,-9.92731 -5.06103,-7.83204"
           style="fill:#983038;fill-opacity:1;fill-rule:evenodd;stroke:none"
           id="path854" />
        <path
           d="m 317.40723,192.81965 c -1.1802,-0.34021 -1.16612,0.0493 0.47865,3.71189 1.64009,3.66497 4.2539,12.46135 6.70815,15.96911 1.34914,1.92868 2.15393,2.7757 2.8109,3.24966 -7.21964,-2.52465 -18.28962,-6.62837 -19.65283,-6.50402 -0.79306,1.43595 2.2642,1.92164 5.33789,2.79917 3.07838,0.87049 16.18966,6.00425 20.29339,7.30177 4.11076,1.29283 9.80061,3.29659 11.05354,3.39748 1.2506,0.0985 -1.11685,-0.5725 -2.4871,-1.60254 -1.36791,-1.03004 3.68373,-0.35899 6.18022,-1.05115 2.49884,-0.69921 5.24874,-3.62273 6.00895,-4.94137 0.75786,-1.31864 -0.3238,-2.0108 -1.89583,-2.3299 -1.57204,-0.32145 1.1497,1.34914 0.19005,2.48241 -0.962,1.13093 -2.27594,3.05961 -4.70908,3.51949 -2.4308,0.45754 -10.26988,0.14782 -15.79782,-1.55092 -0.78602,-0.24402 -1.80433,-0.57954 -2.97984,-0.98546 -0.76725,-0.89395 -3.43033,-3.42798 -4.06618,-5.237 -0.84937,-2.41437 -5.56315,-16.41021 -7.47306,-18.22862"
           style="fill:#983038;fill-opacity:1;fill-rule:evenodd;stroke:none"
           id="path858" />
        <path
           d="m 307.63947,227.6239 c 3.49603,-1.9498 20.46936,-4.5378 24.48393,-4.28909 4.01926,0.24871 8.95593,2.67482 12.50123,0.99485 3.54061,-1.67528 7.88131,-4.78886 9.78888,-4.75836 1.90756,0.0352 -2.84844,4.17881 -6.74804,5.7532 -3.90194,1.57438 -12.40034,0.43642 -15.03292,-0.18536 -2.63258,-0.62178 -20.55148,1.69874 -22.88373,2.70062 -2.32521,0.99954 -3.89959,0.68044 -2.10935,-0.21586"
           style="fill:#983038;fill-opacity:1;fill-rule:evenodd;stroke:none"
           id="path862" />
        <path
           d="m 323.53209,199.16084 c 2.83905,-0.33083 13.71897,0.99484 17.84147,4.68796 3.97233,3.55703 5.56783,11.42896 5.58895,12.71005 0.0164,1.28345 -0.31675,1.5697 -1.03238,-0.41999 -0.71094,-1.99203 -3.3881,-8.76118 -5.55141,-11.03947 -2.16566,-2.27594 -12.96581,-5.21588 -15.7157,-4.9789 -2.09293,0.18066 -2.13985,-0.84703 -1.13093,-0.95965"
           style="fill:#983038;fill-opacity:1;fill-rule:evenodd;stroke:none"
           id="path866" />
        <path
           d="m 327.25313,204.05293 c 2.95637,0.83999 8.53594,4.5988 9.19525,8.11125 0.66401,3.51011 -2.55984,5.40829 -1.51807,1.74098 1.04646,-3.66731 -5.22762,-7.24077 -7.12345,-8.67437 -1.88879,-1.42892 -1.63539,-1.87003 -0.55373,-1.17786"
           style="fill:#983038;fill-opacity:1;fill-rule:evenodd;stroke:none"
           id="path870" />
        <path
           d="m 328.87772,208.22423 c 2.18209,0.87283 4.27971,3.3881 3.60631,5.7532 -0.67105,2.36744 -2.0108,2.11404 -3.75178,-1.19663 -1.74332,-3.30598 -1.98264,-6.05822 0.14547,-4.55657"
           style="fill:#983038;fill-opacity:1;fill-rule:evenodd;stroke:none"
           id="path874" />
        <path
           d="m 353.08338,224.36907 c -1.22009,1.90757 1.47349,9.89681 -4.04273,11.03713 -5.50917,1.14031 -10.12675,5.46929 -11.25533,11.016 -1.12389,5.54438 -11.13801,9.01694 -5.5913,8.56175 5.54437,-0.45518 17.3159,-2.97279 21.36801,-6.10983 4.04976,-3.1347 8.00332,-13.0667 8.83157,-17.5693 0.8306,-4.50495 -8.38812,-9.38062 -9.31022,-6.93575"
           style="fill:#983038;fill-opacity:1;fill-rule:evenodd;stroke:none"
           id="path878" />
        <path
           d="m 339.71353,256.8223 c -4.80997,0.41295 -9.2281,2.87191 -19.87339,-0.63585 -10.64998,-3.5148 -22.84384,-11.83488 -22.38865,-7.17507 0.45753,4.65746 7.77807,13.04792 22.03436,15.8072 14.25863,2.75928 17.73588,0.1924 22.88842,-1.41952 5.14549,-1.60724 2.81324,-7.60914 -2.66074,-6.57676"
           style="fill:#983038;fill-opacity:1;fill-rule:evenodd;stroke:none"
           id="path882" />
        <path
           d="m 268.2491,222.59079 c -1.55093,-3.37167 -16.16855,-9.12721 -14.88276,-4.55422 1.29048,4.57299 9.75603,24.28684 17.16339,32.37463 7.40266,8.09483 11.69409,6.07698 15.38956,3.89255 3.69546,-2.18208 3.1605,-3.14642 -0.45754,-5.78839 -3.61099,-2.64665 -11.91699,-12.12582 -13.76121,-17.01791 -1.84186,-4.88974 -2.56922,-6.98501 -3.45144,-8.90666"
           style="fill:#983038;fill-opacity:1;fill-rule:evenodd;stroke:none"
           id="path886" />
        <path
           d="m 331.59993,280.23184 c 5.92448,3.62742 11.71756,5.43644 18.00103,2.69124 6.27642,-2.74051 1.12154,-5.66403 -4.36652,-6.25296 -5.4951,-0.59362 -17.20562,0.76959 -13.63451,3.56172"
           style="fill:#983038;fill-opacity:1;fill-rule:evenodd;stroke:none"
           id="path890" />
        <path
           d="m 293.80201,266.41268 c -4.7255,1.24355 -17.26193,3.82686 -15.05638,9.14364 2.20554,5.31912 18.63453,16.94752 28.6815,16.88886 10.04228,-0.0563 7.39562,-12.93999 5.78839,-16.95221 -1.60723,-4.01692 -13.36937,-10.43412 -19.41351,-9.08029"
           style="fill:#983038;fill-opacity:1;fill-rule:evenodd;stroke:none"
           id="path894" />
        <path
           d="m 294.08615,240.49656 c -1.97561,-3.54061 -3.31067,-9.81235 -3.53592,-12.28068 -0.22055,-2.46599 -2.59269,-5.17365 -3.60161,-7.49652 -1.00188,-2.31817 -3.07603,-2.16566 -4.52137,-4.24216 -1.44534,-2.07415 -2.0765,-2.44018 0.0399,-6.6401 2.12108,-4.20462 3.22385,-2.22901 4.54249,-1.67059 1.32098,0.56312 1.40779,-4.96013 1.64946,-7.10702 0.24168,-2.14924 -2.44956,-6.98502 -4.91321,-4.17177 -2.46599,2.8109 -3.74943,9.28676 -3.64384,14.12254 0.10089,4.83343 1.50165,9.66921 2.3604,13.7964 0.85876,4.12719 3.06665,9.37358 5.5608,11.00663 2.4918,1.63539 4.39936,4.02629 4.15534,4.88036 -0.24401,0.85406 -4.30081,-1.77617 -7.89539,-4.09434 -3.59222,-2.31583 -9.01459,-4.04273 -11.46415,-9.73022 -2.45191,-5.6875 -5.02818,-15.47872 -4.23982,-10.4482 0.79072,5.03053 2.67951,12.03901 10.64998,19.10849 7.96813,7.07652 9.38531,7.29473 8.94655,8.83392 -0.43172,1.53685 -1.28579,2.59035 0.93149,0.63351 2.22197,-1.95684 2.75459,-2.54342 7.61853,-0.79071 4.86159,1.75036 19.42993,10.32853 26.26948,10.97846 6.83954,0.65463 7.51763,-1.74097 8.88319,-3.94183 1.36791,-2.20085 5.47164,-4.84751 5.93152,-8.41393 0.45753,-3.56876 4.95779,-9.23279 8.29192,-12.43553 3.33648,-3.20978 7.82031,-6.74569 6.81373,-6.68703 -1.00188,0.0587 -2.04365,0.40122 -3.99345,2.06477 -1.95214,1.66354 -5.68984,2.45191 -6.98032,5.03991 -1.29048,2.59269 -5.60303,8.01974 -6.06291,11.58616 -0.46223,3.56642 -4.07322,7.16099 -5.60772,9.31257 -1.5345,2.15159 -10.76964,0.81887 -19.1038,-3.02911 -8.33415,-3.84797 -15.57961,-5.48571 -17.08126,-8.18398"
           style="fill:#8d1922;fill-opacity:1;fill-rule:evenodd;stroke:none"
           id="path898" />
        <path
           d="m 314.66461,196.06861 c -0.48569,1.70813 -2.18678,7.69361 -3.40687,9.38062 -1.22009,1.68936 -2.95167,1.93337 -3.75647,2.81794 -0.80479,0.87753 -0.53261,1.87941 0.34491,3.97937 0.88222,2.09762 3.16051,6.44301 6.87005,6.38905 3.71189,-0.054 5.69688,5.31443 9.53078,4.18819 3.83625,-1.13093 7.32758,-2.35336 11.09109,-1.28344 3.76116,1.06993 5.20416,1.84656 7.0601,1.82075 1.85125,-0.0258 2.92352,-0.002 3.3576,-0.64054 0.43172,-0.63586 -2.77806,-1.21306 -0.86111,-1.42423 1.91695,-0.21586 5.44817,-1.06992 7.2525,-2.66308 1.80433,-1.5955 3.64385,-0.65228 2.00611,0.0633 -1.63774,0.71563 -5.54672,2.89303 -6.52748,3.37637 -0.97842,0.481 -3.07369,2.49884 -5.31443,2.36744 -2.24075,-0.12905 -10.92685,-3.10888 -16.45245,-1.47349 -5.52795,1.63774 -14.47449,2.55046 -16.42429,3.17693 -1.95449,0.62647 -6.41251,-10.08921 -5.37309,-15.53034 1.04177,-5.43879 3.38575,-11.01836 6.26939,-14.32902 2.88363,-3.31771 4.96952,-2.63962 4.33366,-0.21587"
           style="fill:#8d1922;fill-opacity:1;fill-rule:evenodd;stroke:none"
           id="path902" />
        <path
           d="m 321.77915,197.85018 c -0.61474,-1.10043 -3.0033,-4.5683 0.30971,-3.45614 3.31302,1.11216 15.02119,5.03053 17.08361,6.37732 2.06477,1.34444 -0.15486,0.54669 -2.6842,-0.34022 -2.53169,-0.8916 -10.40361,-2.8766 -12.16805,-2.6185 -1.7574,0.25809 -1.80198,1.59785 -2.54107,0.0375"
           style="fill:#8d1922;fill-opacity:1;fill-rule:evenodd;stroke:none"
           id="path906" />
        <path
           d="m 347.71474,255.20474 c 2.21728,1.71282 4.75601,8.03148 3.9958,11.96862 -0.75786,3.93479 -0.34726,8.20276 -2.75928,7.1563 -2.40733,-1.04412 -0.70155,-9.58944 -4.92025,-8.07841 -4.22104,1.51104 -15.82598,8.67907 -26.94992,3.34821 -11.11924,-5.32616 -19.71618,-13.18636 -20.76734,-15.83302 -1.0535,-2.64665 -4.11546,-8.38812 -5.78135,-7.6021 -1.67293,0.79072 -2.83671,2.98688 -0.92914,2.62789 1.90991,-0.36368 4.0568,0.97138 4.56126,3.6415 0.50446,2.67247 -2.3041,9.9977 -7.92824,12.0085 -5.6265,2.00846 -10.87523,0.15721 -12.00147,-1.60723 -1.12154,-1.76444 -2.85782,1.17316 -3.42564,3.17693 -0.57015,2.00376 -1.09573,5.1056 1.16847,2.86017 2.2689,-2.24309 10.03994,-1.65651 14.8546,-3.35525 4.81701,-1.70343 13.35764,-3.78932 22.40274,1.85125 9.04509,5.64292 19.77954,7.25015 27.88375,4.13892 8.10656,-3.11123 9.33369,4.63635 12.8391,4.37356 3.50307,-0.26514 5.31209,-5.34728 3.65793,-11.59555 -1.65416,-6.24827 -6.57441,-11.79968 -5.90102,-9.08029"
           style="fill:#8d1922;fill-opacity:1;fill-rule:evenodd;stroke:none"
           id="path910" />
        <path
           d="m 288.97186,187.14858 c -1.12155,-4.20462 -9.60587,-10.51389 -11.14036,-12.66782 -1.66355,-2.33929 -8.30835,-1.89818 -10.99255,-4.75835 -2.6795,-2.86018 -6.67764,-0.26748 -12.56223,-3.34117 -5.88459,-3.069 -9.14364,1.82779 -14.16243,-0.99719 -5.02349,-2.82498 -6.7105,0.65697 -10.22061,1.52277 -3.5101,0.86814 0.72033,6.49698 0.10324,8.6509 -0.61239,2.15628 6.29285,10.64294 5.6218,13.01508 -0.67574,2.36979 7.825,6.88647 7.39797,10.02586 -0.42703,3.13938 9.18118,5.40594 10.29569,9.68094 0.53496,2.04835 1.84656,3.40687 3.61334,4.42518 5.94794,-0.2886 11.7551,-3.37871 11.7551,-3.37871 0,0 0.29329,-9.23046 1.78556,-18.12069 1.49226,-8.89023 6.30927,-12.17744 9.28676,-9.00286 1.38902,1.48288 5.3684,3.36229 9.21872,4.94606"
           style="fill:#748a6a;fill-opacity:1;fill-rule:evenodd;stroke:none"
           id="path914" />
        <path
           d="m 241.31678,173.13936 c -0.3848,-1.4336 -2.03427,-3.48664 -4.15535,-5.5561 -0.93853,-0.91741 -1.96622,-1.82779 -3.02441,-2.68889 0.46222,-0.21586 0.94087,-0.39184 1.45237,-0.49742 0.8658,0.72971 1.70578,1.48757 2.48476,2.24543 2.67247,2.60912 4.64339,5.3074 4.62461,7.20323 2.42141,1.2459 4.82171,2.56219 7.13988,3.8949 0.4763,0.27452 0.95026,0.55139 1.42657,0.82591 0.10323,-2.05773 -0.89395,-5.59834 -2.47069,-9.24688 -0.51854,-1.20132 -1.09573,-2.40733 -1.7222,-3.57345 0.43876,-0.0962 0.88456,-0.18771 1.33741,-0.26514 0.5725,1.09104 1.10746,2.21024 1.58377,3.32006 1.79024,4.14126 2.85078,8.2356 2.50118,10.49277 2.94933,1.75505 5.73677,3.51011 8.25907,5.16192 0.46692,-2.35337 0.26279,-5.95263 -0.67809,-9.79122 -0.57015,-2.33929 -1.41718,-4.76539 -2.5528,-7.04602 0.55139,0.13843 1.084,0.23463 1.5955,0.30267 0.96669,2.107 1.71048,4.30786 2.22667,6.43363 1.04881,4.2844 1.2107,8.3365 0.5725,10.87054 2.36041,1.57204 4.4416,3.02207 6.14973,4.25858 0.65462,0.4763 1.25763,0.91976 1.79494,1.32568 0.0751,-0.61474 0.14781,-1.3773 0.20647,-2.24779 0.20883,-3.05961 0.26983,-7.46366 -0.0774,-11.61666 -0.16893,-2.04365 -0.43172,-4.01457 -0.8306,-5.718 0.46223,0.19005 0.94792,0.35899 1.44065,0.50915 0.32849,1.57673 0.55139,3.32005 0.69686,5.09857 0.30033,3.62038 0.29564,7.44255 0.15251,10.43881 -0.0845,0.24871 -0.16894,0.50211 -0.24871,0.7649 -0.29329,0.95965 -0.53966,2.01784 -0.7344,3.16754 -0.0845,0.50916 -0.16659,1.01596 -0.24637,1.52512 -0.78132,-0.61943 -1.7832,-1.3726 -2.98218,-2.2384 -1.27875,0.98077 -3.18866,1.59785 -5.4951,1.9146 -2.81324,0.39184 -6.2295,0.34022 -9.86161,-0.0235 -5.34728,-0.53496 -11.20137,-1.74332 -16.2577,-3.1957 -0.0563,-0.21821 -0.061,-0.42468 -0.007,-0.61473 0.0587,-0.20648 0.0563,-0.45988 0.0141,-0.74379 5.05868,1.47819 10.97846,2.71235 16.37971,3.25436 6.06525,0.60769 11.44538,0.35194 14.10377,-1.39842 -2.0765,-1.47584 -4.61053,-3.20039 -7.4449,-5.02583 -2.63961,1.66355 -8.15818,1.67293 -14.32667,0.73206 -3.56407,-0.54435 -7.35574,-1.39607 -10.94092,-2.42376 -0.31441,-0.54669 -0.6382,-1.09808 -0.95731,-1.64478 3.90664,1.18255 8.14645,2.17505 12.09298,2.77571 5.48102,0.83295 10.35434,0.9268 12.87899,-0.23933 -2.55985,-1.62835 -5.33321,-3.32005 -8.23092,-4.9836 -0.65697,-0.3801 -1.32098,-0.75551 -1.99438,-1.13093 -2.38856,1.00423 -7.78277,0.76491 -13.39987,-0.74847 -1.27171,-0.34257 -2.56219,-0.75317 -3.82921,-1.22244 0.002,-0.0798 0.0164,-0.15017 0.0352,-0.21586 0.0915,-0.3238 0.0727,-0.72502 -0.007,-1.17317 1.36791,0.52793 2.76866,0.98077 4.14361,1.3468 4.61288,1.24355 8.99113,1.626 11.46416,1.13093 -5.657,-3.08777 -11.59086,-5.92213 -17.10238,-7.84378 -0.0352,-0.49976 0.0235,-0.94557 0.22524,-1.3069 4.0615,1.40545 8.35058,3.29894 12.59509,5.42705"
           style="fill:#a4bd93;fill-opacity:1;fill-rule:nonzero;stroke:none"
           id="path918" />
        <path
           d="m 253.53645,197.872 c 6.32335,0.0587 12.10705,-0.58424 16.18262,-1.44768 -0.0563,0.45284 -0.11028,0.90333 -0.15955,1.34679 -4.17646,0.84702 -9.87335,1.4688 -16.03715,1.40779 -1.91695,-0.0188 -3.87848,-0.10323 -5.85878,-0.26044 -1.53919,-0.12435 -3.08776,-0.29798 -4.63165,-0.51854 0.007,-0.44111 -0.14547,-0.91037 -0.41295,-1.38668 2.51292,0.38949 5.04226,0.63351 7.52702,0.75787 1.14031,0.0563 2.27124,0.0915 3.39044,0.10089"
           style="fill:#a4bd93;fill-opacity:1;fill-rule:nonzero;stroke:none"
           id="path922" />
        <path
           d="m 279.88453,182.33791 c -0.0422,-0.44815 -0.0868,-0.8963 -0.14547,-1.3468 -0.22994,-1.90756 -0.56781,-3.78931 -1.02769,-5.51856 0.46926,0.47865 1.06758,1.04177 1.73159,1.65886 0.25106,1.20601 0.44815,2.45191 0.60066,3.70485 0.10089,0.84233 0.18067,1.69639 0.24636,2.53638 l 0,0.0375 -0.0352,-0.0211 c -0.55843,-0.36368 -1.02769,-0.71563 -1.37026,-1.05115"
           style="fill:#a4bd93;fill-opacity:1;fill-rule:nonzero;stroke:none"
           id="path926" />
        <path
           d="m 268.87908,205.48959 c -0.0328,0.48803 -0.0587,0.94322 -0.0821,1.34913 -1.145,0.22994 -2.32755,0.43877 -3.53357,0.62178 -3.90428,0.59362 -8.06667,0.93619 -11.92872,0.90803 l -0.0235,-0.0892 c -0.11262,-0.42703 -0.31206,-0.83529 -0.57719,-1.22478 3.9559,0.0704 8.28253,-0.27218 12.32995,-0.88691 1.31159,-0.19944 2.59269,-0.42704 3.81512,-0.67809"
           style="fill:#a4bd93;fill-opacity:1;fill-rule:nonzero;stroke:none"
           id="path930" />
        <path
           d="m 297.4292,297.89453 c -1.68232,1.85359 -3.57346,4.11545 -4.74662,7.8203 -2.55046,8.04321 -9.88274,6.55095 -11.87711,13.59932 -1.99204,7.0554 -6.63542,5.43175 -10.57959,7.7945 -3.93479,2.36509 -5.176,-6.49698 -7.66076,-7.8907 -2.48711,-1.39372 -3.87379,-15.24174 -6.60726,-16.7739 -2.73816,-1.53684 0.88222,-13.23094 -2.32052,-15.67815 -3.20039,-2.45192 3.42564,-13.11128 0.59832,-17.96818 -1.35618,-2.32052 -1.39372,-4.72785 -0.71094,-7.23138 4.44394,-4.00987 10.37546,-6.35855 12.66782,-7.17038 3.64619,3.91602 5.80012,6.06526 5.80012,6.06526 0,0 -10.82361,11.67298 2.18443,24.16482 5.61476,5.3989 14.63639,10.36139 23.25211,13.26849"
           style="fill:#748a6a;fill-opacity:1;fill-rule:evenodd;stroke:none"
           id="path934" />
        <path
           d="m 292.03311,295.82647 c 0.76725,0.32849 1.53685,0.64524 2.30644,0.94323 0.481,1.04646 0.9268,2.11873 1.32802,3.21212 -0.40122,0.52323 -0.7954,1.08635 -1.16378,1.70812 -0.67808,-2.02957 -1.52276,-4.00283 -2.47068,-5.86347"
           style="fill:#a4bd93;fill-opacity:1;fill-rule:nonzero;stroke:none"
           id="path938" />
        <path
           d="m 263.77395,277.985 c -3.02207,3.06196 -5.99252,6.44301 -8.68376,10.04228 -0.13374,0.17363 -0.26279,0.34726 -0.38715,0.52558 -0.0328,-0.10324 -0.0657,-0.20413 -0.0938,-0.30268 -0.18536,-0.53731 -0.43642,-0.9878 -0.77898,-1.31863 2.72409,-3.62977 5.718,-7.03195 8.75649,-10.11502 1.7269,-1.74802 3.47022,-3.39514 5.18773,-4.92963 0.0188,0.67104 0.0845,1.35383 0.20179,2.05538 -1.39372,1.27405 -2.80152,2.62554 -4.20227,4.04272"
           style="fill:#a4bd93;fill-opacity:1;fill-rule:nonzero;stroke:none"
           id="path942" />
        <path
           d="m 269.6766,258.08838 c -0.97607,0.65932 -1.96153,1.35383 -2.94699,2.0765 -4.20696,3.07603 -8.41393,6.64714 -11.90995,10.26049 -0.11497,-0.59362 -0.30268,-1.13797 -0.58424,-1.62835 l -0.0563,-0.0962 c 3.45379,-3.49368 7.51763,-6.91228 11.5627,-9.88039 0.92915,-0.67339 1.85125,-1.32802 2.77101,-1.95214 l 1.16378,1.22009 z"
           style="fill:#a4bd93;fill-opacity:1;fill-rule:nonzero;stroke:none"
           id="path946" />
        <path
           d="m 270.66182,280.48384 c 0.0563,0.0892 0.11732,0.17597 0.17833,0.26279 0.2534,0.36837 0.52088,0.7344 0.81182,1.10512 -1.0535,1.12623 -2.11404,2.34163 -3.16519,3.62038 -3.23793,3.93948 -6.38905,8.4679 -9.11783,12.93061 -0.97138,1.58612 -1.8841,3.1605 -2.73112,4.69969 -0.21352,-0.29798 -0.44111,-0.52792 -0.68044,-0.65931 -0.21821,-0.12436 -0.39887,-0.31441 -0.542,-0.56078 0.41061,-0.74144 0.83529,-1.48991 1.2764,-2.24309 3.04084,-5.19242 6.71519,-10.60774 10.51155,-15.22297 0.95965,-1.16143 1.92633,-2.27828 2.89067,-3.32474 0.19006,-0.20413 0.37776,-0.40592 0.56781,-0.6077"
           style="fill:#a4bd93;fill-opacity:1;fill-rule:nonzero;stroke:none"
           id="path950" />
        <path
           d="m 269.73385,293.61201 c 2.41672,-2.86252 4.82874,-5.21119 7.05072,-6.69877 0.44345,0.35665 0.90333,0.7086 1.37494,1.0582 -1.4383,0.87518 -3.00095,2.21258 -4.61992,3.88082 -1.79963,1.85595 -3.67434,4.11781 -5.52794,6.62134 -3.01973,4.08495 -5.95263,8.77526 -8.40924,13.3506 -0.20648,-0.77663 -0.40826,-1.56969 -0.61708,-2.34398 2.31113,-4.14127 4.96952,-8.31069 7.69126,-11.99677 1.01126,-1.36322 2.03426,-2.66308 3.05726,-3.87144"
           style="fill:#a4bd93;fill-opacity:1;fill-rule:nonzero;stroke:none"
           id="path954" />
        <path
           d="m 276.88968,299.01044 c 0.92211,-3.37402 1.75036,-6.69173 2.4918,-9.85692 l 0.0587,-0.25341 0.19005,0.13609 c 0.42234,0.29095 0.84703,0.57954 1.28344,0.8658 -0.44345,1.8794 -0.91507,3.80809 -1.41718,5.76961 2.34164,1.71752 5.05868,6.36324 7.1563,11.70114 0.56312,1.43126 1.08635,2.91648 1.54623,4.41109 -0.47396,0.34257 -0.95965,0.65698 -1.44299,0.96434 -0.48569,-1.61192 -1.04412,-3.21916 -1.64947,-4.76069 -1.84891,-4.70674 -4.12484,-8.79873 -6.06995,-10.55848 -0.17597,0.67105 -0.35664,1.34445 -0.542,2.02488 -0.89395,3.28956 -1.87941,6.62134 -2.94464,9.91793 1.71986,1.68701 2.3604,5.88928 2.29001,10.63825 -0.0211,1.38198 -0.10089,2.81794 -0.22524,4.25389 -0.55843,0.36368 -1.14501,0.63351 -1.75271,0.85406 0.17597,-1.7222 0.2886,-3.46787 0.30971,-5.13845 0.061,-3.77055 -0.29329,-7.0953 -1.23886,-8.73538 -1.90991,5.72504 -4.07791,11.27879 -6.48524,16.192 -0.50446,-0.14078 -0.95731,-0.49272 -1.37261,-0.97841 3.24263,-6.67531 6.05118,-14.54958 8.38343,-22.41447 -2.66777,1.77382 -6.27877,6.04414 -9.32196,11.29991 -0.91272,1.57204 -1.76913,3.2309 -2.52934,4.93668 -0.32848,-0.47866 -0.67105,-0.85407 -1.04177,-1.06289 -0.0774,-0.0422 -0.15251,-0.0985 -0.22524,-0.16424 0.72032,-1.56266 1.51338,-3.08777 2.35571,-4.54015 3.70954,-6.39843 8.35527,-11.45477 11.40784,-12.69128 0.26748,-0.94088 0.53496,-1.87472 0.78602,-2.8109"
           style="fill:#a4bd93;fill-opacity:1;fill-rule:nonzero;stroke:none"
           id="path958" />
        <path
           d="m 330.32353,203.36663 c 2.95403,0.84233 8.41628,4.12484 9.0756,7.6373 0.66635,3.51245 -3.38341,6.863 -2.34164,3.19569 1.04177,-3.66027 -4.28439,-8.21684 -6.17553,-9.65044 -1.89349,-1.43126 -1.64009,-1.87002 -0.55843,-1.18255"
           style="fill:#8d1922;fill-opacity:1;fill-rule:evenodd;stroke:none"
           id="path962" />
        <path
           d="m 254.20774,246.11718 c -2.51761,-3.85032 -13.06905,-9.50262 -21.08879,-8.15349 -8.01975,1.35149 -21.35862,3.2309 -29.46284,16.91468 -8.10186,13.68847 -8.70018,18.24035 -8.70018,18.24035 0,0 -17.25489,8.64856 -22.61155,8.49839 -5.34728,-0.15251 -6.65419,6.90055 -0.18302,15.90341 6.46648,9.0052 14.26802,17.25489 14.26802,17.25489 0,0 -3.30363,10.9902 -10.3215,15.99022 -7.01551,4.99768 -8.55236,7.26658 -4.28674,10.48574 4.26563,3.21681 22.15403,13.17228 37.4075,14.07327 15.25582,0.90334 24.70683,0.85406 24.70683,0.85406 0,0 0.81652,19.55899 22.98697,19.02403 22.17279,-0.52558 58.13729,-18.99587 49.30102,-31.58392 -8.83157,-12.58804 -10.71567,-14.68801 -10.71567,-14.68801 0,0 14.23751,-0.28155 24.47454,-9.55189 10.23702,-9.268 20.00713,-22.48251 13.17463,-27.77113 -6.83486,-5.28628 -28.47269,-10.67345 -32.32536,-13.77529 -3.85032,-3.0995 -4.1483,-3.63446 -4.1483,-3.63446 0,0 -1.93338,-17.17277 -8.95124,-23.40696 -7.01552,-6.23889 -13.91841,-1.65182 -13.91841,-1.65182 0,0 -1.95215,-3.46787 -4.57065,-3.75412 -2.61381,-0.28391 -3.14877,0.0164 -3.14877,0.0164 0,0 0.45284,-4.81701 -4.35244,-2.11638 -4.80058,2.69827 -3.88082,1.83482 -7.53405,2.83201"
           style="fill:#a4474e;fill-opacity:1;fill-rule:evenodd;stroke:none"
           id="path966" />
        <path
           d="m 179.02226,284.1718 c -7.18915,-0.1314 -11.02774,5.70861 -3.89725,14.46276 7.13518,8.7518 17.8532,20.39897 25.81429,24.51442 7.95874,4.11546 19.50971,3.26375 10.74853,-3.58988 -8.76823,-6.85127 -30.07757,-21.62375 -27.28075,-27.12589 2.79447,-5.49979 -2.82967,-8.96297 -5.38482,-8.26141"
           style="fill:#983038;fill-opacity:1;fill-rule:evenodd;stroke:none"
           id="path970" />
        <path
           d="m 245.7206,241.26404 c -5.03756,-2.51292 -20.15261,-2.66074 -29.55903,2.8766 -9.40643,5.53498 -12.64905,13.74244 -16.16854,20.13618 -3.51949,6.39843 -5.0141,19.02402 -2.26421,24.34784 2.7499,5.32616 10.67344,10.68986 12.79218,10.97142 2.12342,0.27921 7.1563,1.37495 2.79917,-1.57673 -4.35713,-2.94699 -16.12866,-8.60164 -14.23752,-20.95505 1.8888,-12.35107 9.25392,-26.31406 18.39755,-31.45486 9.13426,-5.13611 30.57265,-3.17693 28.2404,-4.3454"
           style="fill:#983038;fill-opacity:1;fill-rule:evenodd;stroke:none"
           id="path974" />
        <path
           d="m 202.95738,299.67492 c -2.02723,0.68278 -3.15816,3.98641 -1.48054,6.97094 1.67997,2.98218 3.09012,-1.49227 6.69173,-0.32614 3.59927,1.16612 14.22578,3.04318 29.73031,-1.25529 15.50219,-4.29612 22.50832,-7.99159 29.44406,-13.11597 6.9334,-5.13142 4.24686,-6.75507 -0.72266,-3.03145 -6.55799,4.91555 -25.56559,9.63871 -38.19352,12.39565 -16.39848,3.5758 -23.09255,-2.43549 -25.46938,-1.63774"
           style="fill:#983038;fill-opacity:1;fill-rule:evenodd;stroke:none"
           id="path978" />
        <path
           d="m 204.27719,264.92323 c -1.43126,1.34914 -3.15581,14.4393 1.50399,21.18734 4.65981,6.74569 11.93108,15.66642 18.37409,14.47214 6.44067,-1.19193 13.07608,-1.10981 8.80577,-4.08495 -4.27501,-2.97515 -16.15916,-6.52514 -21.14745,-14.47215 -4.99299,-7.94936 -4.36652,-20.09395 -7.5364,-17.10238"
           style="fill:#983038;fill-opacity:1;fill-rule:evenodd;stroke:none"
           id="path982" />
        <path
           d="m 219.01048,265.83173 c 0.44346,3.56876 2.00142,11.88649 7.02256,9.40877 5.03052,-2.47772 9.37592,-4.92494 4.19758,-7.04602 -5.18304,-2.11404 -12.42146,-4.80762 -11.22014,-2.36275"
           style="fill:#983038;fill-opacity:1;fill-rule:evenodd;stroke:none"
           id="path986" />
        <path
           d="m 214.22843,257.94267 c -1.31864,0.73675 -0.96669,1.06054 3.65558,2.79682 4.61992,1.74333 14.55896,7.08122 19.75138,7.97752 2.85079,0.49507 4.29143,0.52323 5.2722,0.36368 -8.46086,4.11311 -21.63079,10.22295 -22.70306,11.52046 0.56781,1.93572 3.63915,-0.3144 7.06713,-2.23605 3.42799,-1.93337 19.2657,-8.93012 23.95366,-11.39141 4.68796,-2.46365 11.36561,-5.69923 12.53643,-6.70112 1.17081,-1.00892 -1.46646,0.47631 -3.55,0.77899 -2.08354,0.30502 2.87425,-3.52419 4.43221,-6.30459 1.55797,-2.78743 1.38434,-7.72176 0.89161,-9.52608 -0.49508,-1.80198 -2.03427,-1.45707 -3.672,-0.36134 -1.64009,1.09339 2.1727,0.16424 2.3299,1.98499 0.15486,1.81841 0.6992,4.63869 -1.00658,7.15865 -1.70577,2.51761 -8.76587,9.09202 -15.03291,12.44492 -0.8963,0.4763 -2.07416,1.07227 -3.44911,1.75036 -1.44299,-0.10559 -5.96201,0.0235 -8.09248,-0.98781 -2.8414,-1.35148 -19.13899,-9.36184 -22.38396,-9.26799"
           style="fill:#983038;fill-opacity:1;fill-rule:evenodd;stroke:none"
           id="path990" />
        <path
           d="m 236.1497,296.61601 c 1.32332,-4.73958 13.7659,-21.79503 17.46371,-25.08693 3.70016,-3.29424 10.09155,-5.49979 11.6941,-10.04697 1.60723,-4.54719 2.649,-11.03009 4.32897,-12.66782 1.67997,-1.63774 1.17786,6.10514 -0.82591,10.87288 -2.00141,4.76773 -10.35669,11.20136 -13.17932,12.96111 -2.82498,1.76209 -16.3187,19.41116 -17.46606,22.31122 -1.14501,2.89772 -2.78274,3.9958 -2.01549,1.65651"
           style="fill:#983038;fill-opacity:1;fill-rule:evenodd;stroke:none"
           id="path994" />
        <path
           d="m 225.06658,258.09049 c 2.1727,-2.76397 12.75464,-11.11221 19.54726,-11.51343 6.54625,-0.38714 14.80298,5.03757 15.9386,6.13096 1.13562,1.09573 1.09339,1.63773 -1.25998,0.5373 -2.35571,-1.10512 -10.58663,-4.63399 -14.44634,-4.71611 -3.8644,-0.0821 -15.78609,6.79731 -17.96113,9.40642 -1.65182,1.985 -2.59035,1.13328 -1.81841,0.15486"
           style="fill:#983038;fill-opacity:1;fill-rule:evenodd;stroke:none"
           id="path998" />
        <path
           d="m 232.5638,259.07923 c 3.2919,-1.8536 11.4055,-3.46787 15.04465,-1.00423 3.63916,2.46365 2.50354,6.92167 0.20648,2.83671 -2.29705,-4.08964 -10.84942,-1.70812 -13.74009,-1.29517 -2.88833,0.41061 -3.05257,-0.1924 -1.51104,-0.53731"
           style="fill:#983038;fill-opacity:1;fill-rule:evenodd;stroke:none"
           id="path1002" />
        <path
           d="m 237.61169,261.27328 c 2.6537,-1.14735 6.66357,-0.80009 8.1441,1.83718 1.48523,2.63492 0.10559,3.58519 -4.29143,2.23839 -4.39702,-1.3421 -7.00848,-3.51714 -3.85267,-4.07557"
           style="fill:#983038;fill-opacity:1;fill-rule:evenodd;stroke:none"
           id="path1006" />
        <path
           d="m 272.67122,254.12895 c 0.61004,2.71939 9.91558,7.28769 6.1333,13.08782 -3.77993,5.80012 -4.00049,13.57819 -0.1314,19.36893 3.86441,5.78369 -1.77851,17.53175 2.62789,12.2971 4.4064,-5.23231 12.40269,-17.69131 13.17463,-23.94427 0.77194,-6.25062 -4.4721,-18.30839 -7.68657,-22.93066 -3.21212,-4.62461 -15.45526,-0.80244 -14.11785,2.12108"
           style="fill:#983038;fill-opacity:1;fill-rule:evenodd;stroke:none"
           id="path1010" />
        <path
           d="m 289.4186,293.90976 c -3.8034,4.55422 -5.48571,10.54439 -17.77108,16.79735 -12.29241,6.25297 -30.11277,9.69034 -25.6524,13.32949 4.46271,3.63681 18.12538,4.51199 32.88143,-5.54437 14.76309,-10.05401 15.53269,-15.31448 18.58761,-21.20611 3.05491,-5.88459 -4.20697,-9.04509 -8.04556,-3.37636"
           style="fill:#983038;fill-opacity:1;fill-rule:evenodd;stroke:none"
           id="path1014" />
        <path
           d="m 197.63473,326.64267 c -4.28674,-1.565 -21.96866,6.20838 -16.86305,9.04509 5.10561,2.83436 29.65054,12.52 43.12315,13.06435 13.47965,0.54669 15.43649,-4.94841 16.72697,-10.06575 1.29986,-5.11499 -0.007,-5.48336 -5.44583,-4.61522 -5.43879,0.8611 -20.90812,-0.10089 -26.77629,-2.72643 -5.86347,-2.62789 -8.32007,-3.80809 -10.76495,-4.70204"
           style="fill:#983038;fill-opacity:1;fill-rule:evenodd;stroke:none"
           id="path1018" />
        <path
           d="m 302.82763,321.27192 c 8.29896,-2.03426 14.89683,-5.52325 17.94001,-13.38345 3.04319,-7.8555 -3.97233,-5.88693 -9.24453,-1.60489 -5.27454,4.2844 -14.22812,15.6852 -8.69548,14.98834"
           style="fill:#983038;fill-opacity:1;fill-rule:evenodd;stroke:none"
           id="path1022" />
        <path
           d="m 258.02052,342.29595 c -3.00096,5.19947 -11.60963,18.38348 -5.05634,21.06298 6.55329,2.68186 30.93163,-1.58846 39.58489,-10.40596 8.64856,-8.81515 -4.8874,-17.66784 -9.78419,-19.742 -4.89913,-2.07415 -20.68756,2.63493 -24.74436,9.08498"
           style="fill:#983038;fill-opacity:1;fill-rule:evenodd;stroke:none"
           id="path1026" />
        <path
           d="m 235.64336,319.6004 c -4.80059,-1.34679 -11.43131,-5.61242 -13.77764,-7.55517 -2.34632,-1.94276 -6.7668,-2.21494 -9.66217,-3.34587 -2.89537,-1.13562 -4.55891,0.80714 -7.62322,0.27218 -3.05961,-0.53731 -3.9301,-0.30033 -5.76023,-5.79074 -1.83718,-5.49041 0.84468,-4.73958 2.47537,-5.40828 1.63305,-0.66401 -3.10888,-5.5256 -4.77477,-7.59976 -1.6659,-2.06946 -8.22153,-3.90663 -7.90009,0.68044 0.32145,4.58472 4.85925,11.31399 9.1718,15.41302 4.3102,4.09669 9.74195,7.06479 14.08969,9.88977 4.34775,2.82263 10.83769,5.44348 14.42522,4.68092 3.58519,-0.76021 7.32524,-0.35429 7.8602,0.59832 0.53496,0.95026 -5.27689,2.21258 -10.41066,3.34351 -5.13611,1.12859 -11.3398,4.36887 -18.42805,1.57908 -7.08825,-2.78274 -17.86494,-9.01693 -12.79218,-5.34493 5.07511,3.66731 12.82972,8.08779 25.9058,7.25484 13.08078,-0.8306 14.49561,-1.87706 15.4623,-0.16189 0.96434,1.71047 1.14032,3.36932 1.35852,-0.26279 0.21587,-3.63212 0.16425,-4.60819 5.90571,-7.33697 5.74381,-2.72643 25.85183,-8.01271 32.34178,-13.41864 6.49228,-5.40594 4.99298,-8.07606 4.25389,-11.17321 -0.7391,-3.09716 0.50446,-8.97236 -2.21024,-12.4637 -2.7147,-3.49133 -3.76586,-12.32525 -3.67435,-18.0104 0.0868,-5.68985 0.88456,-12.66548 0.0704,-11.74103 -0.81652,0.9268 -1.41953,2.13282 -1.65886,5.27689 -0.23932,3.14408 -2.78743,7.09061 -1.64712,10.45993 1.14266,3.37167 2.14455,11.83957 4.85925,15.32856 2.71235,3.49133 2.72643,9.75603 3.27312,12.96111 0.54904,3.20274 -8.61336,10.11032 -19.19061,14.05215 -10.57959,3.94183 -18.28258,8.85035 -21.94285,7.82266"
           style="fill:#8d1922;fill-opacity:1;fill-rule:evenodd;stroke:none"
           id="path1030" />
        <path
           d="m 214.69136,263.15105 c 1.06758,1.90522 4.81936,8.57348 5.23466,11.10047 0.41764,2.527 -0.86815,4.2539 -0.79541,5.718 0.0727,1.46411 1.1802,2.09762 3.77524,3.14643 2.59269,1.04646 8.35997,2.82263 11.52751,-0.46457 3.16989,-3.28721 9.57536,-0.36603 11.9123,-4.69031 2.3346,-4.32663 4.28909,-8.43505 8.48197,-10.79076 4.19524,-2.35806 6.12392,-2.94464 7.71004,-4.58473 1.58142,-1.64242 2.52699,-2.55749 2.34867,-3.48664 -0.18301,-0.93149 -3.46553,1.3726 -1.98969,-0.48334 1.4735,-1.86064 3.78463,-5.68046 3.95591,-8.63918 0.17128,-2.95637 2.59035,-3.74474 1.7926,-1.69405 -0.79306,2.05069 -2.27829,7.3487 -2.70532,8.62041 -0.43172,1.27171 -0.47865,4.84751 -2.53403,6.69173 -2.05773,1.84186 -12.17979,6.84423 -15.53738,13.08546 -3.35994,6.24123 -10.3168,14.84522 -11.45712,17.0883 -1.14031,2.24779 -14.35952,-3.14173 -18.2075,-8.76353 -3.85032,-5.6218 -6.68703,-12.49654 -7.08121,-17.8837 -0.39653,-5.38952 1.99907,-6.62369 3.56876,-3.96999"
           style="fill:#8d1922;fill-opacity:1;fill-rule:evenodd;stroke:none"
           id="path1034" />
        <path
           d="m 222.41078,258.48467 c -1.49696,-0.41764 -6.59553,-1.33271 -2.75459,-3.26374 3.84328,-1.92633 17.40271,-8.75414 20.36612,-9.38765 2.96341,-0.6382 0.34256,0.6077 -2.62319,2.04834 -2.97045,1.4383 -11.52282,6.59083 -12.82268,8.35293 -1.29987,1.75974 -0.16659,2.95637 -2.16566,2.25012"
           style="fill:#8d1922;fill-opacity:1;fill-rule:evenodd;stroke:none"
           id="path1038" />
        <path
           d="m 294.93857,285.52469 c 3.41625,-0.4505 11.12863,2.80621 13.90903,6.87943 2.77805,4.06853 6.86066,7.4097 3.85736,8.60633 -2.99861,1.19662 -8.9794,-7.69126 -11.31634,-2.69828 -2.33459,4.98829 -6.13095,21.33046 -20.41774,26.41965 -14.28209,5.09387 -28.59234,5.79073 -31.8115,4.41813 -3.22386,-1.3726 -10.88696,-3.67669 -11.64483,-1.53919 -0.75551,2.14454 0.15017,5.06337 1.48992,3.08542 1.33506,-1.9803 4.36183,-2.69828 7.12814,-0.82591 2.76867,1.87237 6.73162,10.66875 3.6157,17.32059 -3.11827,6.65184 -9.28208,9.63168 -11.79734,9.08498 -2.51057,-0.55139 -1.45237,3.51011 -0.19709,5.74381 1.25529,2.2337 3.51011,5.37544 3.51245,1.45472 0.002,-3.92071 7.25015,-10.19948 9.93435,-15.8729 2.69124,-5.68046 8.26377,-14.93907 21.02309,-17.9494 12.75933,-3.01034 23.46093,-10.98551 27.76644,-20.75796 4.30786,-9.76776 12.13286,-4.12719 14.93907,-7.41674 2.80386,-3.2919 -0.0681,-9.27034 -6.95686,-13.23798 -6.88413,-3.96764 -15.99257,-4.48149 -13.03385,-2.7147"
           style="fill:#8d1922;fill-opacity:1;fill-rule:evenodd;stroke:none"
           id="path1042" />
        <path
           d="m 184.64734,277.85337 c -4.64103,-2.66308 -17.49421,-0.72267 -20.70634,-1.25059 -3.48429,-0.57251 -8.85738,5.61007 -13.67439,5.47633 -4.81936,-0.13609 -6.02068,5.59833 -13.79875,8.07371 -7.77808,2.47772 -6.32335,9.56363 -13.14178,11.49935 -6.81608,1.93572 -5.23466,6.42424 -7.51998,10.23702 -2.28298,3.81513 6.29285,5.00003 7.64199,7.40267 1.35148,2.40264 14.73963,3.72596 16.2272,6.36793 1.48757,2.64431 12.78983,-0.8658 15.16196,2.22666 2.37214,3.09246 12.67017,-3.33413 17.36752,-0.60066 2.25013,1.30691 4.57299,1.33976 6.9944,0.67809 4.89913,-5.44348 7.23138,-13.1887 7.23138,-13.1887 0,0 -7.80154,-8.24969 -14.26801,-17.25489 -6.47118,-9.00286 -5.16427,-16.05358 0.18301,-15.90341 2.49649,0.0704 7.58333,-1.77617 12.30179,-3.76351"
           style="fill:#748a6a;fill-opacity:1;fill-rule:evenodd;stroke:none"
           id="path1046" />
        <path
           d="m 131.13794,307.31878 c -1.58377,-0.90803 -4.80293,-1.2459 -8.44912,-1.18489 -1.61193,0.0235 -3.29659,0.13374 -4.96483,0.30737 0.21117,-0.58893 0.47161,-1.15909 0.82356,-1.69405 1.38902,-0.1267 2.77805,-0.20413 4.11546,-0.22525 4.58941,-0.0751 8.65091,0.54435 10.2863,2.2032 3.18865,-1.03707 6.41485,-1.99203 9.58709,-2.86017 0.65697,-0.18067 1.3069,-0.3543 1.95684,-0.53027 -1.70344,-1.87472 -5.65935,-4.07088 -10.21122,-5.85174 -1.49696,-0.58658 -3.05023,-1.12624 -4.61053,-1.59316 0.29798,-0.46692 0.603,-0.93618 0.92914,-1.39841 1.44769,0.4458 2.88598,0.95026 4.27032,1.49227 5.16426,2.02722 9.65748,4.64572 11.32337,6.90758 4.08496,-1.0535 8.03617,-1.96856 11.66125,-2.73816 -1.64712,-2.44722 -4.96483,-5.38482 -9.13425,-7.8907 -2.53638,-1.52746 -5.38952,-2.88598 -8.35997,-3.87144 0.59832,-0.36368 1.14032,-0.74378 1.64713,-1.13093 2.67481,0.97842 5.23465,2.23605 7.54344,3.62742 4.64807,2.79448 8.32242,6.16381 9.98362,8.91605 3.41625,-0.69686 6.48525,-1.25998 9.04509,-1.67763 0.98311,-0.15955 1.89114,-0.30033 2.71001,-0.41999 -0.46927,-0.59831 -1.07227,-1.32333 -1.78086,-2.12812 -2.49415,-2.82967 -6.28112,-6.70111 -10.20653,-9.99535 -1.92868,-1.62131 -3.88082,-3.09715 -5.71565,-4.22808 0.57016,-0.23698 1.13797,-0.5162 1.6964,-0.81887 1.6565,1.08635 3.37401,2.39794 5.05164,3.81043 3.42094,2.87425 6.75273,6.18727 9.24687,8.91135 0.14078,0.2886 0.29095,0.57955 0.4505,0.87518 0.58423,1.0887 1.29282,2.22432 2.12812,3.3881 0.37072,0.51385 0.74144,1.02769 1.1192,1.5345 -1.2154,0.14782 -2.74521,0.36837 -4.54015,0.66401 -0.25105,1.97091 -1.36556,4.16708 -3.08307,6.45475 -2.09996,2.79682 -5.10092,5.73677 -8.5641,8.5899 -5.10091,4.20462 -11.22483,8.26846 -16.87478,11.42427 -0.23698,-0.14078 -0.42234,-0.31441 -0.542,-0.52793 -0.12671,-0.22759 -0.35195,-0.4458 -0.63821,-0.65462 5.67342,-3.13704 11.87946,-7.23138 17.03434,-11.48058 5.78135,-4.76774 10.21356,-9.68329 10.99489,-13.52188 -3.09246,0.5373 -6.78792,1.25293 -10.83534,2.14454 -0.83998,3.74943 -5.61007,8.56879 -11.77622,13.14178 -3.55703,2.63727 -7.59036,5.21119 -11.5932,7.45193 -0.74613,-0.20178 -1.50869,-0.39653 -2.26186,-0.59127 4.41344,-2.38387 8.95359,-5.22527 12.89776,-8.15114 5.47633,-4.0615 9.7795,-8.23561 10.94562,-11.45008 -3.63915,0.82356 -7.51763,1.78086 -11.47589,2.86487 -0.90333,0.24871 -1.80667,0.50446 -2.71939,0.76724 -1.19193,2.95168 -6.0723,7.45429 -12.25721,11.04417 -1.40311,0.81652 -2.8766,1.58611 -4.38764,2.28532 -0.0633,-0.0704 -0.11731,-0.14313 -0.15485,-0.21821 -0.20413,-0.35899 -0.57016,-0.68982 -1.03004,-1.00892 1.64477,-0.73909 3.24966,-1.56735 4.76539,-2.44956 5.0798,-2.95168 9.20464,-6.44302 10.91746,-9.02633 -7.59975,2.26421 -15.21359,4.9883 -21.66364,8.13237 -0.46692,-0.40122 -0.80479,-0.83763 -0.94792,-1.32567 4.74662,-2.3346 10.11737,-4.43456 15.64766,-6.2952"
           style="fill:#a4bd93;fill-opacity:1;fill-rule:nonzero;stroke:none"
           id="path1050" />
        <path
           d="m 163.315,318.07552 c 5.52795,-5.46929 9.97659,-11.07466 12.75464,-15.38252 0.34491,0.44346 0.69217,0.87987 1.03473,1.3069 -2.8766,4.3806 -7.27127,9.88977 -12.66313,15.21828 -1.67528,1.65651 -3.4491,3.29659 -5.29801,4.8874 -1.44533,1.23652 -2.93525,2.44018 -4.4674,3.59458 -0.37776,-0.38949 -0.91742,-0.65932 -1.5697,-0.83999 2.51996,-1.8536 4.9226,-3.85032 7.18211,-5.91274 1.03942,-0.94792 2.05069,-1.90522 3.02676,-2.87191"
           style="fill:#a4bd93;fill-opacity:1;fill-rule:nonzero;stroke:none"
           id="path1054" />
        <path
           d="m 172.57666,281.61923 c -0.42703,-0.35195 -0.85641,-0.69921 -1.29986,-1.03943 -1.86533,-1.45003 -3.8034,-2.78978 -5.70627,-3.88317 0.82356,0.002 1.83013,-0.0305 2.94933,-0.0774 1.26702,0.82591 2.52465,1.73394 3.74709,2.68655 0.82825,0.64289 1.64243,1.30925 2.43079,1.98499 l 0.0352,0.0305 -0.0516,0.0117 c -0.8001,0.17363 -1.51338,0.27687 -2.10466,0.28626"
           style="fill:#a4bd93;fill-opacity:1;fill-rule:nonzero;stroke:none"
           id="path1058" />
        <path
           d="m 183.25198,311.28056 c 0.40122,0.44815 0.77429,0.86814 1.10981,1.23886 -0.79305,1.19897 -1.63539,2.41202 -2.5223,3.62507 -2.86017,3.92072 -6.1638,7.85081 -9.53782,11.19668 l -0.0962,-0.054 c -0.47161,-0.27217 -1.00188,-0.45284 -1.56969,-0.56077 3.48664,-3.39044 6.93809,-7.46367 9.90385,-11.52985 0.96199,-1.31629 1.87237,-2.63024 2.71235,-3.91602"
           style="fill:#a4bd93;fill-opacity:1;fill-rule:nonzero;stroke:none"
           id="path1062" />
        <path
           d="m 234.62364,255.80493 c 3.2919,-1.8489 10.894,-3.77524 14.53081,-1.30925 3.63915,2.46365 3.05492,8.89962 0.76021,4.81467 -2.29471,-4.08496 -10.88461,-3.38106 -13.77529,-2.96811 -2.89067,0.41296 -3.05492,-0.19005 -1.51573,-0.53731"
           style="fill:#8d1922;fill-opacity:1;fill-rule:evenodd;stroke:none"
           id="path1094" />
        <circle
           style="fill:none;fill-opacity:1;stroke:none;stroke-opacity:1"
           id="path4756"
           cx="392.30466"
           cy="532.1756"
           r="156.52223" />
        <text
           xml:space="preserve"
           style="font-style:normal;font-weight:normal;font-size:40px;line-height:125%;font-family:sans-serif;letter-spacing:0px;word-spacing:0px;fill:#748a6a;fill-opacity:1;stroke:none;stroke-width:1px;stroke-linecap:butt;stroke-linejoin:miter;stroke-opacity:1;"
           id="text4758"><textPath
             xlink:href="#path4756"
             id="textPath4762"
             style="font-style:normal;font-variant:normal;font-weight:normal;font-stretch:normal;font-size:40px;line-height:125%;font-family:'Marker Felt';-inkscape-font-specification:'Marker Felt';text-align:start;writing-mode:lr-tb;text-anchor:start;stroke:none;stroke-opacity:1;fill:#748a6a;fill-opacity:1">                                                        Confecciones Colombia</textPath></text>
        <g
           transform="matrix(1.744273,0,0,1.744273,-267.58445,-509.99898)"
           id="g4868">
          <g
             id="g1646"
             transform="matrix(1.25,0,0,-1.25,397.97416,591.12964)">
            <path
               id="path1648"
               style="fill:#3e383c;fill-opacity:1;fill-rule:evenodd;stroke:none"
               d="m 0,0 c -2.209,-4.6 -4.728,-9.054 -7.122,-13.563 -0.514,-0.963 -1.227,-1.391 -2.436,-1.386 -13.382,0.053 -26.769,0.03 -40.154,0.031 -0.135,0 -0.613,0.002 -1.179,0.004 0.145,0.965 0.25,3.948 0.25,4.149 l 0,5.583 1.056,0 0,-0.611 c 0,-0.133 0.105,-0.24 0.238,-0.24 0.132,0 0.24,0.107 0.24,0.24 l 0,0.613 c 0.128,0.004 0.228,0.07 0.228,0.155 0,0.082 -0.1,0.148 -0.228,0.153 l 0,0.661 c 0,0.131 -0.108,0.239 -0.24,0.239 -0.133,0 -0.238,-0.108 -0.238,-0.239 l 0,-0.66 -1.056,0 0,3.665 0,0.002 c 0.049,0.005 0.096,0.007 0.136,0.014 0.934,0.122 1.855,0.415 2.649,0.851 1.944,1.07 2.627,3.056 3.141,5.029 0.657,2.537 1.135,5.12 1.698,7.681 0.559,2.532 2.332,3.898 4.624,4.72 3.067,1.101 6.288,1.49 9.49,1.382 6.401,-0.214 12.795,-0.701 19.19,-1.077 1.608,-0.098 3.212,-0.23 4.816,-0.29 C -0.114,16.933 2.575,14.139 2.431,9.375 2.329,6.076 1.401,2.921 0,0 m 19.367,19.193 2.22,0 0,-2.997 c -0.002,-2.957 1.517,-3.887 4.354,-2.39 l 0,-8.952 -2.913,0 c 0,0.966 0.014,1.86 -0.005,2.752 -0.026,1.474 -0.499,1.94 -1.996,1.987 -0.936,0.026 -1.876,0.033 -2.813,0.052 -0.036,0.001 -0.072,0.037 -0.246,0.131 0.451,3.046 0.913,6.15 1.399,9.417 m 15.427,-38.839 c 0,0.457 -0.159,0.925 -0.296,1.375 -0.642,2.099 -2.005,3.245 -4.182,3.301 -3.137,0.08 -6.279,0.127 -9.416,0.02 -1.595,-0.054 -2.65,0.621 -3.399,1.84 -0.548,0.887 -1.07,2.111 -1.248,2.874 -0.453,1.938 -0.642,5.954 -0.525,7.94 0.126,2.153 0.742,5.722 1.137,8.553 l 3.555,0 C 20.12,5.611 20.025,4.98 19.66,4.706 19.038,4.236 18.53,3.771 18.763,2.982 19.008,2.146 19.652,1.776 20.56,1.788 c 2.08,0.029 4.16,0.008 6.242,0.006 l 5.645,0 0,-1.89 c 0,-0.606 0.529,-1.096 1.184,-1.096 0.655,0 1.187,0.49 1.187,1.096 l 0,0.875 c 0.057,1.88 0.038,3.765 0.012,5.649 0,0.049 -0.008,0.094 -0.012,0.141 l 0,0.488 c 0,0.605 -0.532,1.097 -1.187,1.097 -0.655,0 -1.184,-0.492 -1.184,-1.097 l 0,-2.203 C 32.328,4.69 31.013,4.617 30.858,4.652 l 0,2.263 c 0.003,0.026 0.01,0.054 0.01,0.08 0.012,10.52 0.004,21.041 0,31.561 0,0.431 0.021,0.867 -0.03,1.294 -0.167,1.419 -1.121,2.217 -2.567,2.183 -1.365,-0.033 -2.388,-0.969 -2.419,-2.354 -0.049,-2.197 -0.014,-4.395 -0.025,-6.595 0,-0.326 -0.053,-0.65 -0.083,-0.977 -0.035,0.12 -0.07,0.238 -0.102,0.356 -0.958,0.026 -2.009,0.309 -2.849,0.01 -1.027,-0.37 -1.234,-1.512 -1.206,-2.594 C 21.608,29 21.59,28.118 21.59,27.212 l -3.483,0 c -1.841,4.23 -5.377,5.511 -9.496,5.898 -0.005,0.103 -0.038,0.203 -0.094,0.295 0.344,0.058 0.674,0.086 0.999,0.155 0.017,0.005 0.04,0.013 0.058,0.018 l 0.088,0 c 0.534,0 0.968,0.435 0.968,0.968 0,0.535 -0.434,0.967 -0.968,0.967 l -0.349,0 0,4.097 c 0.025,0.026 0.055,0.052 0.083,0.078 l 0.266,0 c 0.534,0 0.968,0.434 0.968,0.969 0,0.534 -0.434,0.968 -0.968,0.968 l -1.465,0 c -0.484,0.74 -0.792,1.214 -1.1,1.687 C 6.79,42.841 6.482,42.373 6.012,41.654 5.759,41.654 5.17,41.714 4.596,41.642 4.421,41.62 4.278,41.551 4.157,41.46 4.156,41.46 4.154,41.458 4.152,41.458 4.121,41.434 4.094,41.412 4.062,41.386 3.86,41.206 3.729,40.949 3.729,40.657 c 0,-0.535 0.431,-0.969 0.966,-0.969 l 0.009,0 C 4.726,39.671 4.753,39.657 4.771,39.638 4.924,39.465 4.883,39.163 4.883,39.1 l 0,-3.006 c 0,-0.278 0.007,-0.457 -0.139,-0.581 l -0.049,0 c -0.535,0 -0.966,-0.432 -0.966,-0.967 0,-0.533 0.431,-0.968 0.966,-0.968 l 0.023,0 C 4.749,33.569 4.776,33.555 4.809,33.547 5.129,33.474 5.462,33.451 5.794,33.438 5.718,33.332 5.673,33.213 5.67,33.091 -1.812,31.876 -9.295,30.665 -16.807,29.445 c 0,0 -0.192,-0.029 -0.528,-0.081 l 0,8.512 c 0,0.239 -0.192,0.433 -0.431,0.433 -0.239,0 -0.431,-0.194 -0.431,-0.433 l 0,-8.644 c -3.006,-0.45 -10.123,-1.443 -13.642,-1.308 -1.961,0.074 -3.84,0.367 -5.467,1.717 -1.773,1.474 -3.669,2.804 -5.578,4.102 -2.278,1.552 -4.363,2.92 -7.661,2.434 l 0,5.079 c 0,0.237 -0.193,0.431 -0.432,0.431 -0.237,0 -0.432,-0.194 -0.432,-0.431 l 0,-5.213 c -0.283,-0.046 -0.577,-0.098 -0.834,-0.151 -2.788,-0.596 -1.507,-2.617 -1.939,-4.11 -1.292,0.533 -1.641,1.172 -1.143,2.094 -0.358,-0.063 -0.718,-0.122 -1.074,-0.196 -0.282,-0.059 -0.735,-0.071 -0.794,-0.227 -0.101,-0.258 0.008,-0.63 0.109,-0.928 0.068,-0.201 0.172,-0.465 0.272,-0.595 0.135,-0.171 0.544,-0.483 0.651,-0.582 0,0 2.15,-1.704 2.106,-3.378 -0.122,-4.661 -0.039,-9.327 -0.039,-13.993 l 0,-0.804 -2.041,2.011 c -0.083,0.081 -0.204,0.105 -0.312,0.06 -0.108,-0.044 -0.177,-0.149 -0.177,-0.264 l 0,-1.417 c -0.003,0 -0.006,0.002 -0.008,0.002 -0.501,0 -0.91,-0.409 -0.91,-0.911 l 0,-3.843 c 0,-0.501 0.409,-0.91 0.91,-0.91 l 0.008,0 0,-1.7 c 0,-0.118 0.072,-0.223 0.181,-0.267 0.034,-0.014 0.071,-0.021 0.106,-0.021 0.076,0 0.153,0.029 0.209,0.089 l 2.016,2.108 c 0.007,-1.532 0.018,-4.771 0.008,-6.441 -10e-4,-0.268 -0.23,-0.617 -0.38,-0.77 -0.055,-0.055 -0.176,-0.134 -0.215,-0.231 -0.042,-0.094 10e-4,-0.33 0.072,-0.401 0.041,-0.043 0.145,-0.117 0.289,-0.228 0.236,-0.183 1.114,-0.945 2.112,-1.163 0.224,-0.048 0.572,-0.08 0.915,-0.09 l 0,-7.295 c -0.021,0.003 -0.039,0.009 -0.062,0.009 l -1.113,0 0,0.61 c 0,0.133 -0.106,0.24 -0.24,0.24 -0.132,0 -0.24,-0.107 -0.24,-0.24 l 0,-0.612 c -0.127,-0.005 -0.226,-0.073 -0.226,-0.156 0,-0.083 0.099,-0.149 0.226,-0.154 l 0,-0.659 c 0,-0.133 0.108,-0.24 0.24,-0.24 0.134,0 0.24,0.107 0.24,0.24 l 0,0.659 1.113,0 c 0.023,0 0.041,0.003 0.062,0.006 l 0,-1.959 c 0,-0.201 0.106,-3.184 0.248,-4.149 -1.022,10e-4 -2.23,0.003 -2.23,0.003 -4.437,0 -3.809,0.016 -8.244,-0.003 -2.674,-0.012 -4.611,-1.88 -4.682,-4.559 -0.071,-2.782 -0.044,-5.569 -0.086,-8.355 -0.044,-2.84 1.796,-5.385 5.429,-5.346 13.307,0.137 21.547,0.042 34.855,0.058 11.774,0.012 23.548,0.066 35.323,0.074 6.827,0.003 13.654,-0.06 20.48,-0.071 2.822,-0.003 4.617,1.361 4.871,4.192 0.276,3.071 0.133,6.182 0.141,9.275" />
          </g>
          <g
             id="g1650"
             transform="matrix(1.25,0,0,-1.25,397.97416,591.12964)">
            <path
               id="path1652"
               style="fill:none;stroke:#3e383c;stroke-width:0.5;stroke-linecap:round;stroke-linejoin:round;stroke-miterlimit:10;stroke-dasharray:none;stroke-opacity:1"
               d="m 0,0 c -2.209,-4.6 -4.728,-9.054 -7.122,-13.563 -0.514,-0.963 -1.227,-1.391 -2.436,-1.386 -13.382,0.053 -26.769,0.03 -40.154,0.031 -0.135,0 -0.613,0.002 -1.179,0.004 0.145,0.965 0.25,3.948 0.25,4.149 l 0,5.583 1.056,0 0,-0.611 c 0,-0.133 0.105,-0.24 0.238,-0.24 0.132,0 0.24,0.107 0.24,0.24 l 0,0.613 c 0.128,0.004 0.228,0.07 0.228,0.155 0,0.082 -0.1,0.148 -0.228,0.153 l 0,0.661 c 0,0.131 -0.108,0.239 -0.24,0.239 -0.133,0 -0.238,-0.108 -0.238,-0.239 l 0,-0.66 -1.056,0 0,3.665 0,0.002 c 0.049,0.005 0.096,0.007 0.136,0.014 0.934,0.122 1.855,0.415 2.649,0.851 1.944,1.07 2.627,3.056 3.141,5.029 0.657,2.537 1.135,5.12 1.698,7.681 0.559,2.532 2.332,3.898 4.624,4.72 3.067,1.101 6.288,1.49 9.49,1.382 6.401,-0.214 12.795,-0.701 19.19,-1.077 1.608,-0.098 3.212,-0.23 4.816,-0.29 C -0.114,16.933 2.575,14.139 2.431,9.375 2.329,6.076 1.401,2.921 0,0 Z m 19.367,19.193 2.22,0 0,-2.997 c -0.002,-2.957 1.517,-3.887 4.354,-2.39 l 0,-8.952 -2.913,0 c 0,0.966 0.014,1.86 -0.005,2.752 -0.026,1.474 -0.499,1.94 -1.996,1.987 -0.936,0.026 -1.876,0.033 -2.813,0.052 -0.036,0.001 -0.072,0.037 -0.246,0.131 0.451,3.046 0.913,6.15 1.399,9.417 z m 15.427,-38.839 c 0,0.457 -0.159,0.925 -0.296,1.375 -0.642,2.099 -2.005,3.245 -4.182,3.301 -3.137,0.08 -6.279,0.127 -9.416,0.02 -1.595,-0.054 -2.65,0.621 -3.399,1.84 -0.548,0.887 -1.07,2.111 -1.248,2.874 -0.453,1.938 -0.642,5.954 -0.525,7.94 0.126,2.153 0.742,5.722 1.137,8.553 l 3.555,0 C 20.12,5.611 20.025,4.98 19.66,4.706 19.038,4.236 18.53,3.771 18.763,2.982 19.008,2.146 19.652,1.776 20.56,1.788 c 2.08,0.029 4.16,0.008 6.242,0.006 l 5.645,0 0,-1.89 c 0,-0.606 0.529,-1.096 1.184,-1.096 0.655,0 1.187,0.49 1.187,1.096 l 0,0.875 c 0.057,1.88 0.038,3.765 0.012,5.649 0,0.049 -0.008,0.094 -0.012,0.141 l 0,0.488 c 0,0.605 -0.532,1.097 -1.187,1.097 -0.655,0 -1.184,-0.492 -1.184,-1.097 l 0,-2.203 C 32.328,4.69 31.013,4.617 30.858,4.652 l 0,2.263 c 0.003,0.026 0.01,0.054 0.01,0.08 0.012,10.52 0.004,21.041 0,31.561 0,0.431 0.021,0.867 -0.03,1.294 -0.167,1.419 -1.121,2.217 -2.567,2.183 -1.365,-0.033 -2.388,-0.969 -2.419,-2.354 -0.049,-2.197 -0.014,-4.395 -0.025,-6.595 0,-0.326 -0.053,-0.65 -0.083,-0.977 -0.035,0.12 -0.07,0.238 -0.102,0.356 -0.958,0.026 -2.009,0.309 -2.849,0.01 -1.027,-0.37 -1.234,-1.512 -1.206,-2.594 C 21.608,29 21.59,28.118 21.59,27.212 l -3.483,0 c -1.841,4.23 -5.377,5.511 -9.496,5.898 -0.005,0.103 -0.038,0.203 -0.094,0.295 0.344,0.058 0.674,0.086 0.999,0.155 0.017,0.005 0.04,0.013 0.058,0.018 l 0.088,0 c 0.534,0 0.968,0.435 0.968,0.968 0,0.535 -0.434,0.967 -0.968,0.967 l -0.349,0 0,4.097 c 0.025,0.026 0.055,0.052 0.083,0.078 l 0.266,0 c 0.534,0 0.968,0.434 0.968,0.969 0,0.534 -0.434,0.968 -0.968,0.968 l -1.465,0 c -0.484,0.74 -0.792,1.214 -1.1,1.687 C 6.79,42.841 6.482,42.373 6.012,41.654 5.759,41.654 5.17,41.714 4.596,41.642 4.421,41.62 4.278,41.551 4.157,41.46 4.156,41.46 4.154,41.458 4.152,41.458 4.121,41.434 4.094,41.412 4.062,41.386 3.86,41.206 3.729,40.949 3.729,40.657 c 0,-0.535 0.431,-0.969 0.966,-0.969 l 0.009,0 C 4.726,39.671 4.753,39.657 4.771,39.638 4.924,39.465 4.883,39.163 4.883,39.1 l 0,-3.006 c 0,-0.278 0.007,-0.457 -0.139,-0.581 l -0.049,0 c -0.535,0 -0.966,-0.432 -0.966,-0.967 0,-0.533 0.431,-0.968 0.966,-0.968 l 0.023,0 C 4.749,33.569 4.776,33.555 4.809,33.547 5.129,33.474 5.462,33.451 5.794,33.438 5.718,33.332 5.673,33.213 5.67,33.091 -1.812,31.876 -9.295,30.665 -16.807,29.445 c 0,0 -0.192,-0.029 -0.528,-0.081 l 0,8.512 c 0,0.239 -0.192,0.433 -0.431,0.433 -0.239,0 -0.431,-0.194 -0.431,-0.433 l 0,-8.644 c -3.006,-0.45 -10.123,-1.443 -13.642,-1.308 -1.961,0.074 -3.84,0.367 -5.467,1.717 -1.773,1.474 -3.669,2.804 -5.578,4.102 -2.278,1.552 -4.363,2.92 -7.661,2.434 l 0,5.079 c 0,0.237 -0.193,0.431 -0.432,0.431 -0.237,0 -0.432,-0.194 -0.432,-0.431 l 0,-5.213 c -0.283,-0.046 -0.577,-0.098 -0.834,-0.151 -2.788,-0.596 -1.507,-2.617 -1.939,-4.11 -1.292,0.533 -1.641,1.172 -1.143,2.094 -0.358,-0.063 -0.718,-0.122 -1.074,-0.196 -0.282,-0.059 -0.735,-0.071 -0.794,-0.227 -0.101,-0.258 0.008,-0.63 0.109,-0.928 0.068,-0.201 0.172,-0.465 0.272,-0.595 0.135,-0.171 0.544,-0.483 0.651,-0.582 0,0 2.15,-1.704 2.106,-3.378 -0.122,-4.661 -0.039,-9.327 -0.039,-13.993 l 0,-0.804 -2.041,2.011 c -0.083,0.081 -0.204,0.105 -0.312,0.06 -0.108,-0.044 -0.177,-0.149 -0.177,-0.264 l 0,-1.417 c -0.003,0 -0.006,0.002 -0.008,0.002 -0.501,0 -0.91,-0.409 -0.91,-0.911 l 0,-3.843 c 0,-0.501 0.409,-0.91 0.91,-0.91 l 0.008,0 0,-1.7 c 0,-0.118 0.072,-0.223 0.181,-0.267 0.034,-0.014 0.071,-0.021 0.106,-0.021 0.076,0 0.153,0.029 0.209,0.089 l 2.016,2.108 c 0.007,-1.532 0.018,-4.771 0.008,-6.441 -10e-4,-0.268 -0.23,-0.617 -0.38,-0.77 -0.055,-0.055 -0.176,-0.134 -0.215,-0.231 -0.042,-0.094 10e-4,-0.33 0.072,-0.401 0.041,-0.043 0.145,-0.117 0.289,-0.228 0.236,-0.183 1.114,-0.945 2.112,-1.163 0.224,-0.048 0.572,-0.08 0.915,-0.09 l 0,-7.295 c -0.021,0.003 -0.039,0.009 -0.062,0.009 l -1.113,0 0,0.61 c 0,0.133 -0.106,0.24 -0.24,0.24 -0.132,0 -0.24,-0.107 -0.24,-0.24 l 0,-0.612 c -0.127,-0.005 -0.226,-0.073 -0.226,-0.156 0,-0.083 0.099,-0.149 0.226,-0.154 l 0,-0.659 c 0,-0.133 0.108,-0.24 0.24,-0.24 0.134,0 0.24,0.107 0.24,0.24 l 0,0.659 1.113,0 c 0.023,0 0.041,0.003 0.062,0.006 l 0,-1.959 c 0,-0.201 0.106,-3.184 0.248,-4.149 -1.022,10e-4 -2.23,0.003 -2.23,0.003 -4.437,0 -3.809,0.016 -8.244,-0.003 -2.674,-0.012 -4.611,-1.88 -4.682,-4.559 -0.071,-2.782 -0.044,-5.569 -0.086,-8.355 -0.044,-2.84 1.796,-5.385 5.429,-5.346 13.307,0.137 21.547,0.042 34.855,0.058 11.774,0.012 23.548,0.066 35.323,0.074 6.827,0.003 13.654,-0.06 20.48,-0.071 2.822,-0.003 4.617,1.361 4.871,4.192 0.276,3.071 0.133,6.182 0.141,9.275 z" />
          </g>
          <g
             id="g1654"
             transform="matrix(1.25,0,0,-1.25,337.68116,548.33364)">
            <path
               id="path1656"
               style="fill:#ffffff;fill-opacity:1;fill-rule:nonzero;stroke:none"
               d="m 0,0 c 5.011,-0.854 7.571,-5.669 12.203,-7.312 4.279,-1.517 8.897,-1.045 13.323,-0.398 11.73,1.712 24.896,6.931 36.453,2.555 0.193,-0.073 0.296,0.219 0.135,0.322 -8.7,5.543 -21.939,0.142 -31.059,-1.28 -6.6,-1.029 -13.848,-2.975 -20.162,0.082 C 6.99,-4.142 4.561,-0.439 0.013,0.092 -0.04,0.099 -0.052,0.009 0,0" />
          </g>
          <g
             id="g1658"
             transform="matrix(1.25,0,0,-1.25,332.33941,557.86063)">
            <path
               id="path1660"
               style="fill:#ffffff;fill-opacity:1;fill-rule:nonzero;stroke:none"
               d="m 0,0 c -0.721,-7.516 -0.491,-15.469 -0.059,-23.003 0.01,-0.166 0.248,-0.166 0.258,0 C 0.632,-15.469 0.862,-7.516 0.141,0 0.132,0.09 0.009,0.09 0,0" />
          </g>
          <g
             id="g1662"
             transform="matrix(1.25,0,0,-1.25,399.13991,570.40214)">
            <path
               id="path1664"
               style="fill:#ffffff;fill-opacity:1;fill-rule:nonzero;stroke:none"
               d="m 0,0 c 6.228,-8.185 -0.866,-14.901 -1.981,-23.227 -0.024,-0.177 0.25,-0.234 0.327,-0.088 3.011,5.676 8.755,18.599 1.83,23.491 C 0.074,0.249 -0.078,0.103 0,0" />
          </g>
          <g
             id="g1666"
             transform="matrix(1.25,0,0,-1.25,421.27979,558.25676)">
            <path
               id="path1668"
               style="fill:#ffffff;fill-opacity:1;fill-rule:nonzero;stroke:none"
               d="m 0,0 c 0.546,-0.206 1.107,-0.211 1.685,-0.273 0.51,-0.055 1.14,-0.22 1.542,0.177 C 3.279,-0.044 3.3,0.054 3.254,0.117 2.945,0.543 2.41,0.526 1.917,0.504 1.269,0.476 0.611,0.479 0,0.249 -0.123,0.203 -0.123,0.046 0,0" />
          </g>
          <g
             id="g1670"
             transform="matrix(1.25,0,0,-1.25,426.14554,555.23363)">
            <path
               id="path1672"
               style="fill:#ffffff;fill-opacity:1;fill-rule:nonzero;stroke:none"
               d="m 0,0 c 0.08,0.487 0.109,0.986 0.206,1.469 0.05,0.248 0.143,0.487 0.31,0.679 0.178,0.207 0.442,0.24 0.63,0.425 C 1.241,2.668 1.183,2.803 1.073,2.848 0.489,3.082 0.018,2.384 -0.116,1.912 -0.296,1.279 -0.156,0.629 -0.045,0 -0.041,-0.022 -0.003,-0.022 0,0" />
          </g>
          <g
             id="g1674"
             transform="matrix(1.25,0,0,-1.25,431.75404,550.50651)">
            <path
               id="path1676"
               style="fill:#ffffff;fill-opacity:1;fill-rule:nonzero;stroke:none"
               d="M 0,0 C 0.528,0.977 0.462,2.244 0.446,3.334 0.428,4.6 0.517,6.002 0.103,7.208 0.033,7.409 -0.235,7.409 -0.305,7.208 -0.723,5.991 -0.604,4.609 -0.648,3.334 -0.686,2.254 -0.725,0.967 -0.202,0 -0.161,-0.076 -0.041,-0.076 0,0" />
          </g>
          <g
             id="g1678"
             transform="matrix(1.25,0,0,-1.25,431.31467,574.32126)">
            <path
               id="path1680"
               style="fill:#ffffff;fill-opacity:1;fill-rule:nonzero;stroke:none"
               d="m 0,0 c -0.458,-0.394 -0.399,-1.016 -0.399,-1.575 0,-0.853 0.264,-1.594 0.4,-2.428 0.01,-0.057 0.104,-0.057 0.114,0 0.117,0.717 0.4,1.396 0.4,2.129 C 0.515,-1.247 0.64,-0.451 0.116,0 0.08,0.031 0.036,0.031 0,0" />
          </g>
          <g
             id="g1682"
             transform="matrix(1.25,0,0,-1.25,422.59029,579.99438)">
            <path
               id="path1684"
               style="fill:#ffffff;fill-opacity:1;fill-rule:nonzero;stroke:none"
               d="m 0,0 c 0.56,-0.246 1.201,-0.107 1.754,-0.433 0.638,-0.375 0.601,-1.173 0.7,-1.818 0.013,-0.086 0.135,-0.07 0.158,0 0.234,0.71 0.163,1.579 -0.441,2.092 C 1.68,0.259 0.574,0.387 0,0.142 -0.054,0.119 -0.053,0.023 0,0" />
          </g>
          <g
             id="g1686"
             transform="matrix(1.25,0,0,-1.25,439.57141,584.49638)">
            <path
               id="path1688"
               style="fill:#ffffff;fill-opacity:1;fill-rule:nonzero;stroke:none"
               d="M 0,0 C 0.495,0.43 -0.157,1.548 0.565,1.745 1.101,1.891 1.007,2.765 0.432,2.73 -0.236,2.689 -0.564,2.188 -0.615,1.565 -0.649,1.152 -0.593,0.28 -0.249,0 -0.17,-0.063 -0.078,-0.067 0,0" />
          </g>
          <g
             id="g1690"
             transform="matrix(1.25,0,0,-1.25,403.00354,540.41676)">
            <path
               id="path1692"
               style="fill:#ffffff;fill-opacity:1;fill-rule:nonzero;stroke:none"
               d="M 0,0 C 0.639,-0.144 1.474,-0.154 2.082,0.122 2.767,0.433 3.145,1.085 3.472,1.73 3.624,2.029 3.216,2.261 3.026,1.991 2.701,1.526 2.345,1.017 1.777,0.845 1.203,0.671 0.58,0.775 0,0.648 -0.322,0.577 -0.32,0.072 0,0" />
          </g>
          <g
             id="g1694"
             transform="matrix(1.25,0,0,-1.25,404.72716,542.01101)">
            <path
               id="path1696"
               style="fill:#ffffff;fill-opacity:1;fill-rule:nonzero;stroke:none"
               d="m 0,0 c -0.242,-0.408 -0.152,-0.959 -0.162,-1.421 -0.015,-0.623 -0.012,-1.243 -0.008,-1.865 0.003,-0.408 0.635,-0.408 0.633,0 C 0.459,-2.658 0.406,-2.045 0.339,-1.421 0.29,-0.959 0.348,-0.403 0.102,0 0.079,0.037 0.023,0.038 0,0" />
          </g>
          <g
             id="g1698"
             transform="matrix(1.25,0,0,-1.25,407.71604,570.35213)">
            <path
               id="path1700"
               style="fill:#ffffff;fill-opacity:1;fill-rule:nonzero;stroke:none"
               d="m 0,0 c -1.122,0.717 -1.375,2.674 -0.776,3.78 0.482,0.889 1.69,1.033 2.53,0.677 C 2.578,4.107 2.966,3.456 3.607,2.905 3.693,2.832 3.822,2.88 3.828,2.997 3.87,3.928 2.904,4.921 2.084,5.24 0.879,5.708 -0.267,5.413 -1.17,4.51 -2.396,3.286 -1.851,0.215 -0.063,-0.15 0.027,-0.168 0.08,-0.051 0,0" />
          </g>
          <g
             id="g1702"
             transform="matrix(1.25,0,0,-1.25,404.08867,567.20639)">
            <path
               id="path1704"
               style="fill:#ffffff;fill-opacity:1;fill-rule:nonzero;stroke:none"
               d="M 0,0 C -0.029,1.488 0.479,2.87 1.79,3.672 3.157,4.508 4.293,3.947 5.713,3.744 5.804,3.731 5.871,3.826 5.805,3.901 4.754,5.079 2.734,4.963 1.488,4.188 0.107,3.328 -0.243,1.477 -0.023,-0.003 -0.021,-0.017 0,-0.013 0,0" />
          </g>
          <g
             id="g1706"
             transform="matrix(1.25,0,0,-1.25,404.03617,571.66064)">
            <path
               id="path1708"
               style="fill:#ffffff;fill-opacity:1;fill-rule:nonzero;stroke:none"
               d="M 0,0 C 1.96,-2.929 7.176,-2.389 8.608,0.849 8.634,0.907 8.567,0.969 8.516,0.92 6.123,-1.416 2.795,-2.586 0.055,0.042 0.027,0.069 -0.023,0.034 0,0" />
          </g>
          <g
             id="g1710"
             transform="matrix(1.25,0,0,-1.25,401.61804,565.28863)">
            <path
               id="path1712"
               style="fill:#ffffff;fill-opacity:1;fill-rule:nonzero;stroke:none"
               d="M 0,0 C 0.027,4.955 7.228,7.05 9.953,3.031 10.003,2.957 10.12,3.022 10.074,3.102 8.792,5.368 6.555,6.217 4.046,5.592 1.268,4.9 -0.086,2.694 -0.1,0 -0.1,-0.064 0,-0.064 0,0" />
          </g>
          <g
             id="g1714"
             transform="matrix(1.25,0,0,-1.25,423.56929,611.84801)">
            <path
               id="path1716"
               style="fill:#ffffff;fill-opacity:1;fill-rule:nonzero;stroke:none"
               d="m 0,0 c 1.833,-0.415 3.738,-0.256 5.597,-0.155 2.576,0.141 4.381,-0.036 6.518,-1.461 0.096,-0.065 0.261,0.019 0.247,0.141 C 11.922,2.299 2.579,0.445 0.243,0.882 -0.329,0.988 -0.58,0.131 0,0" />
          </g>
          <g
             id="g1718"
             transform="matrix(1.25,0,0,-1.25,316.69979,616.80601)">
            <path
               id="path1720"
               style="fill:#ffffff;fill-opacity:1;fill-rule:nonzero;stroke:none"
               d="M 0,0 C 0.086,0.841 0.358,1.692 0.832,2.394 1.088,2.773 1.458,3.081 1.83,3.338 2.129,3.545 2.329,3.617 2.433,3.969 2.466,4.083 2.394,4.195 2.286,4.229 1.482,4.483 0.644,3.305 0.266,2.725 -0.287,1.874 -0.4,0.944 -0.138,-0.019 -0.116,-0.1 -0.008,-0.076 0,0" />
          </g>
        </g>
        <text
           id="text5194"
           y="704.23846"
           x="352.48419"
           style="font-style:normal;font-weight:normal;font-size:33.75453568px;line-height:125%;font-family:sans-serif;letter-spacing:0px;word-spacing:0px;fill:#748a6a;fill-opacity:1;stroke:none;stroke-width:1px;stroke-linecap:butt;stroke-linejoin:miter;stroke-opacity:1;"
           xml:space="preserve"><tspan
             style="font-style:normal;font-variant:normal;font-weight:normal;font-stretch:normal;font-size:33.75453568px;line-height:125%;font-family:'Marker Felt';-inkscape-font-specification:'Marker Felt, Normal';text-align:start;writing-mode:lr-tb;text-anchor:start;fill:#748a6a;fill-opacity:1;"
             id="tspan5198"
             y="704.23846"
             x="352.48419">2016</tspan></text>
      </g>
    </g>
  </g>
</svg>
