<?xml version="1.0" encoding="UTF-8" standalone="no"?>
<!-- Created with Inkscape (http://www.inkscape.org/) -->

<svg
   xmlns:dc="http://purl.org/dc/elements/1.1/"
   xmlns:cc="http://creativecommons.org/ns#"
   xmlns:rdf="http://www.w3.org/1999/02/22-rdf-syntax-ns#"
   xmlns:svg="http://www.w3.org/2000/svg"
   xmlns="http://www.w3.org/2000/svg"
   xmlns:xlink="http://www.w3.org/1999/xlink"
   xmlns:sodipodi="http://sodipodi.sourceforge.net/DTD/sodipodi-0.dtd"
   xmlns:inkscape="http://www.inkscape.org/namespaces/inkscape"
   width="210mm"
   height="297mm"
   viewBox="0 0 744.09448819 1052.3622047"
   id="svg2"
   version="1.1"
   inkscape:version="0.91 r13725"
   sodipodi:docname="logoNoFlor.svg">
  <defs
     id="defs4">
    <circle
       r="156.52223"
       cy="532.1756"
       cx="392.30466"
       id="path4756-8"
       style="fill:none;fill-opacity:1;stroke:none;stroke-opacity:1" />
  </defs>
  <sodipodi:namedview
     id="base"
     pagecolor="#ffffff"
     bordercolor="#666666"
     borderopacity="1.0"
     inkscape:pageopacity="0.0"
     inkscape:pageshadow="2"
     inkscape:zoom="0.75069211"
     inkscape:cx="372.04724"
     inkscape:cy="526.1811"
     inkscape:document-units="px"
     inkscape:current-layer="g5943"
     showgrid="false"
     inkscape:snap-grids="true"
     inkscape:window-width="1920"
     inkscape:window-height="955"
     inkscape:window-x="0"
     inkscape:window-y="1"
     inkscape:window-maximized="1" />
  <metadata
     id="metadata7">
    <rdf:RDF>
      <cc:Work
         rdf:about="">
        <dc:format>image/svg+xml</dc:format>
        <dc:type
           rdf:resource="http://purl.org/dc/dcmitype/StillImage" />
        <dc:title />
      </cc:Work>
    </rdf:RDF>
  </metadata>
  <g
     inkscape:label="Layer 1"
     inkscape:groupmode="layer"
     id="layer1">
    <flowRoot
       xml:space="preserve"
       id="flowRoot4701"
       style="fill:black;stroke:none;stroke-opacity:1;stroke-width:1px;stroke-linejoin:miter;stroke-linecap:butt;fill-opacity:1;font-family:sans-serif;font-style:normal;font-weight:normal;font-size:40px;line-height:125%;letter-spacing:0px;word-spacing:0px"><flowRegion
         id="flowRegion4703"><rect
           id="rect4705"
           width="816.57977"
           height="628.75311"
           x="89.250969"
           y="119.88937" /></flowRegion><flowPara
         id="flowPara4707" /></flowRoot>    <flowRoot
       xml:space="preserve"
       id="flowRoot4748"
       style="fill:black;stroke:none;stroke-opacity:1;stroke-width:1px;stroke-linejoin:miter;stroke-linecap:butt;fill-opacity:1;font-family:sans-serif;font-style:normal;font-weight:normal;font-size:40px;line-height:125%;letter-spacing:0px;word-spacing:0px"><flowRegion
         id="flowRegion4750"><rect
           id="rect4752"
           width="741.98193"
           height="484.88586"
           x="-27.974186"
           y="283.73816" /></flowRegion><flowPara
         id="flowPara4754" /></flowRoot>    <g
       id="g4777" />
    <g
       id="g5943">
      <path
         style="fill:#3e383c;fill-opacity:1;stroke:none;stroke-opacity:1"
         d=""
         id="path3601"
         inkscape:connector-curvature="0" />
      <path
         style="fill:#433f40;fill-opacity:1;stroke:none;stroke-opacity:1"
         d=""
         id="path3603"
         inkscape:connector-curvature="0" />
      <path
         style="fill:#748a6a;fill-opacity:1;stroke:none;stroke-opacity:1"
         d=""
         id="path3776"
         inkscape:connector-curvature="0" />
      <g
         id="g3784">
        <g
           id="g3685">
          <path
             d="m 400.84169,426.80503 c 0.0305,-0.0141 0.0493,-0.0352 0.0892,-0.0493 -0.0328,-0.0235 -0.061,-0.0375 -0.0892,-0.0563 -0.68747,0.0375 -0.68747,0.0774 0,0.10558"
             style="fill:#ffffff;fill-opacity:1;fill-rule:nonzero;stroke:none"
             id="path734"
             inkscape:connector-curvature="0" />
          <path
             d="m 398.60987,426.75693 c 0,-0.74848 0.36837,-1.6612 2.12108,-1.77382 l 0.59127,-0.0352 0.49038,0.33318 -0.93853,1.45707 1.17082,0.0188 -1.1802,0 0.94557,1.46646 -0.4458,0.27217 -0.59832,0.0235 c -1.78086,-0.0774 -2.15627,-0.99953 -2.15627,-1.76209"
             style="fill:#000000;fill-opacity:1;fill-rule:nonzero;stroke:none"
             id="path738"
             inkscape:connector-curvature="0" />
          <path
             d="m 573.75288,471.39675 c 0,142.48307 -81.98772,257.98807 -183.13085,257.98807 -101.13844,0 -183.13084,-115.505 -183.13084,-257.98807 0,-142.48307 81.9924,-257.98807 183.13084,-257.98807 101.14313,0 183.13085,115.505 183.13085,257.98807 z"
             style="fill:none;stroke:#748a6a;stroke-width:7.03898191;stroke-linecap:butt;stroke-linejoin:miter;stroke-miterlimit:10;stroke-dasharray:none;stroke-opacity:1"
             id="path746"
             inkscape:connector-curvature="0" />
          <path
             d="m 390.62227,227.0887 c -93.43545,0 -169.44942,109.59695 -169.44942,244.30899 0,134.70969 76.01397,244.30663 169.44942,244.30663 93.43544,0 169.44941,-109.59694 169.44941,-244.30663 0,-134.71204 -76.01397,-244.30899 -169.44941,-244.30899 z"
             style="fill:none;stroke:#748a6a;stroke-width:2.3463273;stroke-linecap:butt;stroke-linejoin:miter;stroke-miterlimit:10;stroke-dasharray:none;stroke-opacity:1"
             id="path754"
             inkscape:connector-curvature="0" />
          <path
             d="m 463.06512,280.87779 c -45.16445,-14.99069 -55.88248,41.08184 -101.03051,37.4333 51.08424,4.14127 56.75766,-47.44039 101.03051,-37.4333"
             style="fill:#748a6a;fill-opacity:1;fill-rule:evenodd;stroke:none"
             id="path758"
             inkscape:connector-curvature="0" />
          <path
             d="m 390.29941,280.08614 c -1.13328,0.1877 -1.91695,1.21305 -1.74097,2.28297 0.18301,1.06993 1.25059,1.7879 2.38621,1.60958 1.13797,-0.18536 1.92634,-1.2107 1.74567,-2.29001 -0.17598,-1.06758 -1.24355,-1.7879 -2.39091,-1.60254"
             style="fill:#748a6a;fill-opacity:1;fill-rule:evenodd;stroke:none"
             id="path762"
             inkscape:connector-curvature="0" />
          <path
             d="m 390.10678,287.00944 c -1.86299,0.30503 -3.13704,1.96857 -2.84375,3.72597 0.2839,1.75505 2.02488,2.92353 3.88786,2.6185 1.84891,-0.29563 3.12766,-1.97326 2.83437,-3.72127 -0.28626,-1.75975 -2.02254,-2.91883 -3.87848,-2.6232"
             style="fill:#748a6a;fill-opacity:1;fill-rule:evenodd;stroke:none"
             id="path766"
             inkscape:connector-curvature="0" />
          <path
             d="m 390.29941,342.68427 c -1.13328,-0.18536 -1.91695,-1.2107 -1.74097,-2.28767 0.18301,-1.06992 1.25059,-1.7879 2.38621,-1.60489 1.13797,0.18771 1.92634,1.20602 1.74567,2.28298 -0.17598,1.07696 -1.24355,1.79494 -2.39091,1.60958"
             style="fill:#748a6a;fill-opacity:1;fill-rule:evenodd;stroke:none"
             id="path770"
             inkscape:connector-curvature="0" />
          <path
             d="m 390.10678,335.75416 c -1.86299,-0.29798 -3.13704,-1.97561 -2.84375,-3.72362 0.2839,-1.75036 2.02488,-2.92118 3.88786,-2.61381 1.84891,0.30502 3.12766,1.97561 2.83437,3.72362 -0.28626,1.74801 -2.02254,2.91883 -3.87848,2.61381"
             style="fill:#748a6a;fill-opacity:1;fill-rule:evenodd;stroke:none"
             id="path774"
             inkscape:connector-curvature="0" />
          <path
             d="m 389.89608,296.52192 c -2.59973,0.42469 -4.3759,2.75928 -3.97703,5.2065 0.39184,2.45426 2.83202,4.09669 5.43175,3.67201 2.60208,-0.42469 4.38529,-2.76867 3.98406,-5.21589 -0.39887,-2.44487 -2.83905,-4.09199 -5.43878,-3.66262"
             style="fill:#748a6a;fill-opacity:1;fill-rule:evenodd;stroke:none"
             id="path778"
             inkscape:connector-curvature="0" />
          <path
             d="m 463.82369,333.39985 c -11.37265,2.44018 -22.0719,-3.85267 -24.49331,-12.56927 -2.4261,-8.72599 2.50822,-18.90905 13.29898,-22.12352 6.48056,-1.92868 13.89964,0.77898 17.18919,7.07183 3.28486,6.2905 -1.31159,14.18589 -8.89492,15.80721 -1.22244,0.26982 -2.2994,0.24636 -3.23559,0.0282 3.52184,-0.005 6.37732,-2.7147 6.37732,-6.04414 0,-3.33178 -2.86017,-6.0324 -6.3914,-6.0324 -3.53356,0 -6.39374,2.70062 -6.39374,6.0324 0,1.00423 0.25341,1.9498 0.71798,2.78275 1.25998,3.38809 5.26281,5.44348 9.13425,4.61288 7.95874,-1.71517 12.59509,-8.90666 10.35434,-16.06061 -2.24074,-7.15161 -10.33557,-10.80249 -18.47498,-9.83815 -11.53924,1.34913 -20.14791,14.87102 -15.16431,26.14512 4.99064,11.27176 15.40129,15.27459 27.34175,12.69363 15.92687,-3.42329 24.25399,-18.88793 20.71572,-32.10245 -3.04084,-11.35388 -12.96111,-19.24692 -28.6815,-19.95317 -35.92462,-2.91179 -48.51266,43.16539 -89.56635,39.85237 49.13913,3.98407 56.26493,-43.5971 96.14076,-38.30144 9.90385,2.41906 16.82082,8.09013 19.74434,17.41913 4.27267,13.61574 -4.55422,27.30421 -19.71853,30.57968"
             style="fill:#748a6a;fill-opacity:1;fill-rule:evenodd;stroke:none"
             id="path782"
             inkscape:connector-curvature="0" />
          <path
             d="m 318.17941,280.87779 c 45.15272,-14.99069 55.88717,41.08184 101.03285,37.4333 -51.09127,4.14127 -56.76469,-47.44039 -101.03285,-37.4333"
             style="fill:#748a6a;fill-opacity:1;fill-rule:evenodd;stroke:none"
             id="path786"
             inkscape:connector-curvature="0" />
          <path
             d="m 317.41662,333.39985 c 11.37499,2.44018 22.06486,-3.85267 24.49566,-12.56927 2.43548,-8.72599 -2.50119,-18.90905 -13.2896,-22.12352 -6.49229,-1.92868 -13.90668,0.77898 -17.20093,7.07183 -3.27312,6.2905 1.3116,14.18589 8.89493,15.80721 1.22948,0.26982 2.30409,0.24636 3.23559,0.0282 -3.52184,-0.005 -6.37732,-2.7147 -6.37732,-6.04414 0,-3.33178 2.86017,-6.0324 6.39139,-6.0324 3.53357,0 6.39609,2.70062 6.39609,6.0324 0,1.00423 -0.26513,1.9498 -0.72032,2.78275 -1.25763,3.38809 -5.26047,5.44348 -9.13425,4.61288 -7.95875,-1.71517 -12.59743,-8.90666 -10.352,-16.06061 2.2384,-7.15161 10.33323,-10.80249 18.48671,-9.83815 11.5322,1.34913 20.14088,14.87102 15.15493,26.14512 -4.98594,11.27176 -15.40598,15.27459 -27.34644,12.69363 -15.91983,-3.42329 -24.24695,-18.88793 -20.70869,-32.10245 3.0338,-11.35388 12.95642,-19.24692 28.68385,-19.95317 35.91524,-2.91179 48.50093,43.16539 89.57339,39.85237 -49.15555,3.98407 -56.279,-43.5971 -96.15718,-38.30144 -9.9015,2.41906 -16.80909,8.09013 -19.74435,17.41913 -4.27266,13.61574 4.55423,27.30421 19.71854,30.57968"
             style="fill:#748a6a;fill-opacity:1;fill-rule:evenodd;stroke:none"
             id="path790"
             inkscape:connector-curvature="0" />
          <path
             d="m 318.1773,661.9143 c 45.16445,14.99069 55.88248,-41.08184 101.03285,-37.4333 -51.08658,-4.14127 -56.76,47.44039 -101.03285,37.4333"
             style="fill:#748a6a;fill-opacity:1;fill-rule:evenodd;stroke:none"
             id="path794"
             inkscape:connector-curvature="0" />
          <path
             d="m 390.94324,662.70595 c 1.13328,-0.1877 1.9193,-1.21305 1.74098,-2.28297 -0.18067,-1.06993 -1.25059,-1.78791 -2.38622,-1.60724 -1.13797,0.18301 -1.92633,1.20836 -1.74566,2.28767 0.17597,1.06758 1.2459,1.7879 2.3909,1.60254"
             style="fill:#748a6a;fill-opacity:1;fill-rule:evenodd;stroke:none"
             id="path798"
             inkscape:connector-curvature="0" />
          <path
             d="m 391.13564,655.78264 c 1.86299,-0.30502 3.13939,-1.96856 2.84375,-3.72596 -0.2839,-1.75506 -2.02488,-2.92353 -3.88786,-2.6185 -1.84891,0.29563 -3.12531,1.97326 -2.83437,3.72127 0.28626,1.75975 2.02254,2.91883 3.87848,2.62319"
             style="fill:#748a6a;fill-opacity:1;fill-rule:evenodd;stroke:none"
             id="path802"
             inkscape:connector-curvature="0" />
          <path
             d="m 390.94324,600.10782 c 1.13328,0.18536 1.9193,1.2107 1.74098,2.29001 -0.18067,1.06758 -1.25059,1.78556 -2.38622,1.60254 -1.13797,-0.1877 -1.92633,-1.20601 -1.74566,-2.28297 0.17597,-1.07697 1.2459,-1.79494 2.3909,-1.60958"
             style="fill:#748a6a;fill-opacity:1;fill-rule:evenodd;stroke:none"
             id="path806"
             inkscape:connector-curvature="0" />
          <path
             d="m 391.13564,607.03793 c 1.86299,0.29798 3.13939,1.97561 2.84375,3.72362 -0.2839,1.75036 -2.02488,2.92118 -3.88786,2.61381 -1.84891,-0.30502 -3.12531,-1.97561 -2.83437,-3.72362 0.28626,-1.74802 2.02254,-2.91883 3.87848,-2.61381"
             style="fill:#748a6a;fill-opacity:1;fill-rule:evenodd;stroke:none"
             id="path810"
             inkscape:connector-curvature="0" />
          <path
             d="m 391.34634,646.27016 c 2.60208,-0.42468 4.3759,-2.75928 3.97937,-5.2065 -0.39418,-2.45425 -2.83436,-4.09668 -5.43409,-3.672 -2.60208,0.42469 -4.38294,2.76867 -3.98406,5.21589 0.39887,2.44487 2.8414,4.09199 5.43878,3.66261"
             style="fill:#748a6a;fill-opacity:1;fill-rule:evenodd;stroke:none"
             id="path814"
             inkscape:connector-curvature="0" />
          <path
             d="m 317.41873,609.39247 c 11.375,-2.44018 22.07425,3.85267 24.49566,12.56927 2.4261,8.726 -2.50823,18.90906 -13.30133,22.12352 -6.48056,1.92868 -13.89964,-0.77898 -17.1892,-7.07183 -3.28251,-6.2905 1.3116,-14.18589 8.89493,-15.8072 1.22244,-0.26983 2.2994,-0.24637 3.23559,-0.0282 -3.52184,0.005 -6.37732,2.7147 -6.37732,6.04414 0,3.33178 2.86017,6.03241 6.39139,6.03241 3.53357,0 6.39609,-2.70063 6.39609,-6.03241 0,-1.00423 -0.25575,-1.9498 -0.72032,-2.78274 -1.25763,-3.3881 -5.26047,-5.44348 -9.13425,-4.61054 -7.95874,1.71282 -12.59509,8.90431 -10.352,16.06061 2.2384,7.15161 10.33323,10.80015 18.47264,9.83815 11.54158,-1.35148 20.15026,-14.87337 15.16431,-26.14747 -4.98829,-11.27175 -15.40129,-15.27459 -27.34175,-12.69363 -15.92687,3.42329 -24.25399,18.88794 -20.71338,32.10245 3.03849,11.35388 12.96111,19.24692 28.68151,19.95317 35.92227,2.91179 48.51031,-43.16538 89.56635,-39.85237 -49.14148,-3.98406 -56.26728,43.59711 -96.14311,38.30145 -9.9015,-2.41907 -16.81847,-8.08779 -19.74434,-17.41914 -4.27267,-13.61574 4.55422,-27.30421 19.71853,-30.57968"
             style="fill:#748a6a;fill-opacity:1;fill-rule:evenodd;stroke:none"
             id="path818"
             inkscape:connector-curvature="0" />
          <path
             d="m 463.06301,661.9143 c -45.15038,14.99069 -55.88717,-41.08184 -101.03051,-37.4333 51.08893,-4.14127 56.7647,47.44039 101.03051,37.4333"
             style="fill:#748a6a;fill-opacity:1;fill-rule:evenodd;stroke:none"
             id="path822"
             inkscape:connector-curvature="0" />
          <path
             d="m 463.82604,609.39247 c -11.37265,-2.44018 -22.06487,3.85267 -24.49332,12.56927 -2.43548,8.726 2.50119,18.90906 13.2896,22.12352 6.49229,1.92868 13.90434,-0.77898 17.19858,-7.07183 3.27547,-6.2905 -1.3116,-14.18589 -8.89493,-15.8072 -1.22947,-0.26983 -2.30409,-0.24637 -3.23558,-0.0282 3.52184,0.005 6.37732,2.7147 6.37732,6.04414 0,3.33178 -2.86018,6.03241 -6.3914,6.03241 -3.53357,0 -6.39374,-2.70063 -6.39374,-6.03241 0,-1.00423 0.26279,-1.9498 0.71798,-2.78274 1.25997,-3.3881 5.26281,-5.44348 9.13659,-4.61054 7.95875,1.71282 12.59509,8.90431 10.352,16.06061 -2.24074,7.15161 -10.33557,10.80015 -18.48906,9.83815 -11.52985,-1.35148 -20.13853,-14.87337 -15.15493,-26.14747 4.98829,-11.27175 15.40599,-15.27459 27.34645,-12.69363 15.91983,3.42329 24.24694,18.88794 20.71103,32.10245 -3.03615,11.35388 -12.95642,19.24692 -28.68385,19.95317 -35.91523,2.91179 -48.50328,-43.16538 -89.57574,-39.85237 49.15556,-3.98406 56.27901,43.59711 96.15953,38.30145 9.9015,-2.41907 16.80909,-8.08779 19.742,-17.41914 4.27266,-13.61574 -4.55422,-27.30421 -19.71853,-30.57968"
             style="fill:#748a6a;fill-opacity:1;fill-rule:evenodd;stroke:none"
             id="path826"
             inkscape:connector-curvature="0" />
          <circle
             style="fill:none;fill-opacity:1;stroke:none;stroke-opacity:1"
             id="path4756"
             cx="392.30466"
             cy="532.1756"
             r="156.52223" />
          <g
             transform="matrix(1.744273,0,0,1.744273,-267.58445,-509.99898)"
             id="g4868">
            <g
               id="g1646"
               transform="matrix(1.25,0,0,-1.25,397.97416,591.12964)">
              <path
                 inkscape:connector-curvature="0"
                 id="path1648"
                 style="fill:#3e383c;fill-opacity:1;fill-rule:evenodd;stroke:none"
                 d="m 0,0 c -2.209,-4.6 -4.728,-9.054 -7.122,-13.563 -0.514,-0.963 -1.227,-1.391 -2.436,-1.386 -13.382,0.053 -26.769,0.03 -40.154,0.031 -0.135,0 -0.613,0.002 -1.179,0.004 0.145,0.965 0.25,3.948 0.25,4.149 l 0,5.583 1.056,0 0,-0.611 c 0,-0.133 0.105,-0.24 0.238,-0.24 0.132,0 0.24,0.107 0.24,0.24 l 0,0.613 c 0.128,0.004 0.228,0.07 0.228,0.155 0,0.082 -0.1,0.148 -0.228,0.153 l 0,0.661 c 0,0.131 -0.108,0.239 -0.24,0.239 -0.133,0 -0.238,-0.108 -0.238,-0.239 l 0,-0.66 -1.056,0 0,3.665 0,0.002 c 0.049,0.005 0.096,0.007 0.136,0.014 0.934,0.122 1.855,0.415 2.649,0.851 1.944,1.07 2.627,3.056 3.141,5.029 0.657,2.537 1.135,5.12 1.698,7.681 0.559,2.532 2.332,3.898 4.624,4.72 3.067,1.101 6.288,1.49 9.49,1.382 6.401,-0.214 12.795,-0.701 19.19,-1.077 1.608,-0.098 3.212,-0.23 4.816,-0.29 C -0.114,16.933 2.575,14.139 2.431,9.375 2.329,6.076 1.401,2.921 0,0 m 19.367,19.193 2.22,0 0,-2.997 c -0.002,-2.957 1.517,-3.887 4.354,-2.39 l 0,-8.952 -2.913,0 c 0,0.966 0.014,1.86 -0.005,2.752 -0.026,1.474 -0.499,1.94 -1.996,1.987 -0.936,0.026 -1.876,0.033 -2.813,0.052 -0.036,0.001 -0.072,0.037 -0.246,0.131 0.451,3.046 0.913,6.15 1.399,9.417 m 15.427,-38.839 c 0,0.457 -0.159,0.925 -0.296,1.375 -0.642,2.099 -2.005,3.245 -4.182,3.301 -3.137,0.08 -6.279,0.127 -9.416,0.02 -1.595,-0.054 -2.65,0.621 -3.399,1.84 -0.548,0.887 -1.07,2.111 -1.248,2.874 -0.453,1.938 -0.642,5.954 -0.525,7.94 0.126,2.153 0.742,5.722 1.137,8.553 l 3.555,0 C 20.12,5.611 20.025,4.98 19.66,4.706 19.038,4.236 18.53,3.771 18.763,2.982 19.008,2.146 19.652,1.776 20.56,1.788 c 2.08,0.029 4.16,0.008 6.242,0.006 l 5.645,0 0,-1.89 c 0,-0.606 0.529,-1.096 1.184,-1.096 0.655,0 1.187,0.49 1.187,1.096 l 0,0.875 c 0.057,1.88 0.038,3.765 0.012,5.649 0,0.049 -0.008,0.094 -0.012,0.141 l 0,0.488 c 0,0.605 -0.532,1.097 -1.187,1.097 -0.655,0 -1.184,-0.492 -1.184,-1.097 l 0,-2.203 C 32.328,4.69 31.013,4.617 30.858,4.652 l 0,2.263 c 0.003,0.026 0.01,0.054 0.01,0.08 0.012,10.52 0.004,21.041 0,31.561 0,0.431 0.021,0.867 -0.03,1.294 -0.167,1.419 -1.121,2.217 -2.567,2.183 -1.365,-0.033 -2.388,-0.969 -2.419,-2.354 -0.049,-2.197 -0.014,-4.395 -0.025,-6.595 0,-0.326 -0.053,-0.65 -0.083,-0.977 -0.035,0.12 -0.07,0.238 -0.102,0.356 -0.958,0.026 -2.009,0.309 -2.849,0.01 -1.027,-0.37 -1.234,-1.512 -1.206,-2.594 C 21.608,29 21.59,28.118 21.59,27.212 l -3.483,0 c -1.841,4.23 -5.377,5.511 -9.496,5.898 -0.005,0.103 -0.038,0.203 -0.094,0.295 0.344,0.058 0.674,0.086 0.999,0.155 0.017,0.005 0.04,0.013 0.058,0.018 l 0.088,0 c 0.534,0 0.968,0.435 0.968,0.968 0,0.535 -0.434,0.967 -0.968,0.967 l -0.349,0 0,4.097 c 0.025,0.026 0.055,0.052 0.083,0.078 l 0.266,0 c 0.534,0 0.968,0.434 0.968,0.969 0,0.534 -0.434,0.968 -0.968,0.968 l -1.465,0 c -0.484,0.74 -0.792,1.214 -1.1,1.687 C 6.79,42.841 6.482,42.373 6.012,41.654 5.759,41.654 5.17,41.714 4.596,41.642 4.421,41.62 4.278,41.551 4.157,41.46 4.156,41.46 4.154,41.458 4.152,41.458 4.121,41.434 4.094,41.412 4.062,41.386 3.86,41.206 3.729,40.949 3.729,40.657 c 0,-0.535 0.431,-0.969 0.966,-0.969 l 0.009,0 C 4.726,39.671 4.753,39.657 4.771,39.638 4.924,39.465 4.883,39.163 4.883,39.1 l 0,-3.006 c 0,-0.278 0.007,-0.457 -0.139,-0.581 l -0.049,0 c -0.535,0 -0.966,-0.432 -0.966,-0.967 0,-0.533 0.431,-0.968 0.966,-0.968 l 0.023,0 C 4.749,33.569 4.776,33.555 4.809,33.547 5.129,33.474 5.462,33.451 5.794,33.438 5.718,33.332 5.673,33.213 5.67,33.091 -1.812,31.876 -9.295,30.665 -16.807,29.445 c 0,0 -0.192,-0.029 -0.528,-0.081 l 0,8.512 c 0,0.239 -0.192,0.433 -0.431,0.433 -0.239,0 -0.431,-0.194 -0.431,-0.433 l 0,-8.644 c -3.006,-0.45 -10.123,-1.443 -13.642,-1.308 -1.961,0.074 -3.84,0.367 -5.467,1.717 -1.773,1.474 -3.669,2.804 -5.578,4.102 -2.278,1.552 -4.363,2.92 -7.661,2.434 l 0,5.079 c 0,0.237 -0.193,0.431 -0.432,0.431 -0.237,0 -0.432,-0.194 -0.432,-0.431 l 0,-5.213 c -0.283,-0.046 -0.577,-0.098 -0.834,-0.151 -2.788,-0.596 -1.507,-2.617 -1.939,-4.11 -1.292,0.533 -1.641,1.172 -1.143,2.094 -0.358,-0.063 -0.718,-0.122 -1.074,-0.196 -0.282,-0.059 -0.735,-0.071 -0.794,-0.227 -0.101,-0.258 0.008,-0.63 0.109,-0.928 0.068,-0.201 0.172,-0.465 0.272,-0.595 0.135,-0.171 0.544,-0.483 0.651,-0.582 0,0 2.15,-1.704 2.106,-3.378 -0.122,-4.661 -0.039,-9.327 -0.039,-13.993 l 0,-0.804 -2.041,2.011 c -0.083,0.081 -0.204,0.105 -0.312,0.06 -0.108,-0.044 -0.177,-0.149 -0.177,-0.264 l 0,-1.417 c -0.003,0 -0.006,0.002 -0.008,0.002 -0.501,0 -0.91,-0.409 -0.91,-0.911 l 0,-3.843 c 0,-0.501 0.409,-0.91 0.91,-0.91 l 0.008,0 0,-1.7 c 0,-0.118 0.072,-0.223 0.181,-0.267 0.034,-0.014 0.071,-0.021 0.106,-0.021 0.076,0 0.153,0.029 0.209,0.089 l 2.016,2.108 c 0.007,-1.532 0.018,-4.771 0.008,-6.441 -10e-4,-0.268 -0.23,-0.617 -0.38,-0.77 -0.055,-0.055 -0.176,-0.134 -0.215,-0.231 -0.042,-0.094 10e-4,-0.33 0.072,-0.401 0.041,-0.043 0.145,-0.117 0.289,-0.228 0.236,-0.183 1.114,-0.945 2.112,-1.163 0.224,-0.048 0.572,-0.08 0.915,-0.09 l 0,-7.295 c -0.021,0.003 -0.039,0.009 -0.062,0.009 l -1.113,0 0,0.61 c 0,0.133 -0.106,0.24 -0.24,0.24 -0.132,0 -0.24,-0.107 -0.24,-0.24 l 0,-0.612 c -0.127,-0.005 -0.226,-0.073 -0.226,-0.156 0,-0.083 0.099,-0.149 0.226,-0.154 l 0,-0.659 c 0,-0.133 0.108,-0.24 0.24,-0.24 0.134,0 0.24,0.107 0.24,0.24 l 0,0.659 1.113,0 c 0.023,0 0.041,0.003 0.062,0.006 l 0,-1.959 c 0,-0.201 0.106,-3.184 0.248,-4.149 -1.022,10e-4 -2.23,0.003 -2.23,0.003 -4.437,0 -3.809,0.016 -8.244,-0.003 -2.674,-0.012 -4.611,-1.88 -4.682,-4.559 -0.071,-2.782 -0.044,-5.569 -0.086,-8.355 -0.044,-2.84 1.796,-5.385 5.429,-5.346 13.307,0.137 21.547,0.042 34.855,0.058 11.774,0.012 23.548,0.066 35.323,0.074 6.827,0.003 13.654,-0.06 20.48,-0.071 2.822,-0.003 4.617,1.361 4.871,4.192 0.276,3.071 0.133,6.182 0.141,9.275" />
            </g>
            <g
               id="g1650"
               transform="matrix(1.25,0,0,-1.25,397.97416,591.12964)">
              <path
                 inkscape:connector-curvature="0"
                 id="path1652"
                 style="fill:none;stroke:#3e383c;stroke-width:0.5;stroke-linecap:round;stroke-linejoin:round;stroke-miterlimit:10;stroke-dasharray:none;stroke-opacity:1"
                 d="m 0,0 c -2.209,-4.6 -4.728,-9.054 -7.122,-13.563 -0.514,-0.963 -1.227,-1.391 -2.436,-1.386 -13.382,0.053 -26.769,0.03 -40.154,0.031 -0.135,0 -0.613,0.002 -1.179,0.004 0.145,0.965 0.25,3.948 0.25,4.149 l 0,5.583 1.056,0 0,-0.611 c 0,-0.133 0.105,-0.24 0.238,-0.24 0.132,0 0.24,0.107 0.24,0.24 l 0,0.613 c 0.128,0.004 0.228,0.07 0.228,0.155 0,0.082 -0.1,0.148 -0.228,0.153 l 0,0.661 c 0,0.131 -0.108,0.239 -0.24,0.239 -0.133,0 -0.238,-0.108 -0.238,-0.239 l 0,-0.66 -1.056,0 0,3.665 0,0.002 c 0.049,0.005 0.096,0.007 0.136,0.014 0.934,0.122 1.855,0.415 2.649,0.851 1.944,1.07 2.627,3.056 3.141,5.029 0.657,2.537 1.135,5.12 1.698,7.681 0.559,2.532 2.332,3.898 4.624,4.72 3.067,1.101 6.288,1.49 9.49,1.382 6.401,-0.214 12.795,-0.701 19.19,-1.077 1.608,-0.098 3.212,-0.23 4.816,-0.29 C -0.114,16.933 2.575,14.139 2.431,9.375 2.329,6.076 1.401,2.921 0,0 Z m 19.367,19.193 2.22,0 0,-2.997 c -0.002,-2.957 1.517,-3.887 4.354,-2.39 l 0,-8.952 -2.913,0 c 0,0.966 0.014,1.86 -0.005,2.752 -0.026,1.474 -0.499,1.94 -1.996,1.987 -0.936,0.026 -1.876,0.033 -2.813,0.052 -0.036,0.001 -0.072,0.037 -0.246,0.131 0.451,3.046 0.913,6.15 1.399,9.417 z m 15.427,-38.839 c 0,0.457 -0.159,0.925 -0.296,1.375 -0.642,2.099 -2.005,3.245 -4.182,3.301 -3.137,0.08 -6.279,0.127 -9.416,0.02 -1.595,-0.054 -2.65,0.621 -3.399,1.84 -0.548,0.887 -1.07,2.111 -1.248,2.874 -0.453,1.938 -0.642,5.954 -0.525,7.94 0.126,2.153 0.742,5.722 1.137,8.553 l 3.555,0 C 20.12,5.611 20.025,4.98 19.66,4.706 19.038,4.236 18.53,3.771 18.763,2.982 19.008,2.146 19.652,1.776 20.56,1.788 c 2.08,0.029 4.16,0.008 6.242,0.006 l 5.645,0 0,-1.89 c 0,-0.606 0.529,-1.096 1.184,-1.096 0.655,0 1.187,0.49 1.187,1.096 l 0,0.875 c 0.057,1.88 0.038,3.765 0.012,5.649 0,0.049 -0.008,0.094 -0.012,0.141 l 0,0.488 c 0,0.605 -0.532,1.097 -1.187,1.097 -0.655,0 -1.184,-0.492 -1.184,-1.097 l 0,-2.203 C 32.328,4.69 31.013,4.617 30.858,4.652 l 0,2.263 c 0.003,0.026 0.01,0.054 0.01,0.08 0.012,10.52 0.004,21.041 0,31.561 0,0.431 0.021,0.867 -0.03,1.294 -0.167,1.419 -1.121,2.217 -2.567,2.183 -1.365,-0.033 -2.388,-0.969 -2.419,-2.354 -0.049,-2.197 -0.014,-4.395 -0.025,-6.595 0,-0.326 -0.053,-0.65 -0.083,-0.977 -0.035,0.12 -0.07,0.238 -0.102,0.356 -0.958,0.026 -2.009,0.309 -2.849,0.01 -1.027,-0.37 -1.234,-1.512 -1.206,-2.594 C 21.608,29 21.59,28.118 21.59,27.212 l -3.483,0 c -1.841,4.23 -5.377,5.511 -9.496,5.898 -0.005,0.103 -0.038,0.203 -0.094,0.295 0.344,0.058 0.674,0.086 0.999,0.155 0.017,0.005 0.04,0.013 0.058,0.018 l 0.088,0 c 0.534,0 0.968,0.435 0.968,0.968 0,0.535 -0.434,0.967 -0.968,0.967 l -0.349,0 0,4.097 c 0.025,0.026 0.055,0.052 0.083,0.078 l 0.266,0 c 0.534,0 0.968,0.434 0.968,0.969 0,0.534 -0.434,0.968 -0.968,0.968 l -1.465,0 c -0.484,0.74 -0.792,1.214 -1.1,1.687 C 6.79,42.841 6.482,42.373 6.012,41.654 5.759,41.654 5.17,41.714 4.596,41.642 4.421,41.62 4.278,41.551 4.157,41.46 4.156,41.46 4.154,41.458 4.152,41.458 4.121,41.434 4.094,41.412 4.062,41.386 3.86,41.206 3.729,40.949 3.729,40.657 c 0,-0.535 0.431,-0.969 0.966,-0.969 l 0.009,0 C 4.726,39.671 4.753,39.657 4.771,39.638 4.924,39.465 4.883,39.163 4.883,39.1 l 0,-3.006 c 0,-0.278 0.007,-0.457 -0.139,-0.581 l -0.049,0 c -0.535,0 -0.966,-0.432 -0.966,-0.967 0,-0.533 0.431,-0.968 0.966,-0.968 l 0.023,0 C 4.749,33.569 4.776,33.555 4.809,33.547 5.129,33.474 5.462,33.451 5.794,33.438 5.718,33.332 5.673,33.213 5.67,33.091 -1.812,31.876 -9.295,30.665 -16.807,29.445 c 0,0 -0.192,-0.029 -0.528,-0.081 l 0,8.512 c 0,0.239 -0.192,0.433 -0.431,0.433 -0.239,0 -0.431,-0.194 -0.431,-0.433 l 0,-8.644 c -3.006,-0.45 -10.123,-1.443 -13.642,-1.308 -1.961,0.074 -3.84,0.367 -5.467,1.717 -1.773,1.474 -3.669,2.804 -5.578,4.102 -2.278,1.552 -4.363,2.92 -7.661,2.434 l 0,5.079 c 0,0.237 -0.193,0.431 -0.432,0.431 -0.237,0 -0.432,-0.194 -0.432,-0.431 l 0,-5.213 c -0.283,-0.046 -0.577,-0.098 -0.834,-0.151 -2.788,-0.596 -1.507,-2.617 -1.939,-4.11 -1.292,0.533 -1.641,1.172 -1.143,2.094 -0.358,-0.063 -0.718,-0.122 -1.074,-0.196 -0.282,-0.059 -0.735,-0.071 -0.794,-0.227 -0.101,-0.258 0.008,-0.63 0.109,-0.928 0.068,-0.201 0.172,-0.465 0.272,-0.595 0.135,-0.171 0.544,-0.483 0.651,-0.582 0,0 2.15,-1.704 2.106,-3.378 -0.122,-4.661 -0.039,-9.327 -0.039,-13.993 l 0,-0.804 -2.041,2.011 c -0.083,0.081 -0.204,0.105 -0.312,0.06 -0.108,-0.044 -0.177,-0.149 -0.177,-0.264 l 0,-1.417 c -0.003,0 -0.006,0.002 -0.008,0.002 -0.501,0 -0.91,-0.409 -0.91,-0.911 l 0,-3.843 c 0,-0.501 0.409,-0.91 0.91,-0.91 l 0.008,0 0,-1.7 c 0,-0.118 0.072,-0.223 0.181,-0.267 0.034,-0.014 0.071,-0.021 0.106,-0.021 0.076,0 0.153,0.029 0.209,0.089 l 2.016,2.108 c 0.007,-1.532 0.018,-4.771 0.008,-6.441 -10e-4,-0.268 -0.23,-0.617 -0.38,-0.77 -0.055,-0.055 -0.176,-0.134 -0.215,-0.231 -0.042,-0.094 10e-4,-0.33 0.072,-0.401 0.041,-0.043 0.145,-0.117 0.289,-0.228 0.236,-0.183 1.114,-0.945 2.112,-1.163 0.224,-0.048 0.572,-0.08 0.915,-0.09 l 0,-7.295 c -0.021,0.003 -0.039,0.009 -0.062,0.009 l -1.113,0 0,0.61 c 0,0.133 -0.106,0.24 -0.24,0.24 -0.132,0 -0.24,-0.107 -0.24,-0.24 l 0,-0.612 c -0.127,-0.005 -0.226,-0.073 -0.226,-0.156 0,-0.083 0.099,-0.149 0.226,-0.154 l 0,-0.659 c 0,-0.133 0.108,-0.24 0.24,-0.24 0.134,0 0.24,0.107 0.24,0.24 l 0,0.659 1.113,0 c 0.023,0 0.041,0.003 0.062,0.006 l 0,-1.959 c 0,-0.201 0.106,-3.184 0.248,-4.149 -1.022,10e-4 -2.23,0.003 -2.23,0.003 -4.437,0 -3.809,0.016 -8.244,-0.003 -2.674,-0.012 -4.611,-1.88 -4.682,-4.559 -0.071,-2.782 -0.044,-5.569 -0.086,-8.355 -0.044,-2.84 1.796,-5.385 5.429,-5.346 13.307,0.137 21.547,0.042 34.855,0.058 11.774,0.012 23.548,0.066 35.323,0.074 6.827,0.003 13.654,-0.06 20.48,-0.071 2.822,-0.003 4.617,1.361 4.871,4.192 0.276,3.071 0.133,6.182 0.141,9.275 z" />
            </g>
            <g
               id="g1654"
               transform="matrix(1.25,0,0,-1.25,337.68116,548.33364)">
              <path
                 inkscape:connector-curvature="0"
                 id="path1656"
                 style="fill:#ffffff;fill-opacity:1;fill-rule:nonzero;stroke:none"
                 d="m 0,0 c 5.011,-0.854 7.571,-5.669 12.203,-7.312 4.279,-1.517 8.897,-1.045 13.323,-0.398 11.73,1.712 24.896,6.931 36.453,2.555 0.193,-0.073 0.296,0.219 0.135,0.322 -8.7,5.543 -21.939,0.142 -31.059,-1.28 -6.6,-1.029 -13.848,-2.975 -20.162,0.082 C 6.99,-4.142 4.561,-0.439 0.013,0.092 -0.04,0.099 -0.052,0.009 0,0" />
            </g>
            <g
               id="g1658"
               transform="matrix(1.25,0,0,-1.25,332.33941,557.86063)">
              <path
                 inkscape:connector-curvature="0"
                 id="path1660"
                 style="fill:#ffffff;fill-opacity:1;fill-rule:nonzero;stroke:none"
                 d="m 0,0 c -0.721,-7.516 -0.491,-15.469 -0.059,-23.003 0.01,-0.166 0.248,-0.166 0.258,0 C 0.632,-15.469 0.862,-7.516 0.141,0 0.132,0.09 0.009,0.09 0,0" />
            </g>
            <g
               id="g1662"
               transform="matrix(1.25,0,0,-1.25,399.13991,570.40214)">
              <path
                 inkscape:connector-curvature="0"
                 id="path1664"
                 style="fill:#ffffff;fill-opacity:1;fill-rule:nonzero;stroke:none"
                 d="m 0,0 c 6.228,-8.185 -0.866,-14.901 -1.981,-23.227 -0.024,-0.177 0.25,-0.234 0.327,-0.088 3.011,5.676 8.755,18.599 1.83,23.491 C 0.074,0.249 -0.078,0.103 0,0" />
            </g>
            <g
               id="g1666"
               transform="matrix(1.25,0,0,-1.25,421.27979,558.25676)">
              <path
                 inkscape:connector-curvature="0"
                 id="path1668"
                 style="fill:#ffffff;fill-opacity:1;fill-rule:nonzero;stroke:none"
                 d="m 0,0 c 0.546,-0.206 1.107,-0.211 1.685,-0.273 0.51,-0.055 1.14,-0.22 1.542,0.177 C 3.279,-0.044 3.3,0.054 3.254,0.117 2.945,0.543 2.41,0.526 1.917,0.504 1.269,0.476 0.611,0.479 0,0.249 -0.123,0.203 -0.123,0.046 0,0" />
            </g>
            <g
               id="g1670"
               transform="matrix(1.25,0,0,-1.25,426.14554,555.23363)">
              <path
                 inkscape:connector-curvature="0"
                 id="path1672"
                 style="fill:#ffffff;fill-opacity:1;fill-rule:nonzero;stroke:none"
                 d="m 0,0 c 0.08,0.487 0.109,0.986 0.206,1.469 0.05,0.248 0.143,0.487 0.31,0.679 0.178,0.207 0.442,0.24 0.63,0.425 C 1.241,2.668 1.183,2.803 1.073,2.848 0.489,3.082 0.018,2.384 -0.116,1.912 -0.296,1.279 -0.156,0.629 -0.045,0 -0.041,-0.022 -0.003,-0.022 0,0" />
            </g>
            <g
               id="g1674"
               transform="matrix(1.25,0,0,-1.25,431.75404,550.50651)">
              <path
                 inkscape:connector-curvature="0"
                 id="path1676"
                 style="fill:#ffffff;fill-opacity:1;fill-rule:nonzero;stroke:none"
                 d="M 0,0 C 0.528,0.977 0.462,2.244 0.446,3.334 0.428,4.6 0.517,6.002 0.103,7.208 0.033,7.409 -0.235,7.409 -0.305,7.208 -0.723,5.991 -0.604,4.609 -0.648,3.334 -0.686,2.254 -0.725,0.967 -0.202,0 -0.161,-0.076 -0.041,-0.076 0,0" />
            </g>
            <g
               id="g1678"
               transform="matrix(1.25,0,0,-1.25,431.31467,574.32126)">
              <path
                 inkscape:connector-curvature="0"
                 id="path1680"
                 style="fill:#ffffff;fill-opacity:1;fill-rule:nonzero;stroke:none"
                 d="m 0,0 c -0.458,-0.394 -0.399,-1.016 -0.399,-1.575 0,-0.853 0.264,-1.594 0.4,-2.428 0.01,-0.057 0.104,-0.057 0.114,0 0.117,0.717 0.4,1.396 0.4,2.129 C 0.515,-1.247 0.64,-0.451 0.116,0 0.08,0.031 0.036,0.031 0,0" />
            </g>
            <g
               id="g1682"
               transform="matrix(1.25,0,0,-1.25,422.59029,579.99438)">
              <path
                 inkscape:connector-curvature="0"
                 id="path1684"
                 style="fill:#ffffff;fill-opacity:1;fill-rule:nonzero;stroke:none"
                 d="m 0,0 c 0.56,-0.246 1.201,-0.107 1.754,-0.433 0.638,-0.375 0.601,-1.173 0.7,-1.818 0.013,-0.086 0.135,-0.07 0.158,0 0.234,0.71 0.163,1.579 -0.441,2.092 C 1.68,0.259 0.574,0.387 0,0.142 -0.054,0.119 -0.053,0.023 0,0" />
            </g>
            <g
               id="g1686"
               transform="matrix(1.25,0,0,-1.25,439.57141,584.49638)">
              <path
                 inkscape:connector-curvature="0"
                 id="path1688"
                 style="fill:#ffffff;fill-opacity:1;fill-rule:nonzero;stroke:none"
                 d="M 0,0 C 0.495,0.43 -0.157,1.548 0.565,1.745 1.101,1.891 1.007,2.765 0.432,2.73 -0.236,2.689 -0.564,2.188 -0.615,1.565 -0.649,1.152 -0.593,0.28 -0.249,0 -0.17,-0.063 -0.078,-0.067 0,0" />
            </g>
            <g
               id="g1690"
               transform="matrix(1.25,0,0,-1.25,403.00354,540.41676)">
              <path
                 inkscape:connector-curvature="0"
                 id="path1692"
                 style="fill:#ffffff;fill-opacity:1;fill-rule:nonzero;stroke:none"
                 d="M 0,0 C 0.639,-0.144 1.474,-0.154 2.082,0.122 2.767,0.433 3.145,1.085 3.472,1.73 3.624,2.029 3.216,2.261 3.026,1.991 2.701,1.526 2.345,1.017 1.777,0.845 1.203,0.671 0.58,0.775 0,0.648 -0.322,0.577 -0.32,0.072 0,0" />
            </g>
            <g
               id="g1694"
               transform="matrix(1.25,0,0,-1.25,404.72716,542.01101)">
              <path
                 inkscape:connector-curvature="0"
                 id="path1696"
                 style="fill:#ffffff;fill-opacity:1;fill-rule:nonzero;stroke:none"
                 d="m 0,0 c -0.242,-0.408 -0.152,-0.959 -0.162,-1.421 -0.015,-0.623 -0.012,-1.243 -0.008,-1.865 0.003,-0.408 0.635,-0.408 0.633,0 C 0.459,-2.658 0.406,-2.045 0.339,-1.421 0.29,-0.959 0.348,-0.403 0.102,0 0.079,0.037 0.023,0.038 0,0" />
            </g>
            <g
               id="g1698"
               transform="matrix(1.25,0,0,-1.25,407.71604,570.35213)">
              <path
                 inkscape:connector-curvature="0"
                 id="path1700"
                 style="fill:#ffffff;fill-opacity:1;fill-rule:nonzero;stroke:none"
                 d="m 0,0 c -1.122,0.717 -1.375,2.674 -0.776,3.78 0.482,0.889 1.69,1.033 2.53,0.677 C 2.578,4.107 2.966,3.456 3.607,2.905 3.693,2.832 3.822,2.88 3.828,2.997 3.87,3.928 2.904,4.921 2.084,5.24 0.879,5.708 -0.267,5.413 -1.17,4.51 -2.396,3.286 -1.851,0.215 -0.063,-0.15 0.027,-0.168 0.08,-0.051 0,0" />
            </g>
            <g
               id="g1702"
               transform="matrix(1.25,0,0,-1.25,404.08867,567.20639)">
              <path
                 inkscape:connector-curvature="0"
                 id="path1704"
                 style="fill:#ffffff;fill-opacity:1;fill-rule:nonzero;stroke:none"
                 d="M 0,0 C -0.029,1.488 0.479,2.87 1.79,3.672 3.157,4.508 4.293,3.947 5.713,3.744 5.804,3.731 5.871,3.826 5.805,3.901 4.754,5.079 2.734,4.963 1.488,4.188 0.107,3.328 -0.243,1.477 -0.023,-0.003 -0.021,-0.017 0,-0.013 0,0" />
            </g>
            <g
               id="g1706"
               transform="matrix(1.25,0,0,-1.25,404.03617,571.66064)">
              <path
                 inkscape:connector-curvature="0"
                 id="path1708"
                 style="fill:#ffffff;fill-opacity:1;fill-rule:nonzero;stroke:none"
                 d="M 0,0 C 1.96,-2.929 7.176,-2.389 8.608,0.849 8.634,0.907 8.567,0.969 8.516,0.92 6.123,-1.416 2.795,-2.586 0.055,0.042 0.027,0.069 -0.023,0.034 0,0" />
            </g>
            <g
               id="g1710"
               transform="matrix(1.25,0,0,-1.25,401.61804,565.28863)">
              <path
                 inkscape:connector-curvature="0"
                 id="path1712"
                 style="fill:#ffffff;fill-opacity:1;fill-rule:nonzero;stroke:none"
                 d="M 0,0 C 0.027,4.955 7.228,7.05 9.953,3.031 10.003,2.957 10.12,3.022 10.074,3.102 8.792,5.368 6.555,6.217 4.046,5.592 1.268,4.9 -0.086,2.694 -0.1,0 -0.1,-0.064 0,-0.064 0,0" />
            </g>
            <g
               id="g1714"
               transform="matrix(1.25,0,0,-1.25,423.56929,611.84801)">
              <path
                 inkscape:connector-curvature="0"
                 id="path1716"
                 style="fill:#ffffff;fill-opacity:1;fill-rule:nonzero;stroke:none"
                 d="m 0,0 c 1.833,-0.415 3.738,-0.256 5.597,-0.155 2.576,0.141 4.381,-0.036 6.518,-1.461 0.096,-0.065 0.261,0.019 0.247,0.141 C 11.922,2.299 2.579,0.445 0.243,0.882 -0.329,0.988 -0.58,0.131 0,0" />
            </g>
            <g
               id="g1718"
               transform="matrix(1.25,0,0,-1.25,316.69979,616.80601)">
              <path
                 inkscape:connector-curvature="0"
                 id="path1720"
                 style="fill:#ffffff;fill-opacity:1;fill-rule:nonzero;stroke:none"
                 d="M 0,0 C 0.086,0.841 0.358,1.692 0.832,2.394 1.088,2.773 1.458,3.081 1.83,3.338 2.129,3.545 2.329,3.617 2.433,3.969 2.466,4.083 2.394,4.195 2.286,4.229 1.482,4.483 0.644,3.305 0.266,2.725 -0.287,1.874 -0.4,0.944 -0.138,-0.019 -0.116,-0.1 -0.008,-0.076 0,0" />
            </g>
          </g>
          <text
             sodipodi:linespacing="125%"
             id="text5194"
             y="704.23846"
             x="352.48419"
             style="font-style:normal;font-weight:normal;font-size:33.75453568px;line-height:125%;font-family:sans-serif;letter-spacing:0px;word-spacing:0px;fill:#748a6a;fill-opacity:1;stroke:none;stroke-width:1px;stroke-linecap:butt;stroke-linejoin:miter;stroke-opacity:1"
             xml:space="preserve"><tspan
               style="font-style:normal;font-variant:normal;font-weight:normal;font-stretch:normal;font-size:33.75453568px;line-height:125%;font-family:'Marker Felt';-inkscape-font-specification:'Marker Felt, Normal';text-align:start;writing-mode:lr-tb;text-anchor:start;fill:#748a6a;fill-opacity:1"
               id="tspan5198"
               y="704.23846"
               x="352.48419"
               sodipodi:role="line">2016</tspan></text>
          <text
             xml:space="preserve"
             style="font-style:normal;font-weight:normal;font-size:40px;line-height:125%;font-family:sans-serif;letter-spacing:0px;word-spacing:0px;fill:#748a6a;fill-opacity:1;stroke:none;stroke-width:1px;stroke-linecap:butt;stroke-linejoin:miter;stroke-opacity:1"
             id="text4758"
             sodipodi:linespacing="125%"><textPath
               xlink:href="#path4756"
               id="textPath4762"
               style="font-style:normal;font-variant:normal;font-weight:normal;font-stretch:normal;font-size:40px;line-height:125%;font-family:'Marker Felt';-inkscape-font-specification:'Marker Felt';text-align:start;writing-mode:lr-tb;text-anchor:start;fill:#748a6a;fill-opacity:1;stroke:none;stroke-opacity:1">                                                        Confecciones Colombia</textPath></text>
          <path
             style="fill:#3e383c;fill-opacity:1;stroke:none;stroke-opacity:1"
             d="m 375.44505,731.67217 c -45.83885,-5.06609 -89.35685,-34.74533 -121.14253,-82.61908 -25.61532,-38.58032 -41.8683,-85.8664 -48.1245,-140.01239 -1.57468,-13.6285 -1.57468,-61.72668 0,-75.35518 9.2471,-80.03159 41.29567,-146.73188 90.05526,-187.4253 30.99153,-25.86469 70.48221,-38.98388 106.52803,-35.38966 35.9634,3.586 69.38247,20.59416 97.57788,49.66088 39.692,40.91857 65.02025,98.23693 74.0172,167.50244 2.43419,18.74027 2.44391,67.78642 0.0171,86.65846 -4.99529,38.84697 -14.95668,73.13363 -30.37671,104.55531 -37.91176,77.25356 -101.71601,119.81117 -168.55177,112.42452 z m 41.44535,-8.1869 c 66.07556,-14.27721 120.96629,-78.25378 143.17709,-166.87661 18.32269,-73.10898 12.35192,-152.63776 -16.4397,-218.9717 -27.9537,-64.40343 -74.63216,-107.3863 -129.09224,-118.87185 -12.40074,-2.6153 -36.95688,-2.37934 -49.81024,0.47863 -28.4959,6.33611 -51.93327,19.40032 -75.11996,41.87258 -43.30459,41.97027 -70.83333,105.41706 -77.53207,178.69181 -1.25928,13.77477 -1.284,49.13168 -0.0438,62.63899 5.77434,62.88922 27.13319,119.70965 60.547,161.0717 8.69136,10.75881 27.01343,28.16655 37.17803,35.32274 20.15672,14.19096 42.4203,23.36813 63.80665,26.30147 10.06909,1.38106 33.39581,0.48859 43.32923,-1.65776 z"
             id="path3599"
             inkscape:connector-curvature="0" />
          <path
             style="fill:#433f40;fill-opacity:1;stroke:none;stroke-opacity:1"
             d="m 453.93174,320.47061 c -2.84155,-3.23285 -2.96395,-5.7227 -0.407,-8.27964 2.7293,-2.7293 4.93243,-2.98153 7.89821,-0.90421 2.55277,1.78802 2.78639,6.09471 0.44508,8.20467 -2.74527,2.474 -6.24308,2.90556 -7.93629,0.97918 z"
             id="path3605"
             inkscape:connector-curvature="0" />
        </g>
        <path
           inkscape:connector-curvature="0"
           id="path3774"
           d="m 455.15866,321.28608 c -1.48006,-0.67432 -3.38358,-3.67361 -3.38358,-5.33135 0,-1.81886 2.021,-4.49748 4.11064,-5.44822 2.52805,-1.1502 5.94521,0.25949 7.05206,2.9092 0.49769,1.19143 0.45945,3.36956 -0.08,4.5573 -1.12089,2.46789 -5.45789,4.33418 -7.69911,3.31307 z"
           style="fill:#748a6a;fill-opacity:1;stroke:none;stroke-opacity:1" />
        <path
           inkscape:connector-curvature="0"
           id="path3778"
           d="m 460.24219,320.8142 c 0,-0.0471 0.43058,-0.3841 0.95683,-0.7488 2.06702,-1.43244 2.87954,-4.29973 1.87811,-6.62761 -0.58865,-1.36837 -1.09153,-1.90252 -2.59945,-2.76113 -0.58283,-0.33186 -0.89499,-0.60465 -0.69369,-0.60621 0.65715,-0.005 2.5408,1.36427 3.13706,2.28055 0.77084,1.18458 1.16856,2.77555 0.98337,3.93367 -0.22094,1.38167 -1.26408,3.12975 -2.33962,3.92072 -0.85335,0.62755 -1.32261,0.84356 -1.32261,0.60881 z"
           style="fill:#748a6a;fill-opacity:1;stroke:none;stroke-opacity:1" />
        <path
           inkscape:connector-curvature="0"
           id="path3780"
           d="m 456.77744,321.62276 0,-0.0505 0.0244,-0.002 c 0.0134,-0.001 0.0508,-0.003 0.083,-0.004 0.13654,-0.005 0.33686,-0.0236 0.50781,-0.0466 1.43595,-0.1932 3.01469,-0.9078 4.14258,-1.87509 0.2323,-0.19923 0.47257,-0.43733 0.65666,-0.65074 0.14796,-0.17152 0.29402,-0.36703 0.40797,-0.54609 0.039,-0.0613 0.12848,-0.21109 0.13168,-0.22046 5.7e-4,-0.002 0.0224,-0.003 0.0484,-0.002 l 0.0473,0.001 -0.0369,0.0664 c -0.2144,0.38586 -0.51165,0.79405 -0.75686,1.03933 -0.12149,0.12152 -0.25443,0.24121 -0.44166,0.39765 -0.75678,0.63229 -1.56507,1.12224 -2.40633,1.45859 -0.61451,0.24569 -1.24732,0.40348 -1.84367,0.45972 -0.14744,0.0139 -0.3798,0.0254 -0.51465,0.0255 l -0.0498,4e-5 0,-0.0505 z"
           style="fill:#748a6a;fill-opacity:1;stroke:none;stroke-opacity:1" />
        <path
           inkscape:connector-curvature="0"
           id="path3782"
           d="m 462.73751,318.21854 c 0.001,-0.002 0.0319,-0.0639 0.0683,-0.13691 0.0726,-0.14533 0.12901,-0.28106 0.17974,-0.43217 0.15948,-0.47501 0.25334,-1.0093 0.29333,-1.66963 0.009,-0.15147 0.009,-0.70769 -1.3e-4,-0.85626 -0.0313,-0.50492 -0.0956,-0.92557 -0.19724,-1.28992 -0.0246,-0.0883 -0.0741,-0.24548 -0.0883,-0.28036 -0.004,-0.009 0.001,-0.01 0.0618,-0.01 l 0.0657,0 0.031,0.0842 c 0.24255,0.65895 0.36452,1.47824 0.3304,2.21938 -0.0255,0.55337 -0.10686,0.99277 -0.27884,1.50536 -0.0861,0.25649 -0.17984,0.48198 -0.30271,0.72782 l -0.0711,0.14225 -0.047,0 c -0.0259,0 -0.0461,-0.002 -0.045,-0.004 z"
           style="fill:#748a6a;fill-opacity:1;stroke:none;stroke-opacity:1" />
      </g>
    </g>
  </g>
</svg>
