<?xml version="1.0" encoding="UTF-8" standalone="no"?>
<!-- Created with Inkscape (http://www.inkscape.org/) -->

<svg
   xmlns:dc="http://purl.org/dc/elements/1.1/"
   xmlns:cc="http://creativecommons.org/ns#"
   xmlns:rdf="http://www.w3.org/1999/02/22-rdf-syntax-ns#"
   xmlns:svg="http://www.w3.org/2000/svg"
   xmlns="http://www.w3.org/2000/svg"
   xmlns:sodipodi="http://sodipodi.sourceforge.net/DTD/sodipodi-0.dtd"
   xmlns:inkscape="http://www.inkscape.org/namespaces/inkscape"
   width="200.56169"
   height="289.29138"
   viewBox="0 0 200.56169 289.29139"
   id="svg3407"
   version="1.1"
   inkscape:version="0.91 r13725"
   sodipodi:docname="cc.svg">
  <defs
     id="defs3409" />
  <sodipodi:namedview
     id="base"
     pagecolor="#ffffff"
     bordercolor="#666666"
     borderopacity="1.0"
     inkscape:pageopacity="0.0"
     inkscape:pageshadow="2"
     inkscape:zoom="1.979899"
     inkscape:cx="32.722668"
     inkscape:cy="110.59309"
     inkscape:document-units="px"
     inkscape:current-layer="layer1"
     showgrid="false"
     units="px"
     inkscape:window-width="1920"
     inkscape:window-height="955"
     inkscape:window-x="0"
     inkscape:window-y="1"
     inkscape:window-maximized="1"
     fit-margin-top="0"
     fit-margin-left="0"
     fit-margin-right="0"
     fit-margin-bottom="0" />
  <metadata
     id="metadata3412">
    <rdf:RDF>
      <cc:Work
         rdf:about="">
        <dc:format>image/svg+xml</dc:format>
        <dc:type
           rdf:resource="http://purl.org/dc/dcmitype/StillImage" />
        <dc:title></dc:title>
      </cc:Work>
    </rdf:RDF>
  </metadata>
  <g
     inkscape:label="Layer 1"
     inkscape:groupmode="layer"
     id="layer1"
     transform="translate(-344.07925,-666.38591)">
    <path
       style="fill:#748a6a;fill-opacity:1;stroke:none;stroke-opacity:1"
       d="m 499.08972,705.25892 c -1.33921,-0.61016 -3.06158,-3.32401 -3.06158,-4.82401 0,-1.64575 1.82868,-4.06945 3.71945,-4.92973 2.28747,-1.04073 5.37944,0.23471 6.38095,2.63235 0.45032,1.07805 0.41573,3.04888 -0.0722,4.1236 -1.01421,2.23304 -4.93849,3.92171 -6.96642,2.99779 z"
       id="path3774"
       inkscape:connector-curvature="0" />
    <path
       style="fill:#748a6a;fill-opacity:1;stroke:none;stroke-opacity:1"
       d="m 503.68949,704.83194 c 0,-0.0424 0.38958,-0.34755 0.86577,-0.67755 1.87031,-1.29611 2.60552,-3.89054 1.69937,-5.99688 -0.53263,-1.23814 -0.98766,-1.72147 -2.35207,-2.49837 -0.52736,-0.30028 -0.80981,-0.5471 -0.62768,-0.54851 0.59461,-0.005 2.29902,1.23444 2.83852,2.06352 0.6975,1.07184 1.05736,2.5114 0.88979,3.55931 -0.19982,1.25019 -1.14377,2.8319 -2.11697,3.54761 -0.77215,0.56783 -1.19673,0.76328 -1.19673,0.55087 z"
       id="path3778"
       inkscape:connector-curvature="0" />
    <path
       style="fill:#748a6a;fill-opacity:1;stroke:none;stroke-opacity:1"
       d="m 500.55446,705.56356 0,-0.0459 0.0229,-10e-4 c 0.0132,-9.2e-4 0.0461,-0.003 0.0751,-0.003 0.12349,-0.005 0.30481,-0.0203 0.45948,-0.0423 1.29929,-0.17488 2.72781,-0.82143 3.74836,-1.69664 0.21026,-0.18023 0.42759,-0.39572 0.59417,-0.58883 0.13391,-0.15528 0.26604,-0.33211 0.36914,-0.49411 0.0355,-0.0555 0.11638,-0.19092 0.11914,-0.19957 5.3e-4,-10e-4 0.0204,-0.003 0.0438,-10e-4 l 0.0427,9e-4 -0.0333,0.0601 c -0.19399,0.34914 -0.46295,0.71848 -0.68484,0.94044 -0.10991,0.10992 -0.23012,0.21816 -0.39961,0.3598 -0.68478,0.57211 -1.41614,1.01542 -2.17733,1.31978 -0.55605,0.22223 -1.12864,0.36507 -1.66824,0.41597 -0.13338,0.0132 -0.34363,0.0229 -0.46567,0.0229 l -0.0451,5e-5 0,-0.0456 z"
       id="path3780"
       inkscape:connector-curvature="0" />
    <path
       style="fill:#748a6a;fill-opacity:1;stroke:none;stroke-opacity:1"
       d="m 505.94735,702.48329 c 8.8e-4,-10e-4 0.0287,-0.0579 0.0618,-0.12402 0.0656,-0.13166 0.1169,-0.25431 0.16267,-0.39103 0.14434,-0.4298 0.22936,-0.91324 0.26541,-1.51074 0.008,-0.13696 0.008,-0.64033 -1.1e-4,-0.77476 -0.0282,-0.45689 -0.0866,-0.83749 -0.17845,-1.16718 -0.0229,-0.08 -0.067,-0.22198 -0.08,-0.25354 -0.003,-0.008 9.2e-4,-0.0105 0.056,-0.0105 l 0.0593,0 0.0281,0.0762 c 0.21943,0.59623 0.32983,1.33755 0.29896,2.00818 -0.0229,0.50069 -0.0967,0.89827 -0.25228,1.36209 -0.0779,0.23217 -0.16266,0.43612 -0.27391,0.65856 l -0.0644,0.12876 -0.0426,0 c -0.0229,0 -0.0418,-10e-4 -0.0407,-0.003 z"
       id="path3782"
       inkscape:connector-curvature="0" />
    <path
       d="m 452.0847,730.02185 c 0.0276,-0.0132 0.0446,-0.0318 0.0807,-0.0445 -0.0298,-0.0203 -0.0552,-0.0339 -0.0807,-0.0509 -0.62205,0.0339 -0.62205,0.07 0,0.0954"
       style="fill:#ffffff;fill-opacity:1;fill-rule:nonzero;stroke:none"
       id="path734"
       inkscape:connector-curvature="0" />
    <path
       d="m 506.24375,668.6961 c -40.86635,-13.56411 -50.56439,37.17227 -91.4159,33.87094 46.22278,3.74715 51.35629,-42.92571 91.4159,-33.87094"
       style="fill:#748a6a;fill-opacity:1;fill-rule:evenodd;stroke:none"
       id="path758"
       inkscape:connector-curvature="0" />
    <path
       d="m 440.40283,667.97978 c -1.02543,0.16979 -1.73454,1.0976 -1.5753,2.06571 0.16548,0.96811 1.13158,1.61776 2.15913,1.45642 1.02968,-0.16776 1.74301,-1.0955 1.57953,-2.0721 -0.1591,-0.96598 -1.12519,-1.61776 -2.16336,-1.45003"
       style="fill:#748a6a;fill-opacity:1;fill-rule:evenodd;stroke:none"
       id="path762"
       inkscape:connector-curvature="0" />
    <path
       d="m 440.22853,674.24421 c -1.68569,0.276 -2.83851,1.78125 -2.57313,3.37139 0.25689,1.58802 1.83218,2.64531 3.51787,2.36931 1.67297,-0.26749 2.83002,-1.78547 2.56463,-3.36714 -0.25902,-1.59228 -1.83007,-2.64105 -3.50937,-2.37356"
       style="fill:#748a6a;fill-opacity:1;fill-rule:evenodd;stroke:none"
       id="path766"
       inkscape:connector-curvature="0" />
    <path
       d="m 440.40283,724.62074 c -1.02543,-0.16776 -1.73454,-1.09548 -1.5753,-2.06996 0.16548,-0.9681 1.13158,-1.61776 2.15913,-1.45216 1.02968,0.1698 1.74301,1.09125 1.57953,2.06571 -0.1591,0.97447 -1.12519,1.62412 -2.16336,1.45641"
       style="fill:#748a6a;fill-opacity:1;fill-rule:evenodd;stroke:none"
       id="path770"
       inkscape:connector-curvature="0" />
    <path
       d="m 440.22853,718.35015 c -1.68569,-0.26964 -2.83851,-1.78762 -2.57313,-3.36928 0.25689,-1.58377 1.83218,-2.64319 3.51787,-2.36505 1.67297,0.27597 2.83002,1.7876 2.56463,3.36926 -0.25902,1.58165 -1.83007,2.64104 -3.50937,2.36507"
       style="fill:#748a6a;fill-opacity:1;fill-rule:evenodd;stroke:none"
       id="path774"
       inkscape:connector-curvature="0" />
    <path
       d="m 440.03787,682.85145 c -2.35233,0.38427 -3.95947,2.49668 -3.59854,4.71101 0.35455,2.22071 2.56251,3.70683 4.91483,3.32256 2.35444,-0.38425 3.96796,-2.50518 3.6049,-4.71951 -0.36089,-2.21221 -2.56885,-3.70257 -4.92119,-3.31406"
       style="fill:#748a6a;fill-opacity:1;fill-rule:evenodd;stroke:none"
       id="path778"
       inkscape:connector-curvature="0" />
    <path
       d="m 506.93014,716.21988 c -10.29036,2.20796 -19.97143,-3.48604 -22.16238,-11.37313 -2.19523,-7.89557 2.26952,-17.10956 12.03336,-20.01813 5.86385,-1.74513 12.57688,0.70487 15.55339,6.39884 2.97224,5.69188 -1.18677,12.83591 -8.04844,14.30293 -1.10611,0.24413 -2.08057,0.22299 -2.92766,0.0254 3.18667,-0.005 5.7704,-2.45637 5.7704,-5.46896 0,-3.01472 -2.58797,-5.45832 -5.78316,-5.45832 -3.19729,0 -5.78526,2.4436 -5.78526,5.45832 0,0.90865 0.22936,1.76424 0.64964,2.51792 1.14006,3.06566 4.76198,4.92545 8.26498,4.1739 7.20135,-1.55195 11.39649,-8.05906 9.36896,-14.53221 -2.0275,-6.47101 -9.35196,-9.77446 -16.71679,-8.90189 -10.4411,1.22073 -18.23051,13.45581 -13.7212,23.65703 4.51571,10.19907 13.93564,13.82095 24.73976,11.48561 14.4112,-3.0975 21.94587,-17.09045 18.74433,-29.04742 -2.75149,-10.27338 -11.72768,-17.41527 -25.95202,-18.0543 -32.50585,-2.63471 -43.89595,39.05756 -81.04276,36.05982 44.4628,3.60492 50.91046,-39.44819 86.99151,-34.65648 8.96133,2.18884 15.22006,7.32023 17.86537,15.76141 3.86605,12.32 -4.12083,24.70581 -17.84203,27.66956"
       style="fill:#748a6a;fill-opacity:1;fill-rule:evenodd;stroke:none"
       id="path782"
       inkscape:connector-curvature="0" />
    <path
       d="m 375.14613,668.6961 c 40.85577,-13.56411 50.56867,37.17227 91.41805,33.87094 -46.22917,3.74715 -51.36266,-42.92571 -91.41805,-33.87094"
       style="fill:#748a6a;fill-opacity:1;fill-rule:evenodd;stroke:none"
       id="path786"
       inkscape:connector-curvature="0" />
    <path
       d="m 374.45593,716.21988 c 10.2925,2.20796 19.96506,-3.48604 22.16455,-11.37313 2.20368,-7.89557 -2.26317,-17.10956 -12.02492,-20.01813 -5.87444,-1.74513 -12.58324,0.70487 -15.564,6.39884 -2.96162,5.69188 1.18679,12.83591 8.04844,14.30293 1.1125,0.24413 2.08483,0.22299 2.92768,0.0254 -3.18667,-0.005 -5.77042,-2.45637 -5.77042,-5.46896 0,-3.01472 2.588,-5.45832 5.78316,-5.45832 3.19729,0 5.78741,2.4436 5.78741,5.45832 0,0.90865 -0.23981,1.76424 -0.65177,2.51792 -1.13795,3.06566 -4.75985,4.92545 -8.265,4.1739 -7.20135,-1.55195 -11.39857,-8.05906 -9.36685,-14.53221 2.02539,-6.47101 9.34988,-9.77446 16.72741,-8.90189 10.43476,1.22073 18.22417,13.45581 13.71272,23.65703 -4.51145,10.19907 -13.93986,13.82095 -24.74401,11.48561 -14.4048,-3.0975 -21.93948,-17.09045 -18.73794,-29.04742 2.7451,-10.27338 11.7234,-17.41527 25.95413,-18.0543 32.49737,-2.63471 43.88534,39.05756 81.04914,36.05982 -44.47766,3.60492 -50.92321,-39.44819 -87.00635,-34.65648 -8.95924,2.18884 -15.20946,7.32023 -17.8654,15.76141 -3.86603,12.32 4.12082,24.70581 17.84202,27.66956"
       style="fill:#748a6a;fill-opacity:1;fill-rule:evenodd;stroke:none"
       id="path790"
       inkscape:connector-curvature="0" />
    <path
       d="m 380.70007,953.36712 c 40.86638,13.5641 50.56441,-37.17231 91.41804,-33.87096 -46.22492,-3.74719 -51.35843,42.92576 -91.41804,33.87096"
       style="fill:#748a6a;fill-opacity:1;fill-rule:evenodd;stroke:none"
       id="path794"
       inkscape:connector-curvature="0" />
    <path
       d="m 446.54122,954.08342 c 1.02544,-0.1698 1.73666,-1.0976 1.57529,-2.0658 -0.16344,-0.968 -1.13156,-1.6177 -2.15913,-1.4542 -1.02966,0.1657 -1.743,1.0934 -1.57953,2.07 0.15937,0.966 1.12734,1.6177 2.16337,1.45"
       style="fill:#748a6a;fill-opacity:1;fill-rule:evenodd;stroke:none"
       id="path798"
       inkscape:connector-curvature="0" />
    <path
       d="m 446.71532,947.81902 c 1.68569,-0.276 2.84062,-1.7813 2.57313,-3.3714 -0.25689,-1.5881 -1.83221,-2.6454 -3.51788,-2.3694 -1.67296,0.2675 -2.82789,1.7855 -2.56465,3.3672 0.25902,1.5923 1.83007,2.6411 3.5094,2.3736"
       style="fill:#748a6a;fill-opacity:1;fill-rule:evenodd;stroke:none"
       id="path802"
       inkscape:connector-curvature="0" />
    <path
       d="m 446.54122,897.44244 c 1.02544,0.16776 1.73666,1.09549 1.57529,2.07208 -0.16344,0.966 -1.13156,1.61564 -2.15913,1.45005 -1.02966,-0.16979 -1.743,-1.09124 -1.57953,-2.06571 0.15937,-0.9745 1.12734,-1.62415 2.16337,-1.45642"
       style="fill:#748a6a;fill-opacity:1;fill-rule:evenodd;stroke:none"
       id="path806"
       inkscape:connector-curvature="0" />
    <path
       d="m 446.71532,903.71304 c 1.68569,0.26963 2.84062,1.7876 2.57313,3.36925 -0.25689,1.5838 -1.83221,2.6432 -3.51788,2.36508 -1.67296,-0.27599 -2.82789,-1.7876 -2.56465,-3.36926 0.25902,-1.58167 1.83007,-2.64107 3.5094,-2.36507"
       style="fill:#748a6a;fill-opacity:1;fill-rule:evenodd;stroke:none"
       id="path810"
       inkscape:connector-curvature="0" />
    <path
       d="m 446.90595,939.21174 c 2.35447,-0.38426 3.95947,-2.49671 3.60069,-4.71103 -0.35667,-2.22069 -2.56464,-3.70681 -4.91695,-3.32255 -2.35447,0.38427 -3.96586,2.50519 -3.60493,4.71952 0.36091,2.2122 2.57101,3.70258 4.92119,3.31406"
       style="fill:#748a6a;fill-opacity:1;fill-rule:evenodd;stroke:none"
       id="path814"
       inkscape:connector-curvature="0" />
    <path
       d="m 380.01368,905.84351 c 10.2925,-2.20795 19.97356,3.48602 22.16455,11.37312 2.19521,7.89559 -2.26955,17.10957 -12.03553,20.01812 -5.86383,1.74514 -12.57688,-0.70484 -15.55339,-6.39883 -2.97012,-5.69186 1.1868,-12.83589 8.04847,-14.30289 1.10608,-0.24413 2.08054,-0.223 2.92766,-0.0254 -3.18669,0.005 -5.77043,2.45637 -5.77043,5.46895 0,3.01472 2.588,5.45833 5.78316,5.45833 3.19729,0 5.7874,-2.44361 5.7874,-5.45833 0,-0.90867 -0.23139,-1.76426 -0.65176,-2.51791 -1.13795,-3.06567 -4.75985,-4.92547 -8.265,-4.17177 -7.20133,1.5498 -11.39646,8.05691 -9.36685,14.53218 2.02539,6.47104 9.34988,9.77234 16.71468,8.90189 10.44323,-1.22285 18.23266,-13.45793 13.7212,-23.65913 -4.51356,-10.19908 -13.93561,-13.82099 -24.73976,-11.48565 -14.4112,3.09754 -21.94584,17.09048 -18.74218,29.04741 2.74934,10.27342 11.72764,17.41532 25.95201,18.05432 32.50373,2.6346 43.89383,-39.05751 81.04277,-36.05979 -44.46493,-3.6049 -50.9126,39.44809 -86.99364,34.65639 -8.95921,-2.1888 -15.21795,-7.318 -17.86536,-15.76134 -3.86606,-12.32 4.1208,-24.70579 17.842,-27.66956"
       style="fill:#748a6a;fill-opacity:1;fill-rule:evenodd;stroke:none"
       id="path818"
       inkscape:connector-curvature="0" />
    <path
       d="m 511.79769,953.36712 c -40.85363,13.5641 -50.56864,-37.17231 -91.41591,-33.87096 46.22703,-3.74719 51.36268,42.92576 91.41591,33.87096"
       style="fill:#748a6a;fill-opacity:1;fill-rule:evenodd;stroke:none"
       id="path822"
       inkscape:connector-curvature="0" />
    <path
       d="m 512.48812,905.84351 c -10.29037,-2.20795 -19.96507,3.48602 -22.16241,11.37312 -2.2037,7.89559 2.26315,17.10957 12.02488,20.01812 5.87445,1.74514 12.58114,-0.70484 15.56188,-6.39883 2.96376,-5.69186 -1.18678,-12.83589 -8.04845,-14.30289 -1.11246,-0.24413 -2.08482,-0.223 -2.92766,-0.0254 3.18668,0.005 5.77043,2.45637 5.77043,5.46895 0,3.01472 -2.588,5.45833 -5.78316,5.45833 -3.19729,0 -5.7853,-2.44361 -5.7853,-5.45833 0,-0.90867 0.23777,-1.76426 0.64968,-2.51791 1.14006,-3.06567 4.76197,-4.92547 8.26709,-4.17177 7.20136,1.5498 11.39649,8.05691 9.36686,14.53218 -2.0275,6.47104 -9.35199,9.77234 -16.72956,8.90189 -10.43261,-1.22285 -18.22204,-13.45793 -13.7127,-23.65913 4.51357,-10.19908 13.93987,-13.82099 24.74401,-11.48565 14.40483,3.09754 21.93949,17.09048 18.74005,29.04741 -2.74719,10.27342 -11.7234,17.41532 -25.95413,18.05432 -32.49733,2.6346 -43.88744,-39.05751 -81.05124,-36.05979 44.47765,-3.6049 50.9232,39.44809 87.0085,34.65639 8.95922,-2.1888 15.20942,-7.318 17.86323,-15.76134 3.86606,-12.32 -4.12081,-24.70579 -17.842,-27.66956"
       style="fill:#748a6a;fill-opacity:1;fill-rule:evenodd;stroke:none"
       id="path826"
       inkscape:connector-curvature="0" />
    <g
       transform="matrix(1.5782789,0,0,1.5782789,-152.73051,-117.631)"
       id="g4868">
      <g
         id="g1646"
         transform="matrix(1.25,0,0,-1.25,397.97416,591.12964)">
        <path
           inkscape:connector-curvature="0"
           id="path1648"
           style="fill:#3e383c;fill-opacity:1;fill-rule:evenodd;stroke:none"
           d="m 0,0 c -2.209,-4.6 -4.728,-9.054 -7.122,-13.563 -0.514,-0.963 -1.227,-1.391 -2.436,-1.386 -13.382,0.053 -26.769,0.03 -40.154,0.031 -0.135,0 -0.613,0.002 -1.179,0.004 0.145,0.965 0.25,3.948 0.25,4.149 l 0,5.583 1.056,0 0,-0.611 c 0,-0.133 0.105,-0.24 0.238,-0.24 0.132,0 0.24,0.107 0.24,0.24 l 0,0.613 c 0.128,0.004 0.228,0.07 0.228,0.155 0,0.082 -0.1,0.148 -0.228,0.153 l 0,0.661 c 0,0.131 -0.108,0.239 -0.24,0.239 -0.133,0 -0.238,-0.108 -0.238,-0.239 l 0,-0.66 -1.056,0 0,3.665 0,0.002 c 0.049,0.005 0.096,0.007 0.136,0.014 0.934,0.122 1.855,0.415 2.649,0.851 1.944,1.07 2.627,3.056 3.141,5.029 0.657,2.537 1.135,5.12 1.698,7.681 0.559,2.532 2.332,3.898 4.624,4.72 3.067,1.101 6.288,1.49 9.49,1.382 6.401,-0.214 12.795,-0.701 19.19,-1.077 1.608,-0.098 3.212,-0.23 4.816,-0.29 C -0.114,16.933 2.575,14.139 2.431,9.375 2.329,6.076 1.401,2.921 0,0 m 19.367,19.193 2.22,0 0,-2.997 c -0.002,-2.957 1.517,-3.887 4.354,-2.39 l 0,-8.952 -2.913,0 c 0,0.966 0.014,1.86 -0.005,2.752 -0.026,1.474 -0.499,1.94 -1.996,1.987 -0.936,0.026 -1.876,0.033 -2.813,0.052 -0.036,0.001 -0.072,0.037 -0.246,0.131 0.451,3.046 0.913,6.15 1.399,9.417 m 15.427,-38.839 c 0,0.457 -0.159,0.925 -0.296,1.375 -0.642,2.099 -2.005,3.245 -4.182,3.301 -3.137,0.08 -6.279,0.127 -9.416,0.02 -1.595,-0.054 -2.65,0.621 -3.399,1.84 -0.548,0.887 -1.07,2.111 -1.248,2.874 -0.453,1.938 -0.642,5.954 -0.525,7.94 0.126,2.153 0.742,5.722 1.137,8.553 l 3.555,0 C 20.12,5.611 20.025,4.98 19.66,4.706 19.038,4.236 18.53,3.771 18.763,2.982 19.008,2.146 19.652,1.776 20.56,1.788 c 2.08,0.029 4.16,0.008 6.242,0.006 l 5.645,0 0,-1.89 c 0,-0.606 0.529,-1.096 1.184,-1.096 0.655,0 1.187,0.49 1.187,1.096 l 0,0.875 c 0.057,1.88 0.038,3.765 0.012,5.649 0,0.049 -0.008,0.094 -0.012,0.141 l 0,0.488 c 0,0.605 -0.532,1.097 -1.187,1.097 -0.655,0 -1.184,-0.492 -1.184,-1.097 l 0,-2.203 C 32.328,4.69 31.013,4.617 30.858,4.652 l 0,2.263 c 0.003,0.026 0.01,0.054 0.01,0.08 0.012,10.52 0.004,21.041 0,31.561 0,0.431 0.021,0.867 -0.03,1.294 -0.167,1.419 -1.121,2.217 -2.567,2.183 -1.365,-0.033 -2.388,-0.969 -2.419,-2.354 -0.049,-2.197 -0.014,-4.395 -0.025,-6.595 0,-0.326 -0.053,-0.65 -0.083,-0.977 -0.035,0.12 -0.07,0.238 -0.102,0.356 -0.958,0.026 -2.009,0.309 -2.849,0.01 -1.027,-0.37 -1.234,-1.512 -1.206,-2.594 C 21.608,29 21.59,28.118 21.59,27.212 l -3.483,0 c -1.841,4.23 -5.377,5.511 -9.496,5.898 -0.005,0.103 -0.038,0.203 -0.094,0.295 0.344,0.058 0.674,0.086 0.999,0.155 0.017,0.005 0.04,0.013 0.058,0.018 l 0.088,0 c 0.534,0 0.968,0.435 0.968,0.968 0,0.535 -0.434,0.967 -0.968,0.967 l -0.349,0 0,4.097 c 0.025,0.026 0.055,0.052 0.083,0.078 l 0.266,0 c 0.534,0 0.968,0.434 0.968,0.969 0,0.534 -0.434,0.968 -0.968,0.968 l -1.465,0 c -0.484,0.74 -0.792,1.214 -1.1,1.687 C 6.79,42.841 6.482,42.373 6.012,41.654 5.759,41.654 5.17,41.714 4.596,41.642 4.421,41.62 4.278,41.551 4.157,41.46 4.156,41.46 4.154,41.458 4.152,41.458 4.121,41.434 4.094,41.412 4.062,41.386 3.86,41.206 3.729,40.949 3.729,40.657 c 0,-0.535 0.431,-0.969 0.966,-0.969 l 0.009,0 C 4.726,39.671 4.753,39.657 4.771,39.638 4.924,39.465 4.883,39.163 4.883,39.1 l 0,-3.006 c 0,-0.278 0.007,-0.457 -0.139,-0.581 l -0.049,0 c -0.535,0 -0.966,-0.432 -0.966,-0.967 0,-0.533 0.431,-0.968 0.966,-0.968 l 0.023,0 C 4.749,33.569 4.776,33.555 4.809,33.547 5.129,33.474 5.462,33.451 5.794,33.438 5.718,33.332 5.673,33.213 5.67,33.091 -1.812,31.876 -9.295,30.665 -16.807,29.445 c 0,0 -0.192,-0.029 -0.528,-0.081 l 0,8.512 c 0,0.239 -0.192,0.433 -0.431,0.433 -0.239,0 -0.431,-0.194 -0.431,-0.433 l 0,-8.644 c -3.006,-0.45 -10.123,-1.443 -13.642,-1.308 -1.961,0.074 -3.84,0.367 -5.467,1.717 -1.773,1.474 -3.669,2.804 -5.578,4.102 -2.278,1.552 -4.363,2.92 -7.661,2.434 l 0,5.079 c 0,0.237 -0.193,0.431 -0.432,0.431 -0.237,0 -0.432,-0.194 -0.432,-0.431 l 0,-5.213 c -0.283,-0.046 -0.577,-0.098 -0.834,-0.151 -2.788,-0.596 -1.507,-2.617 -1.939,-4.11 -1.292,0.533 -1.641,1.172 -1.143,2.094 -0.358,-0.063 -0.718,-0.122 -1.074,-0.196 -0.282,-0.059 -0.735,-0.071 -0.794,-0.227 -0.101,-0.258 0.008,-0.63 0.109,-0.928 0.068,-0.201 0.172,-0.465 0.272,-0.595 0.135,-0.171 0.544,-0.483 0.651,-0.582 0,0 2.15,-1.704 2.106,-3.378 -0.122,-4.661 -0.039,-9.327 -0.039,-13.993 l 0,-0.804 -2.041,2.011 c -0.083,0.081 -0.204,0.105 -0.312,0.06 -0.108,-0.044 -0.177,-0.149 -0.177,-0.264 l 0,-1.417 c -0.003,0 -0.006,0.002 -0.008,0.002 -0.501,0 -0.91,-0.409 -0.91,-0.911 l 0,-3.843 c 0,-0.501 0.409,-0.91 0.91,-0.91 l 0.008,0 0,-1.7 c 0,-0.118 0.072,-0.223 0.181,-0.267 0.034,-0.014 0.071,-0.021 0.106,-0.021 0.076,0 0.153,0.029 0.209,0.089 l 2.016,2.108 c 0.007,-1.532 0.018,-4.771 0.008,-6.441 -10e-4,-0.268 -0.23,-0.617 -0.38,-0.77 -0.055,-0.055 -0.176,-0.134 -0.215,-0.231 -0.042,-0.094 10e-4,-0.33 0.072,-0.401 0.041,-0.043 0.145,-0.117 0.289,-0.228 0.236,-0.183 1.114,-0.945 2.112,-1.163 0.224,-0.048 0.572,-0.08 0.915,-0.09 l 0,-7.295 c -0.021,0.003 -0.039,0.009 -0.062,0.009 l -1.113,0 0,0.61 c 0,0.133 -0.106,0.24 -0.24,0.24 -0.132,0 -0.24,-0.107 -0.24,-0.24 l 0,-0.612 c -0.127,-0.005 -0.226,-0.073 -0.226,-0.156 0,-0.083 0.099,-0.149 0.226,-0.154 l 0,-0.659 c 0,-0.133 0.108,-0.24 0.24,-0.24 0.134,0 0.24,0.107 0.24,0.24 l 0,0.659 1.113,0 c 0.023,0 0.041,0.003 0.062,0.006 l 0,-1.959 c 0,-0.201 0.106,-3.184 0.248,-4.149 -1.022,10e-4 -2.23,0.003 -2.23,0.003 -4.437,0 -3.809,0.016 -8.244,-0.003 -2.674,-0.012 -4.611,-1.88 -4.682,-4.559 -0.071,-2.782 -0.044,-5.569 -0.086,-8.355 -0.044,-2.84 1.796,-5.385 5.429,-5.346 13.307,0.137 21.547,0.042 34.855,0.058 11.774,0.012 23.548,0.066 35.323,0.074 6.827,0.003 13.654,-0.06 20.48,-0.071 2.822,-0.003 4.617,1.361 4.871,4.192 0.276,3.071 0.133,6.182 0.141,9.275" />
      </g>
      <g
         id="g1650"
         transform="matrix(1.25,0,0,-1.25,397.97416,591.12964)">
        <path
           inkscape:connector-curvature="0"
           id="path1652"
           style="fill:none;stroke:#3e383c;stroke-width:0.5;stroke-linecap:round;stroke-linejoin:round;stroke-miterlimit:10;stroke-dasharray:none;stroke-opacity:1"
           d="m 0,0 c -2.209,-4.6 -4.728,-9.054 -7.122,-13.563 -0.514,-0.963 -1.227,-1.391 -2.436,-1.386 -13.382,0.053 -26.769,0.03 -40.154,0.031 -0.135,0 -0.613,0.002 -1.179,0.004 0.145,0.965 0.25,3.948 0.25,4.149 l 0,5.583 1.056,0 0,-0.611 c 0,-0.133 0.105,-0.24 0.238,-0.24 0.132,0 0.24,0.107 0.24,0.24 l 0,0.613 c 0.128,0.004 0.228,0.07 0.228,0.155 0,0.082 -0.1,0.148 -0.228,0.153 l 0,0.661 c 0,0.131 -0.108,0.239 -0.24,0.239 -0.133,0 -0.238,-0.108 -0.238,-0.239 l 0,-0.66 -1.056,0 0,3.665 0,0.002 c 0.049,0.005 0.096,0.007 0.136,0.014 0.934,0.122 1.855,0.415 2.649,0.851 1.944,1.07 2.627,3.056 3.141,5.029 0.657,2.537 1.135,5.12 1.698,7.681 0.559,2.532 2.332,3.898 4.624,4.72 3.067,1.101 6.288,1.49 9.49,1.382 6.401,-0.214 12.795,-0.701 19.19,-1.077 1.608,-0.098 3.212,-0.23 4.816,-0.29 C -0.114,16.933 2.575,14.139 2.431,9.375 2.329,6.076 1.401,2.921 0,0 Z m 19.367,19.193 2.22,0 0,-2.997 c -0.002,-2.957 1.517,-3.887 4.354,-2.39 l 0,-8.952 -2.913,0 c 0,0.966 0.014,1.86 -0.005,2.752 -0.026,1.474 -0.499,1.94 -1.996,1.987 -0.936,0.026 -1.876,0.033 -2.813,0.052 -0.036,0.001 -0.072,0.037 -0.246,0.131 0.451,3.046 0.913,6.15 1.399,9.417 z m 15.427,-38.839 c 0,0.457 -0.159,0.925 -0.296,1.375 -0.642,2.099 -2.005,3.245 -4.182,3.301 -3.137,0.08 -6.279,0.127 -9.416,0.02 -1.595,-0.054 -2.65,0.621 -3.399,1.84 -0.548,0.887 -1.07,2.111 -1.248,2.874 -0.453,1.938 -0.642,5.954 -0.525,7.94 0.126,2.153 0.742,5.722 1.137,8.553 l 3.555,0 C 20.12,5.611 20.025,4.98 19.66,4.706 19.038,4.236 18.53,3.771 18.763,2.982 19.008,2.146 19.652,1.776 20.56,1.788 c 2.08,0.029 4.16,0.008 6.242,0.006 l 5.645,0 0,-1.89 c 0,-0.606 0.529,-1.096 1.184,-1.096 0.655,0 1.187,0.49 1.187,1.096 l 0,0.875 c 0.057,1.88 0.038,3.765 0.012,5.649 0,0.049 -0.008,0.094 -0.012,0.141 l 0,0.488 c 0,0.605 -0.532,1.097 -1.187,1.097 -0.655,0 -1.184,-0.492 -1.184,-1.097 l 0,-2.203 C 32.328,4.69 31.013,4.617 30.858,4.652 l 0,2.263 c 0.003,0.026 0.01,0.054 0.01,0.08 0.012,10.52 0.004,21.041 0,31.561 0,0.431 0.021,0.867 -0.03,1.294 -0.167,1.419 -1.121,2.217 -2.567,2.183 -1.365,-0.033 -2.388,-0.969 -2.419,-2.354 -0.049,-2.197 -0.014,-4.395 -0.025,-6.595 0,-0.326 -0.053,-0.65 -0.083,-0.977 -0.035,0.12 -0.07,0.238 -0.102,0.356 -0.958,0.026 -2.009,0.309 -2.849,0.01 -1.027,-0.37 -1.234,-1.512 -1.206,-2.594 C 21.608,29 21.59,28.118 21.59,27.212 l -3.483,0 c -1.841,4.23 -5.377,5.511 -9.496,5.898 -0.005,0.103 -0.038,0.203 -0.094,0.295 0.344,0.058 0.674,0.086 0.999,0.155 0.017,0.005 0.04,0.013 0.058,0.018 l 0.088,0 c 0.534,0 0.968,0.435 0.968,0.968 0,0.535 -0.434,0.967 -0.968,0.967 l -0.349,0 0,4.097 c 0.025,0.026 0.055,0.052 0.083,0.078 l 0.266,0 c 0.534,0 0.968,0.434 0.968,0.969 0,0.534 -0.434,0.968 -0.968,0.968 l -1.465,0 c -0.484,0.74 -0.792,1.214 -1.1,1.687 C 6.79,42.841 6.482,42.373 6.012,41.654 5.759,41.654 5.17,41.714 4.596,41.642 4.421,41.62 4.278,41.551 4.157,41.46 4.156,41.46 4.154,41.458 4.152,41.458 4.121,41.434 4.094,41.412 4.062,41.386 3.86,41.206 3.729,40.949 3.729,40.657 c 0,-0.535 0.431,-0.969 0.966,-0.969 l 0.009,0 C 4.726,39.671 4.753,39.657 4.771,39.638 4.924,39.465 4.883,39.163 4.883,39.1 l 0,-3.006 c 0,-0.278 0.007,-0.457 -0.139,-0.581 l -0.049,0 c -0.535,0 -0.966,-0.432 -0.966,-0.967 0,-0.533 0.431,-0.968 0.966,-0.968 l 0.023,0 C 4.749,33.569 4.776,33.555 4.809,33.547 5.129,33.474 5.462,33.451 5.794,33.438 5.718,33.332 5.673,33.213 5.67,33.091 -1.812,31.876 -9.295,30.665 -16.807,29.445 c 0,0 -0.192,-0.029 -0.528,-0.081 l 0,8.512 c 0,0.239 -0.192,0.433 -0.431,0.433 -0.239,0 -0.431,-0.194 -0.431,-0.433 l 0,-8.644 c -3.006,-0.45 -10.123,-1.443 -13.642,-1.308 -1.961,0.074 -3.84,0.367 -5.467,1.717 -1.773,1.474 -3.669,2.804 -5.578,4.102 -2.278,1.552 -4.363,2.92 -7.661,2.434 l 0,5.079 c 0,0.237 -0.193,0.431 -0.432,0.431 -0.237,0 -0.432,-0.194 -0.432,-0.431 l 0,-5.213 c -0.283,-0.046 -0.577,-0.098 -0.834,-0.151 -2.788,-0.596 -1.507,-2.617 -1.939,-4.11 -1.292,0.533 -1.641,1.172 -1.143,2.094 -0.358,-0.063 -0.718,-0.122 -1.074,-0.196 -0.282,-0.059 -0.735,-0.071 -0.794,-0.227 -0.101,-0.258 0.008,-0.63 0.109,-0.928 0.068,-0.201 0.172,-0.465 0.272,-0.595 0.135,-0.171 0.544,-0.483 0.651,-0.582 0,0 2.15,-1.704 2.106,-3.378 -0.122,-4.661 -0.039,-9.327 -0.039,-13.993 l 0,-0.804 -2.041,2.011 c -0.083,0.081 -0.204,0.105 -0.312,0.06 -0.108,-0.044 -0.177,-0.149 -0.177,-0.264 l 0,-1.417 c -0.003,0 -0.006,0.002 -0.008,0.002 -0.501,0 -0.91,-0.409 -0.91,-0.911 l 0,-3.843 c 0,-0.501 0.409,-0.91 0.91,-0.91 l 0.008,0 0,-1.7 c 0,-0.118 0.072,-0.223 0.181,-0.267 0.034,-0.014 0.071,-0.021 0.106,-0.021 0.076,0 0.153,0.029 0.209,0.089 l 2.016,2.108 c 0.007,-1.532 0.018,-4.771 0.008,-6.441 -10e-4,-0.268 -0.23,-0.617 -0.38,-0.77 -0.055,-0.055 -0.176,-0.134 -0.215,-0.231 -0.042,-0.094 10e-4,-0.33 0.072,-0.401 0.041,-0.043 0.145,-0.117 0.289,-0.228 0.236,-0.183 1.114,-0.945 2.112,-1.163 0.224,-0.048 0.572,-0.08 0.915,-0.09 l 0,-7.295 c -0.021,0.003 -0.039,0.009 -0.062,0.009 l -1.113,0 0,0.61 c 0,0.133 -0.106,0.24 -0.24,0.24 -0.132,0 -0.24,-0.107 -0.24,-0.24 l 0,-0.612 c -0.127,-0.005 -0.226,-0.073 -0.226,-0.156 0,-0.083 0.099,-0.149 0.226,-0.154 l 0,-0.659 c 0,-0.133 0.108,-0.24 0.24,-0.24 0.134,0 0.24,0.107 0.24,0.24 l 0,0.659 1.113,0 c 0.023,0 0.041,0.003 0.062,0.006 l 0,-1.959 c 0,-0.201 0.106,-3.184 0.248,-4.149 -1.022,10e-4 -2.23,0.003 -2.23,0.003 -4.437,0 -3.809,0.016 -8.244,-0.003 -2.674,-0.012 -4.611,-1.88 -4.682,-4.559 -0.071,-2.782 -0.044,-5.569 -0.086,-8.355 -0.044,-2.84 1.796,-5.385 5.429,-5.346 13.307,0.137 21.547,0.042 34.855,0.058 11.774,0.012 23.548,0.066 35.323,0.074 6.827,0.003 13.654,-0.06 20.48,-0.071 2.822,-0.003 4.617,1.361 4.871,4.192 0.276,3.071 0.133,6.182 0.141,9.275 z" />
      </g>
      <g
         id="g1654"
         transform="matrix(1.25,0,0,-1.25,337.68116,548.33364)">
        <path
           inkscape:connector-curvature="0"
           id="path1656"
           style="fill:#ffffff;fill-opacity:1;fill-rule:nonzero;stroke:none"
           d="m 0,0 c 5.011,-0.854 7.571,-5.669 12.203,-7.312 4.279,-1.517 8.897,-1.045 13.323,-0.398 11.73,1.712 24.896,6.931 36.453,2.555 0.193,-0.073 0.296,0.219 0.135,0.322 -8.7,5.543 -21.939,0.142 -31.059,-1.28 -6.6,-1.029 -13.848,-2.975 -20.162,0.082 C 6.99,-4.142 4.561,-0.439 0.013,0.092 -0.04,0.099 -0.052,0.009 0,0" />
      </g>
      <g
         id="g1658"
         transform="matrix(1.25,0,0,-1.25,332.33941,557.86063)">
        <path
           inkscape:connector-curvature="0"
           id="path1660"
           style="fill:#ffffff;fill-opacity:1;fill-rule:nonzero;stroke:none"
           d="m 0,0 c -0.721,-7.516 -0.491,-15.469 -0.059,-23.003 0.01,-0.166 0.248,-0.166 0.258,0 C 0.632,-15.469 0.862,-7.516 0.141,0 0.132,0.09 0.009,0.09 0,0" />
      </g>
      <g
         id="g1662"
         transform="matrix(1.25,0,0,-1.25,399.13991,570.40214)">
        <path
           inkscape:connector-curvature="0"
           id="path1664"
           style="fill:#ffffff;fill-opacity:1;fill-rule:nonzero;stroke:none"
           d="m 0,0 c 6.228,-8.185 -0.866,-14.901 -1.981,-23.227 -0.024,-0.177 0.25,-0.234 0.327,-0.088 3.011,5.676 8.755,18.599 1.83,23.491 C 0.074,0.249 -0.078,0.103 0,0" />
      </g>
      <g
         id="g1666"
         transform="matrix(1.25,0,0,-1.25,421.27979,558.25676)">
        <path
           inkscape:connector-curvature="0"
           id="path1668"
           style="fill:#ffffff;fill-opacity:1;fill-rule:nonzero;stroke:none"
           d="m 0,0 c 0.546,-0.206 1.107,-0.211 1.685,-0.273 0.51,-0.055 1.14,-0.22 1.542,0.177 C 3.279,-0.044 3.3,0.054 3.254,0.117 2.945,0.543 2.41,0.526 1.917,0.504 1.269,0.476 0.611,0.479 0,0.249 -0.123,0.203 -0.123,0.046 0,0" />
      </g>
      <g
         id="g1670"
         transform="matrix(1.25,0,0,-1.25,426.14554,555.23363)">
        <path
           inkscape:connector-curvature="0"
           id="path1672"
           style="fill:#ffffff;fill-opacity:1;fill-rule:nonzero;stroke:none"
           d="m 0,0 c 0.08,0.487 0.109,0.986 0.206,1.469 0.05,0.248 0.143,0.487 0.31,0.679 0.178,0.207 0.442,0.24 0.63,0.425 C 1.241,2.668 1.183,2.803 1.073,2.848 0.489,3.082 0.018,2.384 -0.116,1.912 -0.296,1.279 -0.156,0.629 -0.045,0 -0.041,-0.022 -0.003,-0.022 0,0" />
      </g>
      <g
         id="g1674"
         transform="matrix(1.25,0,0,-1.25,431.75404,550.50651)">
        <path
           inkscape:connector-curvature="0"
           id="path1676"
           style="fill:#ffffff;fill-opacity:1;fill-rule:nonzero;stroke:none"
           d="M 0,0 C 0.528,0.977 0.462,2.244 0.446,3.334 0.428,4.6 0.517,6.002 0.103,7.208 0.033,7.409 -0.235,7.409 -0.305,7.208 -0.723,5.991 -0.604,4.609 -0.648,3.334 -0.686,2.254 -0.725,0.967 -0.202,0 -0.161,-0.076 -0.041,-0.076 0,0" />
      </g>
      <g
         id="g1678"
         transform="matrix(1.25,0,0,-1.25,431.31467,574.32126)">
        <path
           inkscape:connector-curvature="0"
           id="path1680"
           style="fill:#ffffff;fill-opacity:1;fill-rule:nonzero;stroke:none"
           d="m 0,0 c -0.458,-0.394 -0.399,-1.016 -0.399,-1.575 0,-0.853 0.264,-1.594 0.4,-2.428 0.01,-0.057 0.104,-0.057 0.114,0 0.117,0.717 0.4,1.396 0.4,2.129 C 0.515,-1.247 0.64,-0.451 0.116,0 0.08,0.031 0.036,0.031 0,0" />
      </g>
      <g
         id="g1682"
         transform="matrix(1.25,0,0,-1.25,422.59029,579.99438)">
        <path
           inkscape:connector-curvature="0"
           id="path1684"
           style="fill:#ffffff;fill-opacity:1;fill-rule:nonzero;stroke:none"
           d="m 0,0 c 0.56,-0.246 1.201,-0.107 1.754,-0.433 0.638,-0.375 0.601,-1.173 0.7,-1.818 0.013,-0.086 0.135,-0.07 0.158,0 0.234,0.71 0.163,1.579 -0.441,2.092 C 1.68,0.259 0.574,0.387 0,0.142 -0.054,0.119 -0.053,0.023 0,0" />
      </g>
      <g
         id="g1686"
         transform="matrix(1.25,0,0,-1.25,439.57141,584.49638)">
        <path
           inkscape:connector-curvature="0"
           id="path1688"
           style="fill:#ffffff;fill-opacity:1;fill-rule:nonzero;stroke:none"
           d="M 0,0 C 0.495,0.43 -0.157,1.548 0.565,1.745 1.101,1.891 1.007,2.765 0.432,2.73 -0.236,2.689 -0.564,2.188 -0.615,1.565 -0.649,1.152 -0.593,0.28 -0.249,0 -0.17,-0.063 -0.078,-0.067 0,0" />
      </g>
      <g
         id="g1690"
         transform="matrix(1.25,0,0,-1.25,403.00354,540.41676)">
        <path
           inkscape:connector-curvature="0"
           id="path1692"
           style="fill:#ffffff;fill-opacity:1;fill-rule:nonzero;stroke:none"
           d="M 0,0 C 0.639,-0.144 1.474,-0.154 2.082,0.122 2.767,0.433 3.145,1.085 3.472,1.73 3.624,2.029 3.216,2.261 3.026,1.991 2.701,1.526 2.345,1.017 1.777,0.845 1.203,0.671 0.58,0.775 0,0.648 -0.322,0.577 -0.32,0.072 0,0" />
      </g>
      <g
         id="g1694"
         transform="matrix(1.25,0,0,-1.25,404.72716,542.01101)">
        <path
           inkscape:connector-curvature="0"
           id="path1696"
           style="fill:#ffffff;fill-opacity:1;fill-rule:nonzero;stroke:none"
           d="m 0,0 c -0.242,-0.408 -0.152,-0.959 -0.162,-1.421 -0.015,-0.623 -0.012,-1.243 -0.008,-1.865 0.003,-0.408 0.635,-0.408 0.633,0 C 0.459,-2.658 0.406,-2.045 0.339,-1.421 0.29,-0.959 0.348,-0.403 0.102,0 0.079,0.037 0.023,0.038 0,0" />
      </g>
      <g
         id="g1698"
         transform="matrix(1.25,0,0,-1.25,407.71604,570.35213)">
        <path
           inkscape:connector-curvature="0"
           id="path1700"
           style="fill:#ffffff;fill-opacity:1;fill-rule:nonzero;stroke:none"
           d="m 0,0 c -1.122,0.717 -1.375,2.674 -0.776,3.78 0.482,0.889 1.69,1.033 2.53,0.677 C 2.578,4.107 2.966,3.456 3.607,2.905 3.693,2.832 3.822,2.88 3.828,2.997 3.87,3.928 2.904,4.921 2.084,5.24 0.879,5.708 -0.267,5.413 -1.17,4.51 -2.396,3.286 -1.851,0.215 -0.063,-0.15 0.027,-0.168 0.08,-0.051 0,0" />
      </g>
      <g
         id="g1702"
         transform="matrix(1.25,0,0,-1.25,404.08867,567.20639)">
        <path
           inkscape:connector-curvature="0"
           id="path1704"
           style="fill:#ffffff;fill-opacity:1;fill-rule:nonzero;stroke:none"
           d="M 0,0 C -0.029,1.488 0.479,2.87 1.79,3.672 3.157,4.508 4.293,3.947 5.713,3.744 5.804,3.731 5.871,3.826 5.805,3.901 4.754,5.079 2.734,4.963 1.488,4.188 0.107,3.328 -0.243,1.477 -0.023,-0.003 -0.021,-0.017 0,-0.013 0,0" />
      </g>
      <g
         id="g1706"
         transform="matrix(1.25,0,0,-1.25,404.03617,571.66064)">
        <path
           inkscape:connector-curvature="0"
           id="path1708"
           style="fill:#ffffff;fill-opacity:1;fill-rule:nonzero;stroke:none"
           d="M 0,0 C 1.96,-2.929 7.176,-2.389 8.608,0.849 8.634,0.907 8.567,0.969 8.516,0.92 6.123,-1.416 2.795,-2.586 0.055,0.042 0.027,0.069 -0.023,0.034 0,0" />
      </g>
      <g
         id="g1710"
         transform="matrix(1.25,0,0,-1.25,401.61804,565.28863)">
        <path
           inkscape:connector-curvature="0"
           id="path1712"
           style="fill:#ffffff;fill-opacity:1;fill-rule:nonzero;stroke:none"
           d="M 0,0 C 0.027,4.955 7.228,7.05 9.953,3.031 10.003,2.957 10.12,3.022 10.074,3.102 8.792,5.368 6.555,6.217 4.046,5.592 1.268,4.9 -0.086,2.694 -0.1,0 -0.1,-0.064 0,-0.064 0,0" />
      </g>
      <g
         id="g1714"
         transform="matrix(1.25,0,0,-1.25,423.56929,611.84801)">
        <path
           inkscape:connector-curvature="0"
           id="path1716"
           style="fill:#ffffff;fill-opacity:1;fill-rule:nonzero;stroke:none"
           d="m 0,0 c 1.833,-0.415 3.738,-0.256 5.597,-0.155 2.576,0.141 4.381,-0.036 6.518,-1.461 0.096,-0.065 0.261,0.019 0.247,0.141 C 11.922,2.299 2.579,0.445 0.243,0.882 -0.329,0.988 -0.58,0.131 0,0" />
      </g>
      <g
         id="g1718"
         transform="matrix(1.25,0,0,-1.25,316.69979,616.80601)">
        <path
           inkscape:connector-curvature="0"
           id="path1720"
           style="fill:#ffffff;fill-opacity:1;fill-rule:nonzero;stroke:none"
           d="M 0,0 C 0.086,0.841 0.358,1.692 0.832,2.394 1.088,2.773 1.458,3.081 1.83,3.338 2.129,3.545 2.329,3.617 2.433,3.969 2.466,4.083 2.394,4.195 2.286,4.229 1.482,4.483 0.644,3.305 0.266,2.725 -0.287,1.874 -0.4,0.944 -0.138,-0.019 -0.116,-0.1 -0.008,-0.076 0,0" />
      </g>
    </g>
  </g>
</svg>
