<?xml version="1.0" encoding="UTF-8" standalone="no"?>
<!-- Created with Inkscape (http://www.inkscape.org/) -->

<svg
   xmlns:dc="http://purl.org/dc/elements/1.1/"
   xmlns:cc="http://creativecommons.org/ns#"
   xmlns:rdf="http://www.w3.org/1999/02/22-rdf-syntax-ns#"
   xmlns:svg="http://www.w3.org/2000/svg"
   xmlns="http://www.w3.org/2000/svg"
   xmlns:sodipodi="http://sodipodi.sourceforge.net/DTD/sodipodi-0.dtd"
   xmlns:inkscape="http://www.inkscape.org/namespaces/inkscape"
   width="210mm"
   height="297mm"
   viewBox="0 0 744.09448819 1052.3622047"
   id="svg3610"
   version="1.1"
   inkscape:version="0.92.4 (5da689c313, 2019-01-14)"
   sodipodi:docname="maquina.svg">
  <defs
     id="defs3612" />
  <sodipodi:namedview
     id="base"
     pagecolor="#ffffff"
     bordercolor="#666666"
     borderopacity="1.0"
     inkscape:pageopacity="0.0"
     inkscape:pageshadow="2"
     inkscape:zoom="1.979899"
     inkscape:cx="134.70143"
     inkscape:cy="867.82495"
     inkscape:document-units="px"
     inkscape:current-layer="layer1"
     showgrid="false"
     inkscape:window-width="1920"
     inkscape:window-height="1016"
     inkscape:window-x="0"
     inkscape:window-y="27"
     inkscape:window-maximized="1" />
  <metadata
     id="metadata3615">
    <rdf:RDF>
      <cc:Work
         rdf:about="">
        <dc:format>image/svg+xml</dc:format>
        <dc:type
           rdf:resource="http://purl.org/dc/dcmitype/StillImage" />
        <dc:title />
      </cc:Work>
    </rdf:RDF>
  </metadata>
  <g
     inkscape:label="Layer 1"
     inkscape:groupmode="layer"
     id="layer1">
    <path
       d="m 248.95773,225.08398 c 0.0108,-0.005 0.0175,-0.0125 0.0317,-0.0175 -0.0117,-0.008 -0.0217,-0.0133 -0.0317,-0.02 -0.24436,0.0133 -0.24436,0.0275 0,0.0375"
       style="fill:#ffffff;fill-opacity:1;fill-rule:nonzero;stroke:none"
       id="path734"
       inkscape:connector-curvature="0"
       inkscape:export-xdpi="96"
       inkscape:export-ydpi="96" />
    <g
       transform="matrix(0.61999334,0,0,0.61999334,11.36891,-107.89845)"
       id="g4868"
       inkscape:export-xdpi="96"
       inkscape:export-ydpi="96">
      <g
         id="g1646"
         transform="matrix(1.25,0,0,-1.25,397.97416,591.12964)">
        <path
           inkscape:connector-curvature="0"
           id="path1648"
           style="fill:#3e383c;fill-opacity:1;fill-rule:evenodd;stroke:none"
           d="m 0,0 c -2.209,-4.6 -4.728,-9.054 -7.122,-13.563 -0.514,-0.963 -1.227,-1.391 -2.436,-1.386 -13.382,0.053 -26.769,0.03 -40.154,0.031 -0.135,0 -0.613,0.002 -1.179,0.004 0.145,0.965 0.25,3.948 0.25,4.149 v 5.583 h 1.056 v -0.611 c 0,-0.133 0.105,-0.24 0.238,-0.24 0.132,0 0.24,0.107 0.24,0.24 v 0.613 c 0.128,0.004 0.228,0.07 0.228,0.155 0,0.082 -0.1,0.148 -0.228,0.153 v 0.661 c 0,0.131 -0.108,0.239 -0.24,0.239 -0.133,0 -0.238,-0.108 -0.238,-0.239 v -0.66 h -1.056 v 3.665 0.002 c 0.049,0.005 0.096,0.007 0.136,0.014 0.934,0.122 1.855,0.415 2.649,0.851 1.944,1.07 2.627,3.056 3.141,5.029 0.657,2.537 1.135,5.12 1.698,7.681 0.559,2.532 2.332,3.898 4.624,4.72 3.067,1.101 6.288,1.49 9.49,1.382 6.401,-0.214 12.795,-0.701 19.19,-1.077 1.608,-0.098 3.212,-0.23 4.816,-0.29 C -0.114,16.933 2.575,14.139 2.431,9.375 2.329,6.076 1.401,2.921 0,0 m 19.367,19.193 h 2.22 v -2.997 c -0.002,-2.957 1.517,-3.887 4.354,-2.39 V 4.854 h -2.913 c 0,0.966 0.014,1.86 -0.005,2.752 -0.026,1.474 -0.499,1.94 -1.996,1.987 -0.936,0.026 -1.876,0.033 -2.813,0.052 -0.036,0.001 -0.072,0.037 -0.246,0.131 0.451,3.046 0.913,6.15 1.399,9.417 m 15.427,-38.839 c 0,0.457 -0.159,0.925 -0.296,1.375 -0.642,2.099 -2.005,3.245 -4.182,3.301 -3.137,0.08 -6.279,0.127 -9.416,0.02 -1.595,-0.054 -2.65,0.621 -3.399,1.84 -0.548,0.887 -1.07,2.111 -1.248,2.874 -0.453,1.938 -0.642,5.954 -0.525,7.94 0.126,2.153 0.742,5.722 1.137,8.553 H 20.42 C 20.12,5.611 20.025,4.98 19.66,4.706 19.038,4.236 18.53,3.771 18.763,2.982 19.008,2.146 19.652,1.776 20.56,1.788 c 2.08,0.029 4.16,0.008 6.242,0.006 h 5.645 v -1.89 c 0,-0.606 0.529,-1.096 1.184,-1.096 0.655,0 1.187,0.49 1.187,1.096 v 0.875 c 0.057,1.88 0.038,3.765 0.012,5.649 0,0.049 -0.008,0.094 -0.012,0.141 v 0.488 c 0,0.605 -0.532,1.097 -1.187,1.097 -0.655,0 -1.184,-0.492 -1.184,-1.097 V 4.854 C 32.328,4.69 31.013,4.617 30.858,4.652 v 2.263 c 0.003,0.026 0.01,0.054 0.01,0.08 0.012,10.52 0.004,21.041 0,31.561 0,0.431 0.021,0.867 -0.03,1.294 -0.167,1.419 -1.121,2.217 -2.567,2.183 -1.365,-0.033 -2.388,-0.969 -2.419,-2.354 -0.049,-2.197 -0.014,-4.395 -0.025,-6.595 0,-0.326 -0.053,-0.65 -0.083,-0.977 -0.035,0.12 -0.07,0.238 -0.102,0.356 -0.958,0.026 -2.009,0.309 -2.849,0.01 -1.027,-0.37 -1.234,-1.512 -1.206,-2.594 C 21.608,29 21.59,28.118 21.59,27.212 h -3.483 c -1.841,4.23 -5.377,5.511 -9.496,5.898 -0.005,0.103 -0.038,0.203 -0.094,0.295 0.344,0.058 0.674,0.086 0.999,0.155 0.017,0.005 0.04,0.013 0.058,0.018 h 0.088 c 0.534,0 0.968,0.435 0.968,0.968 0,0.535 -0.434,0.967 -0.968,0.967 H 9.313 v 4.097 c 0.025,0.026 0.055,0.052 0.083,0.078 h 0.266 c 0.534,0 0.968,0.434 0.968,0.969 0,0.534 -0.434,0.968 -0.968,0.968 H 8.197 c -0.484,0.74 -0.792,1.214 -1.1,1.687 C 6.79,42.841 6.482,42.373 6.012,41.654 5.759,41.654 5.17,41.714 4.596,41.642 4.421,41.62 4.278,41.551 4.157,41.46 4.156,41.46 4.154,41.458 4.152,41.458 4.121,41.434 4.094,41.412 4.062,41.386 3.86,41.206 3.729,40.949 3.729,40.657 c 0,-0.535 0.431,-0.969 0.966,-0.969 H 4.704 C 4.726,39.671 4.753,39.657 4.771,39.638 4.924,39.465 4.883,39.163 4.883,39.1 v -3.006 c 0,-0.278 0.007,-0.457 -0.139,-0.581 H 4.695 c -0.535,0 -0.966,-0.432 -0.966,-0.967 0,-0.533 0.431,-0.968 0.966,-0.968 H 4.718 C 4.749,33.569 4.776,33.555 4.809,33.547 5.129,33.474 5.462,33.451 5.794,33.438 5.718,33.332 5.673,33.213 5.67,33.091 -1.812,31.876 -9.295,30.665 -16.807,29.445 c 0,0 -0.192,-0.029 -0.528,-0.081 v 8.512 c 0,0.239 -0.192,0.433 -0.431,0.433 -0.239,0 -0.431,-0.194 -0.431,-0.433 v -8.644 c -3.006,-0.45 -10.123,-1.443 -13.642,-1.308 -1.961,0.074 -3.84,0.367 -5.467,1.717 -1.773,1.474 -3.669,2.804 -5.578,4.102 -2.278,1.552 -4.363,2.92 -7.661,2.434 v 5.079 c 0,0.237 -0.193,0.431 -0.432,0.431 -0.237,0 -0.432,-0.194 -0.432,-0.431 v -5.213 c -0.283,-0.046 -0.577,-0.098 -0.834,-0.151 -2.788,-0.596 -1.507,-2.617 -1.939,-4.11 -1.292,0.533 -1.641,1.172 -1.143,2.094 -0.358,-0.063 -0.718,-0.122 -1.074,-0.196 -0.282,-0.059 -0.735,-0.071 -0.794,-0.227 -0.101,-0.258 0.008,-0.63 0.109,-0.928 0.068,-0.201 0.172,-0.465 0.272,-0.595 0.135,-0.171 0.544,-0.483 0.651,-0.582 0,0 2.15,-1.704 2.106,-3.378 -0.122,-4.661 -0.039,-9.327 -0.039,-13.993 v -0.804 l -2.041,2.011 c -0.083,0.081 -0.204,0.105 -0.312,0.06 -0.108,-0.044 -0.177,-0.149 -0.177,-0.264 v -1.417 c -0.003,0 -0.006,0.002 -0.008,0.002 -0.501,0 -0.91,-0.409 -0.91,-0.911 V 8.811 c 0,-0.501 0.409,-0.91 0.91,-0.91 h 0.008 v -1.7 c 0,-0.118 0.072,-0.223 0.181,-0.267 0.034,-0.014 0.071,-0.021 0.106,-0.021 0.076,0 0.153,0.029 0.209,0.089 l 2.016,2.108 c 0.007,-1.532 0.018,-4.771 0.008,-6.441 -10e-4,-0.268 -0.23,-0.617 -0.38,-0.77 -0.055,-0.055 -0.176,-0.134 -0.215,-0.231 -0.042,-0.094 10e-4,-0.33 0.072,-0.401 0.041,-0.043 0.145,-0.117 0.289,-0.228 0.236,-0.183 1.114,-0.945 2.112,-1.163 0.224,-0.048 0.572,-0.08 0.915,-0.09 v -7.295 c -0.021,0.003 -0.039,0.009 -0.062,0.009 h -1.113 v 0.61 c 0,0.133 -0.106,0.24 -0.24,0.24 -0.132,0 -0.24,-0.107 -0.24,-0.24 v -0.612 c -0.127,-0.005 -0.226,-0.073 -0.226,-0.156 0,-0.083 0.099,-0.149 0.226,-0.154 v -0.659 c 0,-0.133 0.108,-0.24 0.24,-0.24 0.134,0 0.24,0.107 0.24,0.24 v 0.659 h 1.113 c 0.023,0 0.041,0.003 0.062,0.006 v -1.959 c 0,-0.201 0.106,-3.184 0.248,-4.149 -1.022,10e-4 -2.23,0.003 -2.23,0.003 -4.437,0 -3.809,0.016 -8.244,-0.003 -2.674,-0.012 -4.611,-1.88 -4.682,-4.559 -0.071,-2.782 -0.044,-5.569 -0.086,-8.355 -0.044,-2.84 1.796,-5.385 5.429,-5.346 13.307,0.137 21.547,0.042 34.855,0.058 11.774,0.012 23.548,0.066 35.323,0.074 6.827,0.003 13.654,-0.06 20.48,-0.071 2.822,-0.003 4.617,1.361 4.871,4.192 0.276,3.071 0.133,6.182 0.141,9.275" />
      </g>
      <g
         id="g1650"
         transform="matrix(1.25,0,0,-1.25,397.97416,591.12964)">
        <path
           inkscape:connector-curvature="0"
           id="path1652"
           style="fill:none;stroke:#3e383c;stroke-width:0.5;stroke-linecap:round;stroke-linejoin:round;stroke-miterlimit:10;stroke-dasharray:none;stroke-opacity:1"
           d="m 0,0 c -2.209,-4.6 -4.728,-9.054 -7.122,-13.563 -0.514,-0.963 -1.227,-1.391 -2.436,-1.386 -13.382,0.053 -26.769,0.03 -40.154,0.031 -0.135,0 -0.613,0.002 -1.179,0.004 0.145,0.965 0.25,3.948 0.25,4.149 v 5.583 h 1.056 v -0.611 c 0,-0.133 0.105,-0.24 0.238,-0.24 0.132,0 0.24,0.107 0.24,0.24 v 0.613 c 0.128,0.004 0.228,0.07 0.228,0.155 0,0.082 -0.1,0.148 -0.228,0.153 v 0.661 c 0,0.131 -0.108,0.239 -0.24,0.239 -0.133,0 -0.238,-0.108 -0.238,-0.239 v -0.66 h -1.056 v 3.665 0.002 c 0.049,0.005 0.096,0.007 0.136,0.014 0.934,0.122 1.855,0.415 2.649,0.851 1.944,1.07 2.627,3.056 3.141,5.029 0.657,2.537 1.135,5.12 1.698,7.681 0.559,2.532 2.332,3.898 4.624,4.72 3.067,1.101 6.288,1.49 9.49,1.382 6.401,-0.214 12.795,-0.701 19.19,-1.077 1.608,-0.098 3.212,-0.23 4.816,-0.29 C -0.114,16.933 2.575,14.139 2.431,9.375 2.329,6.076 1.401,2.921 0,0 Z m 19.367,19.193 h 2.22 v -2.997 c -0.002,-2.957 1.517,-3.887 4.354,-2.39 V 4.854 h -2.913 c 0,0.966 0.014,1.86 -0.005,2.752 -0.026,1.474 -0.499,1.94 -1.996,1.987 -0.936,0.026 -1.876,0.033 -2.813,0.052 -0.036,0.001 -0.072,0.037 -0.246,0.131 0.451,3.046 0.913,6.15 1.399,9.417 z m 15.427,-38.839 c 0,0.457 -0.159,0.925 -0.296,1.375 -0.642,2.099 -2.005,3.245 -4.182,3.301 -3.137,0.08 -6.279,0.127 -9.416,0.02 -1.595,-0.054 -2.65,0.621 -3.399,1.84 -0.548,0.887 -1.07,2.111 -1.248,2.874 -0.453,1.938 -0.642,5.954 -0.525,7.94 0.126,2.153 0.742,5.722 1.137,8.553 H 20.42 C 20.12,5.611 20.025,4.98 19.66,4.706 19.038,4.236 18.53,3.771 18.763,2.982 19.008,2.146 19.652,1.776 20.56,1.788 c 2.08,0.029 4.16,0.008 6.242,0.006 h 5.645 v -1.89 c 0,-0.606 0.529,-1.096 1.184,-1.096 0.655,0 1.187,0.49 1.187,1.096 v 0.875 c 0.057,1.88 0.038,3.765 0.012,5.649 0,0.049 -0.008,0.094 -0.012,0.141 v 0.488 c 0,0.605 -0.532,1.097 -1.187,1.097 -0.655,0 -1.184,-0.492 -1.184,-1.097 V 4.854 C 32.328,4.69 31.013,4.617 30.858,4.652 v 2.263 c 0.003,0.026 0.01,0.054 0.01,0.08 0.012,10.52 0.004,21.041 0,31.561 0,0.431 0.021,0.867 -0.03,1.294 -0.167,1.419 -1.121,2.217 -2.567,2.183 -1.365,-0.033 -2.388,-0.969 -2.419,-2.354 -0.049,-2.197 -0.014,-4.395 -0.025,-6.595 0,-0.326 -0.053,-0.65 -0.083,-0.977 -0.035,0.12 -0.07,0.238 -0.102,0.356 -0.958,0.026 -2.009,0.309 -2.849,0.01 -1.027,-0.37 -1.234,-1.512 -1.206,-2.594 C 21.608,29 21.59,28.118 21.59,27.212 h -3.483 c -1.841,4.23 -5.377,5.511 -9.496,5.898 -0.005,0.103 -0.038,0.203 -0.094,0.295 0.344,0.058 0.674,0.086 0.999,0.155 0.017,0.005 0.04,0.013 0.058,0.018 h 0.088 c 0.534,0 0.968,0.435 0.968,0.968 0,0.535 -0.434,0.967 -0.968,0.967 H 9.313 v 4.097 c 0.025,0.026 0.055,0.052 0.083,0.078 h 0.266 c 0.534,0 0.968,0.434 0.968,0.969 0,0.534 -0.434,0.968 -0.968,0.968 H 8.197 c -0.484,0.74 -0.792,1.214 -1.1,1.687 C 6.79,42.841 6.482,42.373 6.012,41.654 5.759,41.654 5.17,41.714 4.596,41.642 4.421,41.62 4.278,41.551 4.157,41.46 4.156,41.46 4.154,41.458 4.152,41.458 4.121,41.434 4.094,41.412 4.062,41.386 3.86,41.206 3.729,40.949 3.729,40.657 c 0,-0.535 0.431,-0.969 0.966,-0.969 H 4.704 C 4.726,39.671 4.753,39.657 4.771,39.638 4.924,39.465 4.883,39.163 4.883,39.1 v -3.006 c 0,-0.278 0.007,-0.457 -0.139,-0.581 H 4.695 c -0.535,0 -0.966,-0.432 -0.966,-0.967 0,-0.533 0.431,-0.968 0.966,-0.968 H 4.718 C 4.749,33.569 4.776,33.555 4.809,33.547 5.129,33.474 5.462,33.451 5.794,33.438 5.718,33.332 5.673,33.213 5.67,33.091 -1.812,31.876 -9.295,30.665 -16.807,29.445 c 0,0 -0.192,-0.029 -0.528,-0.081 v 8.512 c 0,0.239 -0.192,0.433 -0.431,0.433 -0.239,0 -0.431,-0.194 -0.431,-0.433 v -8.644 c -3.006,-0.45 -10.123,-1.443 -13.642,-1.308 -1.961,0.074 -3.84,0.367 -5.467,1.717 -1.773,1.474 -3.669,2.804 -5.578,4.102 -2.278,1.552 -4.363,2.92 -7.661,2.434 v 5.079 c 0,0.237 -0.193,0.431 -0.432,0.431 -0.237,0 -0.432,-0.194 -0.432,-0.431 v -5.213 c -0.283,-0.046 -0.577,-0.098 -0.834,-0.151 -2.788,-0.596 -1.507,-2.617 -1.939,-4.11 -1.292,0.533 -1.641,1.172 -1.143,2.094 -0.358,-0.063 -0.718,-0.122 -1.074,-0.196 -0.282,-0.059 -0.735,-0.071 -0.794,-0.227 -0.101,-0.258 0.008,-0.63 0.109,-0.928 0.068,-0.201 0.172,-0.465 0.272,-0.595 0.135,-0.171 0.544,-0.483 0.651,-0.582 0,0 2.15,-1.704 2.106,-3.378 -0.122,-4.661 -0.039,-9.327 -0.039,-13.993 v -0.804 l -2.041,2.011 c -0.083,0.081 -0.204,0.105 -0.312,0.06 -0.108,-0.044 -0.177,-0.149 -0.177,-0.264 v -1.417 c -0.003,0 -0.006,0.002 -0.008,0.002 -0.501,0 -0.91,-0.409 -0.91,-0.911 V 8.811 c 0,-0.501 0.409,-0.91 0.91,-0.91 h 0.008 v -1.7 c 0,-0.118 0.072,-0.223 0.181,-0.267 0.034,-0.014 0.071,-0.021 0.106,-0.021 0.076,0 0.153,0.029 0.209,0.089 l 2.016,2.108 c 0.007,-1.532 0.018,-4.771 0.008,-6.441 -10e-4,-0.268 -0.23,-0.617 -0.38,-0.77 -0.055,-0.055 -0.176,-0.134 -0.215,-0.231 -0.042,-0.094 10e-4,-0.33 0.072,-0.401 0.041,-0.043 0.145,-0.117 0.289,-0.228 0.236,-0.183 1.114,-0.945 2.112,-1.163 0.224,-0.048 0.572,-0.08 0.915,-0.09 v -7.295 c -0.021,0.003 -0.039,0.009 -0.062,0.009 h -1.113 v 0.61 c 0,0.133 -0.106,0.24 -0.24,0.24 -0.132,0 -0.24,-0.107 -0.24,-0.24 v -0.612 c -0.127,-0.005 -0.226,-0.073 -0.226,-0.156 0,-0.083 0.099,-0.149 0.226,-0.154 v -0.659 c 0,-0.133 0.108,-0.24 0.24,-0.24 0.134,0 0.24,0.107 0.24,0.24 v 0.659 h 1.113 c 0.023,0 0.041,0.003 0.062,0.006 v -1.959 c 0,-0.201 0.106,-3.184 0.248,-4.149 -1.022,10e-4 -2.23,0.003 -2.23,0.003 -4.437,0 -3.809,0.016 -8.244,-0.003 -2.674,-0.012 -4.611,-1.88 -4.682,-4.559 -0.071,-2.782 -0.044,-5.569 -0.086,-8.355 -0.044,-2.84 1.796,-5.385 5.429,-5.346 13.307,0.137 21.547,0.042 34.855,0.058 11.774,0.012 23.548,0.066 35.323,0.074 6.827,0.003 13.654,-0.06 20.48,-0.071 2.822,-0.003 4.617,1.361 4.871,4.192 0.276,3.071 0.133,6.182 0.141,9.275 z" />
      </g>
      <g
         id="g1654"
         transform="matrix(1.25,0,0,-1.25,337.68116,548.33364)">
        <path
           inkscape:connector-curvature="0"
           id="path1656"
           style="fill:#ffffff;fill-opacity:1;fill-rule:nonzero;stroke:none"
           d="m 0,0 c 5.011,-0.854 7.571,-5.669 12.203,-7.312 4.279,-1.517 8.897,-1.045 13.323,-0.398 11.73,1.712 24.896,6.931 36.453,2.555 0.193,-0.073 0.296,0.219 0.135,0.322 -8.7,5.543 -21.939,0.142 -31.059,-1.28 -6.6,-1.029 -13.848,-2.975 -20.162,0.082 C 6.99,-4.142 4.561,-0.439 0.013,0.092 -0.04,0.099 -0.052,0.009 0,0" />
      </g>
      <g
         id="g1658"
         transform="matrix(1.25,0,0,-1.25,332.33941,557.86063)">
        <path
           inkscape:connector-curvature="0"
           id="path1660"
           style="fill:#ffffff;fill-opacity:1;fill-rule:nonzero;stroke:none"
           d="m 0,0 c -0.721,-7.516 -0.491,-15.469 -0.059,-23.003 0.01,-0.166 0.248,-0.166 0.258,0 C 0.632,-15.469 0.862,-7.516 0.141,0 0.132,0.09 0.009,0.09 0,0" />
      </g>
      <g
         id="g1662"
         transform="matrix(1.25,0,0,-1.25,399.13991,570.40214)">
        <path
           inkscape:connector-curvature="0"
           id="path1664"
           style="fill:#ffffff;fill-opacity:1;fill-rule:nonzero;stroke:none"
           d="m 0,0 c 6.228,-8.185 -0.866,-14.901 -1.981,-23.227 -0.024,-0.177 0.25,-0.234 0.327,-0.088 3.011,5.676 8.755,18.599 1.83,23.491 C 0.074,0.249 -0.078,0.103 0,0" />
      </g>
      <g
         id="g1666"
         transform="matrix(1.25,0,0,-1.25,421.27979,558.25676)">
        <path
           inkscape:connector-curvature="0"
           id="path1668"
           style="fill:#ffffff;fill-opacity:1;fill-rule:nonzero;stroke:none"
           d="m 0,0 c 0.546,-0.206 1.107,-0.211 1.685,-0.273 0.51,-0.055 1.14,-0.22 1.542,0.177 C 3.279,-0.044 3.3,0.054 3.254,0.117 2.945,0.543 2.41,0.526 1.917,0.504 1.269,0.476 0.611,0.479 0,0.249 -0.123,0.203 -0.123,0.046 0,0" />
      </g>
      <g
         id="g1670"
         transform="matrix(1.25,0,0,-1.25,426.14554,555.23363)">
        <path
           inkscape:connector-curvature="0"
           id="path1672"
           style="fill:#ffffff;fill-opacity:1;fill-rule:nonzero;stroke:none"
           d="m 0,0 c 0.08,0.487 0.109,0.986 0.206,1.469 0.05,0.248 0.143,0.487 0.31,0.679 0.178,0.207 0.442,0.24 0.63,0.425 C 1.241,2.668 1.183,2.803 1.073,2.848 0.489,3.082 0.018,2.384 -0.116,1.912 -0.296,1.279 -0.156,0.629 -0.045,0 -0.041,-0.022 -0.003,-0.022 0,0" />
      </g>
      <g
         id="g1674"
         transform="matrix(1.25,0,0,-1.25,431.75404,550.50651)">
        <path
           inkscape:connector-curvature="0"
           id="path1676"
           style="fill:#ffffff;fill-opacity:1;fill-rule:nonzero;stroke:none"
           d="M 0,0 C 0.528,0.977 0.462,2.244 0.446,3.334 0.428,4.6 0.517,6.002 0.103,7.208 0.033,7.409 -0.235,7.409 -0.305,7.208 -0.723,5.991 -0.604,4.609 -0.648,3.334 -0.686,2.254 -0.725,0.967 -0.202,0 -0.161,-0.076 -0.041,-0.076 0,0" />
      </g>
      <g
         id="g1678"
         transform="matrix(1.25,0,0,-1.25,431.31467,574.32126)">
        <path
           inkscape:connector-curvature="0"
           id="path1680"
           style="fill:#ffffff;fill-opacity:1;fill-rule:nonzero;stroke:none"
           d="m 0,0 c -0.458,-0.394 -0.399,-1.016 -0.399,-1.575 0,-0.853 0.264,-1.594 0.4,-2.428 0.01,-0.057 0.104,-0.057 0.114,0 0.117,0.717 0.4,1.396 0.4,2.129 C 0.515,-1.247 0.64,-0.451 0.116,0 0.08,0.031 0.036,0.031 0,0" />
      </g>
      <g
         id="g1682"
         transform="matrix(1.25,0,0,-1.25,422.59029,579.99438)">
        <path
           inkscape:connector-curvature="0"
           id="path1684"
           style="fill:#ffffff;fill-opacity:1;fill-rule:nonzero;stroke:none"
           d="m 0,0 c 0.56,-0.246 1.201,-0.107 1.754,-0.433 0.638,-0.375 0.601,-1.173 0.7,-1.818 0.013,-0.086 0.135,-0.07 0.158,0 0.234,0.71 0.163,1.579 -0.441,2.092 C 1.68,0.259 0.574,0.387 0,0.142 -0.054,0.119 -0.053,0.023 0,0" />
      </g>
      <g
         id="g1686"
         transform="matrix(1.25,0,0,-1.25,439.57141,584.49638)">
        <path
           inkscape:connector-curvature="0"
           id="path1688"
           style="fill:#ffffff;fill-opacity:1;fill-rule:nonzero;stroke:none"
           d="M 0,0 C 0.495,0.43 -0.157,1.548 0.565,1.745 1.101,1.891 1.007,2.765 0.432,2.73 -0.236,2.689 -0.564,2.188 -0.615,1.565 -0.649,1.152 -0.593,0.28 -0.249,0 -0.17,-0.063 -0.078,-0.067 0,0" />
      </g>
      <g
         id="g1690"
         transform="matrix(1.25,0,0,-1.25,403.00354,540.41676)">
        <path
           inkscape:connector-curvature="0"
           id="path1692"
           style="fill:#ffffff;fill-opacity:1;fill-rule:nonzero;stroke:none"
           d="M 0,0 C 0.639,-0.144 1.474,-0.154 2.082,0.122 2.767,0.433 3.145,1.085 3.472,1.73 3.624,2.029 3.216,2.261 3.026,1.991 2.701,1.526 2.345,1.017 1.777,0.845 1.203,0.671 0.58,0.775 0,0.648 -0.322,0.577 -0.32,0.072 0,0" />
      </g>
      <g
         id="g1694"
         transform="matrix(1.25,0,0,-1.25,404.72716,542.01101)">
        <path
           inkscape:connector-curvature="0"
           id="path1696"
           style="fill:#ffffff;fill-opacity:1;fill-rule:nonzero;stroke:none"
           d="m 0,0 c -0.242,-0.408 -0.152,-0.959 -0.162,-1.421 -0.015,-0.623 -0.012,-1.243 -0.008,-1.865 0.003,-0.408 0.635,-0.408 0.633,0 C 0.459,-2.658 0.406,-2.045 0.339,-1.421 0.29,-0.959 0.348,-0.403 0.102,0 0.079,0.037 0.023,0.038 0,0" />
      </g>
      <g
         id="g1698"
         transform="matrix(1.25,0,0,-1.25,407.71604,570.35213)">
        <path
           inkscape:connector-curvature="0"
           id="path1700"
           style="fill:#ffffff;fill-opacity:1;fill-rule:nonzero;stroke:none"
           d="m 0,0 c -1.122,0.717 -1.375,2.674 -0.776,3.78 0.482,0.889 1.69,1.033 2.53,0.677 C 2.578,4.107 2.966,3.456 3.607,2.905 3.693,2.832 3.822,2.88 3.828,2.997 3.87,3.928 2.904,4.921 2.084,5.24 0.879,5.708 -0.267,5.413 -1.17,4.51 -2.396,3.286 -1.851,0.215 -0.063,-0.15 0.027,-0.168 0.08,-0.051 0,0" />
      </g>
      <g
         id="g1702"
         transform="matrix(1.25,0,0,-1.25,404.08867,567.20639)">
        <path
           inkscape:connector-curvature="0"
           id="path1704"
           style="fill:#ffffff;fill-opacity:1;fill-rule:nonzero;stroke:none"
           d="M 0,0 C -0.029,1.488 0.479,2.87 1.79,3.672 3.157,4.508 4.293,3.947 5.713,3.744 5.804,3.731 5.871,3.826 5.805,3.901 4.754,5.079 2.734,4.963 1.488,4.188 0.107,3.328 -0.243,1.477 -0.023,-0.003 -0.021,-0.017 0,-0.013 0,0" />
      </g>
      <g
         id="g1706"
         transform="matrix(1.25,0,0,-1.25,404.03617,571.66064)">
        <path
           inkscape:connector-curvature="0"
           id="path1708"
           style="fill:#ffffff;fill-opacity:1;fill-rule:nonzero;stroke:none"
           d="M 0,0 C 1.96,-2.929 7.176,-2.389 8.608,0.849 8.634,0.907 8.567,0.969 8.516,0.92 6.123,-1.416 2.795,-2.586 0.055,0.042 0.027,0.069 -0.023,0.034 0,0" />
      </g>
      <g
         id="g1710"
         transform="matrix(1.25,0,0,-1.25,401.61804,565.28863)">
        <path
           inkscape:connector-curvature="0"
           id="path1712"
           style="fill:#ffffff;fill-opacity:1;fill-rule:nonzero;stroke:none"
           d="M 0,0 C 0.027,4.955 7.228,7.05 9.953,3.031 10.003,2.957 10.12,3.022 10.074,3.102 8.792,5.368 6.555,6.217 4.046,5.592 1.268,4.9 -0.086,2.694 -0.1,0 -0.1,-0.064 0,-0.064 0,0" />
      </g>
      <g
         id="g1714"
         transform="matrix(1.25,0,0,-1.25,423.56929,611.84801)">
        <path
           inkscape:connector-curvature="0"
           id="path1716"
           style="fill:#ffffff;fill-opacity:1;fill-rule:nonzero;stroke:none"
           d="m 0,0 c 1.833,-0.415 3.738,-0.256 5.597,-0.155 2.576,0.141 4.381,-0.036 6.518,-1.461 0.096,-0.065 0.261,0.019 0.247,0.141 C 11.922,2.299 2.579,0.445 0.243,0.882 -0.329,0.988 -0.58,0.131 0,0" />
      </g>
      <g
         id="g1718"
         transform="matrix(1.25,0,0,-1.25,316.69979,616.80601)">
        <path
           inkscape:connector-curvature="0"
           id="path1720"
           style="fill:#ffffff;fill-opacity:1;fill-rule:nonzero;stroke:none"
           d="M 0,0 C 0.086,0.841 0.358,1.692 0.832,2.394 1.088,2.773 1.458,3.081 1.83,3.338 2.129,3.545 2.329,3.617 2.433,3.969 2.466,4.083 2.394,4.195 2.286,4.229 1.482,4.483 0.644,3.305 0.266,2.725 -0.287,1.874 -0.4,0.944 -0.138,-0.019 -0.116,-0.1 -0.008,-0.076 0,0" />
      </g>
    </g>
  </g>
</svg>
