<?xml version="1.0" encoding="UTF-8" standalone="no"?>
<!-- Created with Inkscape (http://www.inkscape.org/) -->

<svg
   xmlns:dc="http://purl.org/dc/elements/1.1/"
   xmlns:cc="http://creativecommons.org/ns#"
   xmlns:rdf="http://www.w3.org/1999/02/22-rdf-syntax-ns#"
   xmlns:svg="http://www.w3.org/2000/svg"
   xmlns="http://www.w3.org/2000/svg"
   xmlns:sodipodi="http://sodipodi.sourceforge.net/DTD/sodipodi-0.dtd"
   xmlns:inkscape="http://www.inkscape.org/namespaces/inkscape"
   width="210mm"
   height="297mm"
   viewBox="0 0 744.09448819 1052.3622047"
   id="svg3610"
   version="1.1"
   inkscape:version="0.92.4 (5da689c313, 2019-01-14)"
   sodipodi:docname="no-letras-no-flores.svg">
  <defs
     id="defs3612" />
  <sodipodi:namedview
     id="base"
     pagecolor="#ffffff"
     bordercolor="#666666"
     borderopacity="1.0"
     inkscape:pageopacity="0.0"
     inkscape:pageshadow="2"
     inkscape:zoom="1.979899"
     inkscape:cx="317.53904"
     inkscape:cy="873.88588"
     inkscape:document-units="px"
     inkscape:current-layer="layer1"
     showgrid="false"
     inkscape:window-width="1920"
     inkscape:window-height="1016"
     inkscape:window-x="0"
     inkscape:window-y="27"
     inkscape:window-maximized="1" />
  <metadata
     id="metadata3615">
    <rdf:RDF>
      <cc:Work
         rdf:about="">
        <dc:format>image/svg+xml</dc:format>
        <dc:type
           rdf:resource="http://purl.org/dc/dcmitype/StillImage" />
        <dc:title></dc:title>
      </cc:Work>
    </rdf:RDF>
  </metadata>
  <g
     inkscape:label="Layer 1"
     inkscape:groupmode="layer"
     id="layer1">
    <g
       id="g520">
      <path
         inkscape:connector-curvature="0"
         id="path734"
         style="fill:#ffffff;fill-opacity:1;fill-rule:nonzero;stroke:none"
         d="m 248.95773,225.08398 c 0.0108,-0.005 0.0175,-0.0125 0.0317,-0.0175 -0.0117,-0.008 -0.0217,-0.0133 -0.0317,-0.02 -0.24436,0.0133 -0.24436,0.0275 0,0.0375" />
      <g
         transform="translate(0,28.125)"
         id="g151">
        <path
           style="fill:#748a6a;fill-opacity:1;stroke:none;stroke-opacity:1"
           d="m 268.26443,187.57778 c -0.52608,-0.23969 -1.20268,-1.30577 -1.20268,-1.89501 0,-0.6465 0.71836,-1.5986 1.46111,-1.93654 0.89858,-0.40883 2.1132,0.0922 2.50662,1.03406 0.1769,0.42349 0.16331,1.19769 -0.0284,1.61987 -0.39841,0.8772 -1.93998,1.54056 -2.73661,1.17762 z"
           id="path3774"
           inkscape:connector-curvature="0" />
        <path
           style="fill:#748a6a;fill-opacity:1;stroke:none;stroke-opacity:1"
           d="m 270.07135,187.41005 c 0,-0.0167 0.15304,-0.13653 0.3401,-0.26616 0.73471,-0.50915 1.02352,-1.52832 0.66756,-2.35575 -0.20923,-0.48638 -0.38798,-0.67624 -0.92396,-0.98143 -0.20716,-0.11796 -0.31812,-0.21492 -0.24657,-0.21548 0.23358,-0.002 0.90312,0.48493 1.11505,0.81062 0.274,0.42105 0.41536,0.98655 0.34954,1.3982 -0.0785,0.49111 -0.44931,1.11245 -0.83161,1.3936 -0.30332,0.22306 -0.47011,0.29984 -0.47011,0.2164 z"
           id="path3778"
           inkscape:connector-curvature="0" />
        <path
           style="fill:#748a6a;fill-opacity:1;stroke:none;stroke-opacity:1"
           d="m 268.83982,187.69745 v -0.018 l 0.009,-7.1e-4 c 0.005,-3.6e-4 0.0181,-0.001 0.0295,-0.001 0.0485,-0.002 0.11974,-0.008 0.1805,-0.0166 0.5104,-0.0687 1.07156,-0.32268 1.47246,-0.66649 0.0826,-0.0708 0.16797,-0.15545 0.23341,-0.23131 0.0526,-0.061 0.10451,-0.13046 0.14501,-0.1941 0.0139,-0.0218 0.0457,-0.075 0.0468,-0.0784 2.1e-4,-7.1e-4 0.008,-0.001 0.0172,-7.1e-4 l 0.0168,3.5e-4 -0.0131,0.0236 c -0.0762,0.13715 -0.18186,0.28224 -0.26902,0.36943 -0.0432,0.0432 -0.0904,0.0857 -0.15698,0.14134 -0.269,0.22474 -0.5563,0.39889 -0.85532,0.51845 -0.21843,0.0873 -0.44336,0.14341 -0.65533,0.1634 -0.0524,0.005 -0.13499,0.009 -0.18293,0.009 l -0.0177,2e-5 v -0.018 z"
           id="path3780"
           inkscape:connector-curvature="0" />
        <path
           style="fill:#748a6a;fill-opacity:1;stroke:none;stroke-opacity:1"
           d="m 270.9583,186.48743 c 3.5e-4,-7.1e-4 0.0113,-0.0227 0.0243,-0.0487 0.0258,-0.0517 0.0459,-0.0999 0.0639,-0.15361 0.0567,-0.16884 0.0901,-0.35875 0.10426,-0.59346 0.003,-0.0538 0.003,-0.25155 -4e-5,-0.30435 -0.0111,-0.17948 -0.034,-0.32899 -0.0701,-0.4585 -0.009,-0.0314 -0.0263,-0.0873 -0.0314,-0.0997 -10e-4,-0.003 3.6e-4,-0.004 0.022,-0.004 h 0.0233 l 0.011,0.0299 c 0.0862,0.23422 0.12957,0.52543 0.11744,0.78887 -0.009,0.19669 -0.038,0.35287 -0.0991,0.53507 -0.0306,0.0912 -0.0639,0.17132 -0.1076,0.2587 l -0.0253,0.0506 h -0.0167 c -0.009,0 -0.0164,-7.1e-4 -0.016,-0.001 z"
           id="path3782"
           inkscape:connector-curvature="0" />
        <path
           d="m 271.07474,173.21485 c -16.05348,-5.32837 -19.86315,14.60234 -35.9108,13.30548 18.15764,1.47199 20.17423,-16.86246 35.9108,-13.30548"
           style="fill:#748a6a;fill-opacity:1;fill-rule:evenodd;stroke:none"
           id="path758"
           inkscape:connector-curvature="0" />
        <path
           d="m 245.21053,172.93346 c -0.40282,0.0667 -0.68138,0.43117 -0.61882,0.81147 0.065,0.3803 0.44451,0.6355 0.84816,0.57212 0.40449,-0.0659 0.68471,-0.43034 0.62049,-0.81398 -0.0625,-0.37946 -0.44201,-0.6355 -0.84983,-0.56961"
           style="fill:#748a6a;fill-opacity:1;fill-rule:evenodd;stroke:none"
           id="path762"
           inkscape:connector-curvature="0" />
        <path
           d="m 245.14206,175.39431 c -0.66219,0.10842 -1.11505,0.69972 -1.0108,1.32438 0.10091,0.62382 0.71973,1.03915 1.38192,0.93073 0.65719,-0.10508 1.11171,-0.70138 1.00746,-1.32271 -0.10175,-0.62549 -0.7189,-1.03748 -1.37858,-0.9324"
           style="fill:#748a6a;fill-opacity:1;fill-rule:evenodd;stroke:none"
           id="path766"
           inkscape:connector-curvature="0" />
        <path
           d="m 245.21053,195.18366 c -0.40282,-0.0659 -0.68138,-0.43034 -0.61882,-0.81314 0.065,-0.3803 0.44451,-0.6355 0.84816,-0.57045 0.40449,0.0667 0.68471,0.42867 0.62049,0.81147 -0.0625,0.3828 -0.44201,0.638 -0.84983,0.57212"
           style="fill:#748a6a;fill-opacity:1;fill-rule:evenodd;stroke:none"
           id="path770"
           inkscape:connector-curvature="0" />
        <path
           d="m 245.14206,192.72039 c -0.66219,-0.10592 -1.11505,-0.70223 -1.0108,-1.32355 0.10091,-0.62215 0.71973,-1.03832 1.38192,-0.92906 0.65719,0.10841 1.11171,0.70222 1.00746,1.32354 -0.10175,0.62132 -0.7189,1.03748 -1.37858,0.92907"
           style="fill:#748a6a;fill-opacity:1;fill-rule:evenodd;stroke:none"
           id="path774"
           inkscape:connector-curvature="0" />
        <path
           d="m 245.06716,178.77548 c -0.92406,0.15095 -1.55539,0.98077 -1.41361,1.85062 0.13928,0.87236 1.00663,1.45615 1.93069,1.3052 0.92489,-0.15095 1.55873,-0.98411 1.41611,-1.85396 -0.14177,-0.86902 -1.00912,-1.45448 -1.93319,-1.30186"
           style="fill:#748a6a;fill-opacity:1;fill-rule:evenodd;stroke:none"
           id="path778"
           inkscape:connector-curvature="0" />
        <path
           d="m 271.34437,191.88356 c -4.04235,0.86735 -7.84535,-1.36942 -8.70602,-4.46769 -0.86235,-3.10161 0.89153,-6.72113 4.72705,-7.8637 2.30349,-0.68554 4.94056,0.27689 6.10982,2.51365 1.16758,2.23593 -0.4662,5.04231 -3.16166,5.6186 -0.43451,0.0959 -0.81731,0.0876 -1.15007,0.01 1.25182,-0.002 2.26678,-0.96493 2.26678,-2.14836 0,-1.18427 -1.01663,-2.14419 -2.27179,-2.14419 -1.25599,0 -2.27262,0.95992 -2.27262,2.14419 0,0.35695 0.0901,0.69304 0.2552,0.98911 0.44785,1.20428 1.87064,1.93486 3.24672,1.63963 2.8289,-0.60965 4.47687,-3.16583 3.6804,-5.70867 -0.79646,-2.542 -3.67372,-3.83969 -6.56684,-3.49692 -4.10156,0.47954 -7.16147,5.28583 -5.39008,9.29315 1.7739,4.0065 5.47432,5.42928 9.71849,4.51189 5.66113,-1.21679 8.62097,-6.71362 7.36331,-11.41066 -1.08086,-4.03568 -4.60697,-6.84122 -10.1947,-7.09225 -12.76923,-1.03499 -17.24359,15.34292 -31.83593,14.16533 17.46627,1.41612 19.9991,-15.49638 34.17277,-13.61406 3.52027,0.85984 5.97888,2.87559 7.01803,6.19154 1.5187,4.83965 -1.61878,9.70515 -7.00886,10.8694"
           style="fill:#748a6a;fill-opacity:1;fill-rule:evenodd;stroke:none"
           id="path782"
           inkscape:connector-curvature="0" />
        <path
           d="m 219.57582,173.21485 c 16.04932,-5.32837 19.86483,14.60234 35.91164,13.30548 -18.16015,1.47199 -20.17674,-16.86246 -35.91164,-13.30548"
           style="fill:#748a6a;fill-opacity:1;fill-rule:evenodd;stroke:none"
           id="path786"
           inkscape:connector-curvature="0" />
        <path
           d="m 219.30469,191.88356 c 4.04319,0.86735 7.84285,-1.36942 8.70687,-4.46769 0.86568,-3.10161 -0.88904,-6.72113 -4.72373,-7.8637 -2.30765,-0.68554 -4.94306,0.27689 -6.11398,2.51365 -1.16342,2.23593 0.4662,5.04231 3.16165,5.6186 0.43702,0.0959 0.81898,0.0876 1.15008,0.01 -1.25182,-0.002 -2.26679,-0.96493 -2.26679,-2.14836 0,-1.18427 1.01664,-2.14419 2.27179,-2.14419 1.25599,0 2.27346,0.95992 2.27346,2.14419 0,0.35695 -0.0942,0.69304 -0.25603,0.98911 -0.44702,1.20428 -1.86981,1.93486 -3.24673,1.63963 -2.8289,-0.60965 -4.47769,-3.16583 -3.67957,-5.70867 0.79563,-2.542 3.6729,-3.83969 6.57101,-3.49692 4.09907,0.47954 7.15898,5.28583 5.38675,9.29315 -1.77223,4.0065 -5.47598,5.42928 -9.72016,4.51189 -5.65863,-1.21679 -8.61846,-6.71362 -7.3608,-11.41066 1.07835,-4.03568 4.60529,-6.84122 10.19553,-7.09225 12.7659,-1.03499 17.23942,15.34292 31.83843,14.16533 -17.4721,1.41612 -20.0041,-15.49638 -34.1786,-13.61406 -3.51944,0.85984 -5.97471,2.87559 -7.01804,6.19154 -1.51869,4.83965 1.61878,9.70515 7.00886,10.8694"
           style="fill:#748a6a;fill-opacity:1;fill-rule:evenodd;stroke:none"
           id="path790"
           inkscape:connector-curvature="0" />
      </g>
      <g
         id="g162">
        <path
           d="m 219.57507,308.65242 c 16.05349,5.32837 19.86316,-14.60234 35.91164,-13.30548 -18.15848,-1.472 -20.17507,16.86245 -35.91164,13.30548"
           style="fill:#748a6a;fill-opacity:1;fill-rule:evenodd;stroke:none"
           id="path794"
           inkscape:connector-curvature="0" />
        <path
           d="m 245.43937,308.93381 c 0.40282,-0.0667 0.68221,-0.43117 0.61882,-0.81147 -0.0642,-0.3803 -0.44451,-0.63551 -0.84817,-0.57129 -0.40448,0.0651 -0.6847,0.42951 -0.62048,0.81314 0.0626,0.37947 0.44285,0.6355 0.84983,0.56962"
           style="fill:#748a6a;fill-opacity:1;fill-rule:evenodd;stroke:none"
           id="path798"
           inkscape:connector-curvature="0" />
        <path
           d="m 245.50776,306.47295 c 0.66219,-0.10842 1.11588,-0.69971 1.0108,-1.32437 -0.10091,-0.62383 -0.71974,-1.03916 -1.38192,-0.93074 -0.65719,0.10508 -1.11088,0.70139 -1.00747,1.32271 0.10175,0.6255 0.7189,1.03749 1.37859,0.9324"
           style="fill:#748a6a;fill-opacity:1;fill-rule:evenodd;stroke:none"
           id="path802"
           inkscape:connector-curvature="0" />
        <path
           d="m 245.43937,286.68361 c 0.40282,0.0659 0.68221,0.43034 0.61882,0.81397 -0.0642,0.37947 -0.44451,0.63467 -0.84817,0.56962 -0.40448,-0.0667 -0.6847,-0.42867 -0.62048,-0.81147 0.0626,-0.38281 0.44285,-0.63801 0.84983,-0.57212"
           style="fill:#748a6a;fill-opacity:1;fill-rule:evenodd;stroke:none"
           id="path806"
           inkscape:connector-curvature="0" />
        <path
           d="m 245.50776,289.14688 c 0.66219,0.10592 1.11588,0.70222 1.0108,1.32354 -0.10091,0.62216 -0.71974,1.03832 -1.38192,0.92907 -0.65719,-0.10842 -1.11088,-0.70222 -1.00747,-1.32354 0.10175,-0.62133 0.7189,-1.03749 1.37859,-0.92907"
           style="fill:#748a6a;fill-opacity:1;fill-rule:evenodd;stroke:none"
           id="path810"
           inkscape:connector-curvature="0" />
        <path
           d="m 245.58265,303.09179 c 0.9249,-0.15095 1.55539,-0.98078 1.41445,-1.85063 -0.14011,-0.87235 -1.00746,-1.45614 -1.93152,-1.30519 -0.9249,0.15095 -1.5579,0.98411 -1.41612,1.85396 0.14178,0.86902 1.00997,1.45448 1.93319,1.30186"
           style="fill:#748a6a;fill-opacity:1;fill-rule:evenodd;stroke:none"
           id="path814"
           inkscape:connector-curvature="0" />
        <path
           d="m 219.30544,289.98379 c 4.04319,-0.86735 7.84619,1.36941 8.70687,4.46769 0.86234,3.10161 -0.89154,6.72113 -4.7279,7.86369 -2.30348,0.68554 -4.94056,-0.27688 -6.10982,-2.51364 -1.16675,-2.23593 0.46621,-5.04231 3.16166,-5.61859 0.43451,-0.0959 0.81732,-0.0876 1.15008,-0.01 -1.25182,0.002 -2.26679,0.96493 -2.26679,2.14836 0,1.18427 1.01664,2.14419 2.27179,2.14419 1.25599,0 2.27346,-0.95992 2.27346,-2.14419 0,-0.35695 -0.0909,-0.69305 -0.25603,-0.98911 -0.44702,-1.20428 -1.86981,-1.93486 -3.24673,-1.63879 -2.82889,0.60881 -4.47686,3.16499 -3.67957,5.70866 0.79563,2.54201 3.6729,3.83886 6.56601,3.49692 4.1024,-0.48037 7.16231,-5.28666 5.39008,-9.29399 -1.77306,-4.00649 -5.47431,-5.42928 -9.71849,-4.51189 -5.66113,1.2168 -8.62096,6.71363 -7.36247,11.41066 1.08002,4.03569 4.60696,6.84123 10.1947,7.09226 12.7684,1.03498 17.24276,-15.34292 31.83593,-14.16533 -17.4671,-1.41611 -19.99993,15.49638 -34.1736,13.61406 -3.51944,-0.85984 -5.97805,-2.87476 -7.01803,-6.19154 -1.5187,-4.83965 1.61877,-9.70515 7.00885,-10.8694"
           style="fill:#748a6a;fill-opacity:1;fill-rule:evenodd;stroke:none"
           id="path818"
           inkscape:connector-curvature="0" />
        <path
           d="m 271.07399,308.65242 c -16.04848,5.32837 -19.86482,-14.60234 -35.9108,-13.30548 18.15931,-1.472 20.17674,16.86245 35.9108,13.30548"
           style="fill:#748a6a;fill-opacity:1;fill-rule:evenodd;stroke:none"
           id="path822"
           inkscape:connector-curvature="0" />
        <path
           d="m 271.34521,289.98379 c -4.04235,-0.86735 -7.84285,1.36941 -8.70603,4.46769 -0.86568,3.10161 0.88903,6.72113 4.72372,7.86369 2.30765,0.68554 4.94223,-0.27688 6.11315,-2.51364 1.16425,-2.23593 -0.4662,-5.04231 -3.16166,-5.61859 -0.43701,-0.0959 -0.81898,-0.0876 -1.15007,-0.01 1.25182,0.002 2.26679,0.96493 2.26679,2.14836 0,1.18427 -1.01664,2.14419 -2.27179,2.14419 -1.25599,0 -2.27263,-0.95992 -2.27263,-2.14419 0,-0.35695 0.0934,-0.69305 0.25521,-0.98911 0.44785,-1.20428 1.87064,-1.93486 3.24755,-1.63879 2.8289,0.60881 4.47687,3.16499 3.67957,5.70866 -0.79646,2.54201 -3.67373,3.83886 -6.57185,3.49692 -4.09823,-0.48037 -7.15814,-5.28666 -5.38674,-9.29399 1.77306,-4.00649 5.47598,-5.42928 9.72016,-4.51189 5.65863,1.2168 8.61846,6.71363 7.36163,11.41066 -1.07918,4.03569 -4.60529,6.84123 -10.19553,7.09226 -12.76589,1.03498 -17.24025,-15.34292 -31.83926,-14.16533 17.4721,-1.41611 20.0041,15.49638 34.17944,13.61406 3.51944,-0.85984 5.9747,-2.87476 7.01719,-6.19154 1.5187,-4.83965 -1.61877,-9.70515 -7.00885,-10.8694"
           style="fill:#748a6a;fill-opacity:1;fill-rule:evenodd;stroke:none"
           id="path826"
           inkscape:connector-curvature="0" />
      </g>
      <g
         id="g4868"
         transform="matrix(0.61999334,0,0,0.61999334,11.36891,-107.89845)">
        <g
           transform="matrix(1.25,0,0,-1.25,397.97416,591.12964)"
           id="g1646">
          <path
             d="m 0,0 c -2.209,-4.6 -4.728,-9.054 -7.122,-13.563 -0.514,-0.963 -1.227,-1.391 -2.436,-1.386 -13.382,0.053 -26.769,0.03 -40.154,0.031 -0.135,0 -0.613,0.002 -1.179,0.004 0.145,0.965 0.25,3.948 0.25,4.149 v 5.583 h 1.056 v -0.611 c 0,-0.133 0.105,-0.24 0.238,-0.24 0.132,0 0.24,0.107 0.24,0.24 v 0.613 c 0.128,0.004 0.228,0.07 0.228,0.155 0,0.082 -0.1,0.148 -0.228,0.153 v 0.661 c 0,0.131 -0.108,0.239 -0.24,0.239 -0.133,0 -0.238,-0.108 -0.238,-0.239 v -0.66 h -1.056 v 3.665 0.002 c 0.049,0.005 0.096,0.007 0.136,0.014 0.934,0.122 1.855,0.415 2.649,0.851 1.944,1.07 2.627,3.056 3.141,5.029 0.657,2.537 1.135,5.12 1.698,7.681 0.559,2.532 2.332,3.898 4.624,4.72 3.067,1.101 6.288,1.49 9.49,1.382 6.401,-0.214 12.795,-0.701 19.19,-1.077 1.608,-0.098 3.212,-0.23 4.816,-0.29 C -0.114,16.933 2.575,14.139 2.431,9.375 2.329,6.076 1.401,2.921 0,0 m 19.367,19.193 h 2.22 v -2.997 c -0.002,-2.957 1.517,-3.887 4.354,-2.39 V 4.854 h -2.913 c 0,0.966 0.014,1.86 -0.005,2.752 -0.026,1.474 -0.499,1.94 -1.996,1.987 -0.936,0.026 -1.876,0.033 -2.813,0.052 -0.036,0.001 -0.072,0.037 -0.246,0.131 0.451,3.046 0.913,6.15 1.399,9.417 m 15.427,-38.839 c 0,0.457 -0.159,0.925 -0.296,1.375 -0.642,2.099 -2.005,3.245 -4.182,3.301 -3.137,0.08 -6.279,0.127 -9.416,0.02 -1.595,-0.054 -2.65,0.621 -3.399,1.84 -0.548,0.887 -1.07,2.111 -1.248,2.874 -0.453,1.938 -0.642,5.954 -0.525,7.94 0.126,2.153 0.742,5.722 1.137,8.553 H 20.42 C 20.12,5.611 20.025,4.98 19.66,4.706 19.038,4.236 18.53,3.771 18.763,2.982 19.008,2.146 19.652,1.776 20.56,1.788 c 2.08,0.029 4.16,0.008 6.242,0.006 h 5.645 v -1.89 c 0,-0.606 0.529,-1.096 1.184,-1.096 0.655,0 1.187,0.49 1.187,1.096 v 0.875 c 0.057,1.88 0.038,3.765 0.012,5.649 0,0.049 -0.008,0.094 -0.012,0.141 v 0.488 c 0,0.605 -0.532,1.097 -1.187,1.097 -0.655,0 -1.184,-0.492 -1.184,-1.097 V 4.854 C 32.328,4.69 31.013,4.617 30.858,4.652 v 2.263 c 0.003,0.026 0.01,0.054 0.01,0.08 0.012,10.52 0.004,21.041 0,31.561 0,0.431 0.021,0.867 -0.03,1.294 -0.167,1.419 -1.121,2.217 -2.567,2.183 -1.365,-0.033 -2.388,-0.969 -2.419,-2.354 -0.049,-2.197 -0.014,-4.395 -0.025,-6.595 0,-0.326 -0.053,-0.65 -0.083,-0.977 -0.035,0.12 -0.07,0.238 -0.102,0.356 -0.958,0.026 -2.009,0.309 -2.849,0.01 -1.027,-0.37 -1.234,-1.512 -1.206,-2.594 C 21.608,29 21.59,28.118 21.59,27.212 h -3.483 c -1.841,4.23 -5.377,5.511 -9.496,5.898 -0.005,0.103 -0.038,0.203 -0.094,0.295 0.344,0.058 0.674,0.086 0.999,0.155 0.017,0.005 0.04,0.013 0.058,0.018 h 0.088 c 0.534,0 0.968,0.435 0.968,0.968 0,0.535 -0.434,0.967 -0.968,0.967 H 9.313 v 4.097 c 0.025,0.026 0.055,0.052 0.083,0.078 h 0.266 c 0.534,0 0.968,0.434 0.968,0.969 0,0.534 -0.434,0.968 -0.968,0.968 H 8.197 c -0.484,0.74 -0.792,1.214 -1.1,1.687 C 6.79,42.841 6.482,42.373 6.012,41.654 5.759,41.654 5.17,41.714 4.596,41.642 4.421,41.62 4.278,41.551 4.157,41.46 4.156,41.46 4.154,41.458 4.152,41.458 4.121,41.434 4.094,41.412 4.062,41.386 3.86,41.206 3.729,40.949 3.729,40.657 c 0,-0.535 0.431,-0.969 0.966,-0.969 H 4.704 C 4.726,39.671 4.753,39.657 4.771,39.638 4.924,39.465 4.883,39.163 4.883,39.1 v -3.006 c 0,-0.278 0.007,-0.457 -0.139,-0.581 H 4.695 c -0.535,0 -0.966,-0.432 -0.966,-0.967 0,-0.533 0.431,-0.968 0.966,-0.968 H 4.718 C 4.749,33.569 4.776,33.555 4.809,33.547 5.129,33.474 5.462,33.451 5.794,33.438 5.718,33.332 5.673,33.213 5.67,33.091 -1.812,31.876 -9.295,30.665 -16.807,29.445 c 0,0 -0.192,-0.029 -0.528,-0.081 v 8.512 c 0,0.239 -0.192,0.433 -0.431,0.433 -0.239,0 -0.431,-0.194 -0.431,-0.433 v -8.644 c -3.006,-0.45 -10.123,-1.443 -13.642,-1.308 -1.961,0.074 -3.84,0.367 -5.467,1.717 -1.773,1.474 -3.669,2.804 -5.578,4.102 -2.278,1.552 -4.363,2.92 -7.661,2.434 v 5.079 c 0,0.237 -0.193,0.431 -0.432,0.431 -0.237,0 -0.432,-0.194 -0.432,-0.431 v -5.213 c -0.283,-0.046 -0.577,-0.098 -0.834,-0.151 -2.788,-0.596 -1.507,-2.617 -1.939,-4.11 -1.292,0.533 -1.641,1.172 -1.143,2.094 -0.358,-0.063 -0.718,-0.122 -1.074,-0.196 -0.282,-0.059 -0.735,-0.071 -0.794,-0.227 -0.101,-0.258 0.008,-0.63 0.109,-0.928 0.068,-0.201 0.172,-0.465 0.272,-0.595 0.135,-0.171 0.544,-0.483 0.651,-0.582 0,0 2.15,-1.704 2.106,-3.378 -0.122,-4.661 -0.039,-9.327 -0.039,-13.993 v -0.804 l -2.041,2.011 c -0.083,0.081 -0.204,0.105 -0.312,0.06 -0.108,-0.044 -0.177,-0.149 -0.177,-0.264 v -1.417 c -0.003,0 -0.006,0.002 -0.008,0.002 -0.501,0 -0.91,-0.409 -0.91,-0.911 V 8.811 c 0,-0.501 0.409,-0.91 0.91,-0.91 h 0.008 v -1.7 c 0,-0.118 0.072,-0.223 0.181,-0.267 0.034,-0.014 0.071,-0.021 0.106,-0.021 0.076,0 0.153,0.029 0.209,0.089 l 2.016,2.108 c 0.007,-1.532 0.018,-4.771 0.008,-6.441 -10e-4,-0.268 -0.23,-0.617 -0.38,-0.77 -0.055,-0.055 -0.176,-0.134 -0.215,-0.231 -0.042,-0.094 10e-4,-0.33 0.072,-0.401 0.041,-0.043 0.145,-0.117 0.289,-0.228 0.236,-0.183 1.114,-0.945 2.112,-1.163 0.224,-0.048 0.572,-0.08 0.915,-0.09 v -7.295 c -0.021,0.003 -0.039,0.009 -0.062,0.009 h -1.113 v 0.61 c 0,0.133 -0.106,0.24 -0.24,0.24 -0.132,0 -0.24,-0.107 -0.24,-0.24 v -0.612 c -0.127,-0.005 -0.226,-0.073 -0.226,-0.156 0,-0.083 0.099,-0.149 0.226,-0.154 v -0.659 c 0,-0.133 0.108,-0.24 0.24,-0.24 0.134,0 0.24,0.107 0.24,0.24 v 0.659 h 1.113 c 0.023,0 0.041,0.003 0.062,0.006 v -1.959 c 0,-0.201 0.106,-3.184 0.248,-4.149 -1.022,10e-4 -2.23,0.003 -2.23,0.003 -4.437,0 -3.809,0.016 -8.244,-0.003 -2.674,-0.012 -4.611,-1.88 -4.682,-4.559 -0.071,-2.782 -0.044,-5.569 -0.086,-8.355 -0.044,-2.84 1.796,-5.385 5.429,-5.346 13.307,0.137 21.547,0.042 34.855,0.058 11.774,0.012 23.548,0.066 35.323,0.074 6.827,0.003 13.654,-0.06 20.48,-0.071 2.822,-0.003 4.617,1.361 4.871,4.192 0.276,3.071 0.133,6.182 0.141,9.275"
             style="fill:#3e383c;fill-opacity:1;fill-rule:evenodd;stroke:none"
             id="path1648"
             inkscape:connector-curvature="0" />
        </g>
        <g
           transform="matrix(1.25,0,0,-1.25,397.97416,591.12964)"
           id="g1650">
          <path
             d="m 0,0 c -2.209,-4.6 -4.728,-9.054 -7.122,-13.563 -0.514,-0.963 -1.227,-1.391 -2.436,-1.386 -13.382,0.053 -26.769,0.03 -40.154,0.031 -0.135,0 -0.613,0.002 -1.179,0.004 0.145,0.965 0.25,3.948 0.25,4.149 v 5.583 h 1.056 v -0.611 c 0,-0.133 0.105,-0.24 0.238,-0.24 0.132,0 0.24,0.107 0.24,0.24 v 0.613 c 0.128,0.004 0.228,0.07 0.228,0.155 0,0.082 -0.1,0.148 -0.228,0.153 v 0.661 c 0,0.131 -0.108,0.239 -0.24,0.239 -0.133,0 -0.238,-0.108 -0.238,-0.239 v -0.66 h -1.056 v 3.665 0.002 c 0.049,0.005 0.096,0.007 0.136,0.014 0.934,0.122 1.855,0.415 2.649,0.851 1.944,1.07 2.627,3.056 3.141,5.029 0.657,2.537 1.135,5.12 1.698,7.681 0.559,2.532 2.332,3.898 4.624,4.72 3.067,1.101 6.288,1.49 9.49,1.382 6.401,-0.214 12.795,-0.701 19.19,-1.077 1.608,-0.098 3.212,-0.23 4.816,-0.29 C -0.114,16.933 2.575,14.139 2.431,9.375 2.329,6.076 1.401,2.921 0,0 Z m 19.367,19.193 h 2.22 v -2.997 c -0.002,-2.957 1.517,-3.887 4.354,-2.39 V 4.854 h -2.913 c 0,0.966 0.014,1.86 -0.005,2.752 -0.026,1.474 -0.499,1.94 -1.996,1.987 -0.936,0.026 -1.876,0.033 -2.813,0.052 -0.036,0.001 -0.072,0.037 -0.246,0.131 0.451,3.046 0.913,6.15 1.399,9.417 z m 15.427,-38.839 c 0,0.457 -0.159,0.925 -0.296,1.375 -0.642,2.099 -2.005,3.245 -4.182,3.301 -3.137,0.08 -6.279,0.127 -9.416,0.02 -1.595,-0.054 -2.65,0.621 -3.399,1.84 -0.548,0.887 -1.07,2.111 -1.248,2.874 -0.453,1.938 -0.642,5.954 -0.525,7.94 0.126,2.153 0.742,5.722 1.137,8.553 H 20.42 C 20.12,5.611 20.025,4.98 19.66,4.706 19.038,4.236 18.53,3.771 18.763,2.982 19.008,2.146 19.652,1.776 20.56,1.788 c 2.08,0.029 4.16,0.008 6.242,0.006 h 5.645 v -1.89 c 0,-0.606 0.529,-1.096 1.184,-1.096 0.655,0 1.187,0.49 1.187,1.096 v 0.875 c 0.057,1.88 0.038,3.765 0.012,5.649 0,0.049 -0.008,0.094 -0.012,0.141 v 0.488 c 0,0.605 -0.532,1.097 -1.187,1.097 -0.655,0 -1.184,-0.492 -1.184,-1.097 V 4.854 C 32.328,4.69 31.013,4.617 30.858,4.652 v 2.263 c 0.003,0.026 0.01,0.054 0.01,0.08 0.012,10.52 0.004,21.041 0,31.561 0,0.431 0.021,0.867 -0.03,1.294 -0.167,1.419 -1.121,2.217 -2.567,2.183 -1.365,-0.033 -2.388,-0.969 -2.419,-2.354 -0.049,-2.197 -0.014,-4.395 -0.025,-6.595 0,-0.326 -0.053,-0.65 -0.083,-0.977 -0.035,0.12 -0.07,0.238 -0.102,0.356 -0.958,0.026 -2.009,0.309 -2.849,0.01 -1.027,-0.37 -1.234,-1.512 -1.206,-2.594 C 21.608,29 21.59,28.118 21.59,27.212 h -3.483 c -1.841,4.23 -5.377,5.511 -9.496,5.898 -0.005,0.103 -0.038,0.203 -0.094,0.295 0.344,0.058 0.674,0.086 0.999,0.155 0.017,0.005 0.04,0.013 0.058,0.018 h 0.088 c 0.534,0 0.968,0.435 0.968,0.968 0,0.535 -0.434,0.967 -0.968,0.967 H 9.313 v 4.097 c 0.025,0.026 0.055,0.052 0.083,0.078 h 0.266 c 0.534,0 0.968,0.434 0.968,0.969 0,0.534 -0.434,0.968 -0.968,0.968 H 8.197 c -0.484,0.74 -0.792,1.214 -1.1,1.687 C 6.79,42.841 6.482,42.373 6.012,41.654 5.759,41.654 5.17,41.714 4.596,41.642 4.421,41.62 4.278,41.551 4.157,41.46 4.156,41.46 4.154,41.458 4.152,41.458 4.121,41.434 4.094,41.412 4.062,41.386 3.86,41.206 3.729,40.949 3.729,40.657 c 0,-0.535 0.431,-0.969 0.966,-0.969 H 4.704 C 4.726,39.671 4.753,39.657 4.771,39.638 4.924,39.465 4.883,39.163 4.883,39.1 v -3.006 c 0,-0.278 0.007,-0.457 -0.139,-0.581 H 4.695 c -0.535,0 -0.966,-0.432 -0.966,-0.967 0,-0.533 0.431,-0.968 0.966,-0.968 H 4.718 C 4.749,33.569 4.776,33.555 4.809,33.547 5.129,33.474 5.462,33.451 5.794,33.438 5.718,33.332 5.673,33.213 5.67,33.091 -1.812,31.876 -9.295,30.665 -16.807,29.445 c 0,0 -0.192,-0.029 -0.528,-0.081 v 8.512 c 0,0.239 -0.192,0.433 -0.431,0.433 -0.239,0 -0.431,-0.194 -0.431,-0.433 v -8.644 c -3.006,-0.45 -10.123,-1.443 -13.642,-1.308 -1.961,0.074 -3.84,0.367 -5.467,1.717 -1.773,1.474 -3.669,2.804 -5.578,4.102 -2.278,1.552 -4.363,2.92 -7.661,2.434 v 5.079 c 0,0.237 -0.193,0.431 -0.432,0.431 -0.237,0 -0.432,-0.194 -0.432,-0.431 v -5.213 c -0.283,-0.046 -0.577,-0.098 -0.834,-0.151 -2.788,-0.596 -1.507,-2.617 -1.939,-4.11 -1.292,0.533 -1.641,1.172 -1.143,2.094 -0.358,-0.063 -0.718,-0.122 -1.074,-0.196 -0.282,-0.059 -0.735,-0.071 -0.794,-0.227 -0.101,-0.258 0.008,-0.63 0.109,-0.928 0.068,-0.201 0.172,-0.465 0.272,-0.595 0.135,-0.171 0.544,-0.483 0.651,-0.582 0,0 2.15,-1.704 2.106,-3.378 -0.122,-4.661 -0.039,-9.327 -0.039,-13.993 v -0.804 l -2.041,2.011 c -0.083,0.081 -0.204,0.105 -0.312,0.06 -0.108,-0.044 -0.177,-0.149 -0.177,-0.264 v -1.417 c -0.003,0 -0.006,0.002 -0.008,0.002 -0.501,0 -0.91,-0.409 -0.91,-0.911 V 8.811 c 0,-0.501 0.409,-0.91 0.91,-0.91 h 0.008 v -1.7 c 0,-0.118 0.072,-0.223 0.181,-0.267 0.034,-0.014 0.071,-0.021 0.106,-0.021 0.076,0 0.153,0.029 0.209,0.089 l 2.016,2.108 c 0.007,-1.532 0.018,-4.771 0.008,-6.441 -10e-4,-0.268 -0.23,-0.617 -0.38,-0.77 -0.055,-0.055 -0.176,-0.134 -0.215,-0.231 -0.042,-0.094 10e-4,-0.33 0.072,-0.401 0.041,-0.043 0.145,-0.117 0.289,-0.228 0.236,-0.183 1.114,-0.945 2.112,-1.163 0.224,-0.048 0.572,-0.08 0.915,-0.09 v -7.295 c -0.021,0.003 -0.039,0.009 -0.062,0.009 h -1.113 v 0.61 c 0,0.133 -0.106,0.24 -0.24,0.24 -0.132,0 -0.24,-0.107 -0.24,-0.24 v -0.612 c -0.127,-0.005 -0.226,-0.073 -0.226,-0.156 0,-0.083 0.099,-0.149 0.226,-0.154 v -0.659 c 0,-0.133 0.108,-0.24 0.24,-0.24 0.134,0 0.24,0.107 0.24,0.24 v 0.659 h 1.113 c 0.023,0 0.041,0.003 0.062,0.006 v -1.959 c 0,-0.201 0.106,-3.184 0.248,-4.149 -1.022,10e-4 -2.23,0.003 -2.23,0.003 -4.437,0 -3.809,0.016 -8.244,-0.003 -2.674,-0.012 -4.611,-1.88 -4.682,-4.559 -0.071,-2.782 -0.044,-5.569 -0.086,-8.355 -0.044,-2.84 1.796,-5.385 5.429,-5.346 13.307,0.137 21.547,0.042 34.855,0.058 11.774,0.012 23.548,0.066 35.323,0.074 6.827,0.003 13.654,-0.06 20.48,-0.071 2.822,-0.003 4.617,1.361 4.871,4.192 0.276,3.071 0.133,6.182 0.141,9.275 z"
             style="fill:none;stroke:#3e383c;stroke-width:0.5;stroke-linecap:round;stroke-linejoin:round;stroke-miterlimit:10;stroke-dasharray:none;stroke-opacity:1"
             id="path1652"
             inkscape:connector-curvature="0" />
        </g>
        <g
           transform="matrix(1.25,0,0,-1.25,337.68116,548.33364)"
           id="g1654">
          <path
             d="m 0,0 c 5.011,-0.854 7.571,-5.669 12.203,-7.312 4.279,-1.517 8.897,-1.045 13.323,-0.398 11.73,1.712 24.896,6.931 36.453,2.555 0.193,-0.073 0.296,0.219 0.135,0.322 -8.7,5.543 -21.939,0.142 -31.059,-1.28 -6.6,-1.029 -13.848,-2.975 -20.162,0.082 C 6.99,-4.142 4.561,-0.439 0.013,0.092 -0.04,0.099 -0.052,0.009 0,0"
             style="fill:#ffffff;fill-opacity:1;fill-rule:nonzero;stroke:none"
             id="path1656"
             inkscape:connector-curvature="0" />
        </g>
        <g
           transform="matrix(1.25,0,0,-1.25,332.33941,557.86063)"
           id="g1658">
          <path
             d="m 0,0 c -0.721,-7.516 -0.491,-15.469 -0.059,-23.003 0.01,-0.166 0.248,-0.166 0.258,0 C 0.632,-15.469 0.862,-7.516 0.141,0 0.132,0.09 0.009,0.09 0,0"
             style="fill:#ffffff;fill-opacity:1;fill-rule:nonzero;stroke:none"
             id="path1660"
             inkscape:connector-curvature="0" />
        </g>
        <g
           transform="matrix(1.25,0,0,-1.25,399.13991,570.40214)"
           id="g1662">
          <path
             d="m 0,0 c 6.228,-8.185 -0.866,-14.901 -1.981,-23.227 -0.024,-0.177 0.25,-0.234 0.327,-0.088 3.011,5.676 8.755,18.599 1.83,23.491 C 0.074,0.249 -0.078,0.103 0,0"
             style="fill:#ffffff;fill-opacity:1;fill-rule:nonzero;stroke:none"
             id="path1664"
             inkscape:connector-curvature="0" />
        </g>
        <g
           transform="matrix(1.25,0,0,-1.25,421.27979,558.25676)"
           id="g1666">
          <path
             d="m 0,0 c 0.546,-0.206 1.107,-0.211 1.685,-0.273 0.51,-0.055 1.14,-0.22 1.542,0.177 C 3.279,-0.044 3.3,0.054 3.254,0.117 2.945,0.543 2.41,0.526 1.917,0.504 1.269,0.476 0.611,0.479 0,0.249 -0.123,0.203 -0.123,0.046 0,0"
             style="fill:#ffffff;fill-opacity:1;fill-rule:nonzero;stroke:none"
             id="path1668"
             inkscape:connector-curvature="0" />
        </g>
        <g
           transform="matrix(1.25,0,0,-1.25,426.14554,555.23363)"
           id="g1670">
          <path
             d="m 0,0 c 0.08,0.487 0.109,0.986 0.206,1.469 0.05,0.248 0.143,0.487 0.31,0.679 0.178,0.207 0.442,0.24 0.63,0.425 C 1.241,2.668 1.183,2.803 1.073,2.848 0.489,3.082 0.018,2.384 -0.116,1.912 -0.296,1.279 -0.156,0.629 -0.045,0 -0.041,-0.022 -0.003,-0.022 0,0"
             style="fill:#ffffff;fill-opacity:1;fill-rule:nonzero;stroke:none"
             id="path1672"
             inkscape:connector-curvature="0" />
        </g>
        <g
           transform="matrix(1.25,0,0,-1.25,431.75404,550.50651)"
           id="g1674">
          <path
             d="M 0,0 C 0.528,0.977 0.462,2.244 0.446,3.334 0.428,4.6 0.517,6.002 0.103,7.208 0.033,7.409 -0.235,7.409 -0.305,7.208 -0.723,5.991 -0.604,4.609 -0.648,3.334 -0.686,2.254 -0.725,0.967 -0.202,0 -0.161,-0.076 -0.041,-0.076 0,0"
             style="fill:#ffffff;fill-opacity:1;fill-rule:nonzero;stroke:none"
             id="path1676"
             inkscape:connector-curvature="0" />
        </g>
        <g
           transform="matrix(1.25,0,0,-1.25,431.31467,574.32126)"
           id="g1678">
          <path
             d="m 0,0 c -0.458,-0.394 -0.399,-1.016 -0.399,-1.575 0,-0.853 0.264,-1.594 0.4,-2.428 0.01,-0.057 0.104,-0.057 0.114,0 0.117,0.717 0.4,1.396 0.4,2.129 C 0.515,-1.247 0.64,-0.451 0.116,0 0.08,0.031 0.036,0.031 0,0"
             style="fill:#ffffff;fill-opacity:1;fill-rule:nonzero;stroke:none"
             id="path1680"
             inkscape:connector-curvature="0" />
        </g>
        <g
           transform="matrix(1.25,0,0,-1.25,422.59029,579.99438)"
           id="g1682">
          <path
             d="m 0,0 c 0.56,-0.246 1.201,-0.107 1.754,-0.433 0.638,-0.375 0.601,-1.173 0.7,-1.818 0.013,-0.086 0.135,-0.07 0.158,0 0.234,0.71 0.163,1.579 -0.441,2.092 C 1.68,0.259 0.574,0.387 0,0.142 -0.054,0.119 -0.053,0.023 0,0"
             style="fill:#ffffff;fill-opacity:1;fill-rule:nonzero;stroke:none"
             id="path1684"
             inkscape:connector-curvature="0" />
        </g>
        <g
           transform="matrix(1.25,0,0,-1.25,439.57141,584.49638)"
           id="g1686">
          <path
             d="M 0,0 C 0.495,0.43 -0.157,1.548 0.565,1.745 1.101,1.891 1.007,2.765 0.432,2.73 -0.236,2.689 -0.564,2.188 -0.615,1.565 -0.649,1.152 -0.593,0.28 -0.249,0 -0.17,-0.063 -0.078,-0.067 0,0"
             style="fill:#ffffff;fill-opacity:1;fill-rule:nonzero;stroke:none"
             id="path1688"
             inkscape:connector-curvature="0" />
        </g>
        <g
           transform="matrix(1.25,0,0,-1.25,403.00354,540.41676)"
           id="g1690">
          <path
             d="M 0,0 C 0.639,-0.144 1.474,-0.154 2.082,0.122 2.767,0.433 3.145,1.085 3.472,1.73 3.624,2.029 3.216,2.261 3.026,1.991 2.701,1.526 2.345,1.017 1.777,0.845 1.203,0.671 0.58,0.775 0,0.648 -0.322,0.577 -0.32,0.072 0,0"
             style="fill:#ffffff;fill-opacity:1;fill-rule:nonzero;stroke:none"
             id="path1692"
             inkscape:connector-curvature="0" />
        </g>
        <g
           transform="matrix(1.25,0,0,-1.25,404.72716,542.01101)"
           id="g1694">
          <path
             d="m 0,0 c -0.242,-0.408 -0.152,-0.959 -0.162,-1.421 -0.015,-0.623 -0.012,-1.243 -0.008,-1.865 0.003,-0.408 0.635,-0.408 0.633,0 C 0.459,-2.658 0.406,-2.045 0.339,-1.421 0.29,-0.959 0.348,-0.403 0.102,0 0.079,0.037 0.023,0.038 0,0"
             style="fill:#ffffff;fill-opacity:1;fill-rule:nonzero;stroke:none"
             id="path1696"
             inkscape:connector-curvature="0" />
        </g>
        <g
           transform="matrix(1.25,0,0,-1.25,407.71604,570.35213)"
           id="g1698">
          <path
             d="m 0,0 c -1.122,0.717 -1.375,2.674 -0.776,3.78 0.482,0.889 1.69,1.033 2.53,0.677 C 2.578,4.107 2.966,3.456 3.607,2.905 3.693,2.832 3.822,2.88 3.828,2.997 3.87,3.928 2.904,4.921 2.084,5.24 0.879,5.708 -0.267,5.413 -1.17,4.51 -2.396,3.286 -1.851,0.215 -0.063,-0.15 0.027,-0.168 0.08,-0.051 0,0"
             style="fill:#ffffff;fill-opacity:1;fill-rule:nonzero;stroke:none"
             id="path1700"
             inkscape:connector-curvature="0" />
        </g>
        <g
           transform="matrix(1.25,0,0,-1.25,404.08867,567.20639)"
           id="g1702">
          <path
             d="M 0,0 C -0.029,1.488 0.479,2.87 1.79,3.672 3.157,4.508 4.293,3.947 5.713,3.744 5.804,3.731 5.871,3.826 5.805,3.901 4.754,5.079 2.734,4.963 1.488,4.188 0.107,3.328 -0.243,1.477 -0.023,-0.003 -0.021,-0.017 0,-0.013 0,0"
             style="fill:#ffffff;fill-opacity:1;fill-rule:nonzero;stroke:none"
             id="path1704"
             inkscape:connector-curvature="0" />
        </g>
        <g
           transform="matrix(1.25,0,0,-1.25,404.03617,571.66064)"
           id="g1706">
          <path
             d="M 0,0 C 1.96,-2.929 7.176,-2.389 8.608,0.849 8.634,0.907 8.567,0.969 8.516,0.92 6.123,-1.416 2.795,-2.586 0.055,0.042 0.027,0.069 -0.023,0.034 0,0"
             style="fill:#ffffff;fill-opacity:1;fill-rule:nonzero;stroke:none"
             id="path1708"
             inkscape:connector-curvature="0" />
        </g>
        <g
           transform="matrix(1.25,0,0,-1.25,401.61804,565.28863)"
           id="g1710">
          <path
             d="M 0,0 C 0.027,4.955 7.228,7.05 9.953,3.031 10.003,2.957 10.12,3.022 10.074,3.102 8.792,5.368 6.555,6.217 4.046,5.592 1.268,4.9 -0.086,2.694 -0.1,0 -0.1,-0.064 0,-0.064 0,0"
             style="fill:#ffffff;fill-opacity:1;fill-rule:nonzero;stroke:none"
             id="path1712"
             inkscape:connector-curvature="0" />
        </g>
        <g
           transform="matrix(1.25,0,0,-1.25,423.56929,611.84801)"
           id="g1714">
          <path
             d="m 0,0 c 1.833,-0.415 3.738,-0.256 5.597,-0.155 2.576,0.141 4.381,-0.036 6.518,-1.461 0.096,-0.065 0.261,0.019 0.247,0.141 C 11.922,2.299 2.579,0.445 0.243,0.882 -0.329,0.988 -0.58,0.131 0,0"
             style="fill:#ffffff;fill-opacity:1;fill-rule:nonzero;stroke:none"
             id="path1716"
             inkscape:connector-curvature="0" />
        </g>
        <g
           transform="matrix(1.25,0,0,-1.25,316.69979,616.80601)"
           id="g1718">
          <path
             d="M 0,0 C 0.086,0.841 0.358,1.692 0.832,2.394 1.088,2.773 1.458,3.081 1.83,3.338 2.129,3.545 2.329,3.617 2.433,3.969 2.466,4.083 2.394,4.195 2.286,4.229 1.482,4.483 0.644,3.305 0.266,2.725 -0.287,1.874 -0.4,0.944 -0.138,-0.019 -0.116,-0.1 -0.008,-0.076 0,0"
             style="fill:#ffffff;fill-opacity:1;fill-rule:nonzero;stroke:none"
             id="path1720"
             inkscape:connector-curvature="0" />
        </g>
      </g>
    </g>
  </g>
</svg>
